<svg id="Capa_2" data-name="Capa 2" xmlns="http://www.w3.org/2000/svg" viewBox="0 0 1261.92 1261.92"><defs><style>.cls-1{fill:#fff;}</style></defs><path class="cls-1" d="M906.64,690.49l-70.8-176.57A591.48,591.48,0,0,0,665,621.57L798.16,758A401.85,401.85,0,0,1,906.64,690.49Z" transform="translate(-429.7 -429.7)"/><path class="cls-1" d="M660,1047.12a398.93,398.93,0,0,1,23.05-121.31L510.2,845A588.6,588.6,0,0,0,470,1040.7H660Z" transform="translate(-429.7 -429.7)"/><path class="cls-1" d="M1260.32,504.22A589.46,589.46,0,0,0,1080.61,470V660.2A398.13,398.13,0,0,1,1189.42,681Z" transform="translate(-429.7 -429.7)"/><path class="cls-1" d="M1429.17,902.75l172.4-80.56a591.32,591.32,0,0,0-106.14-161.87L1362.2,796.8A402,402,0,0,1,1429.17,902.75Z" transform="translate(-429.7 -429.7)"/><path class="cls-1" d="M1444.29,1177.23l.71-1.52,173.36,81a589.1,589.1,0,0,0,33-176.1H1461.12A398.55,398.55,0,0,1,1444.29,1177.23Z" transform="translate(-429.7 -429.7)"/><path class="cls-1" d="M1232,1423.08l70.91,176.83a592.24,592.24,0,0,0,169-114.81l-133-136.2A402.45,402.45,0,0,1,1232,1423.08Z" transform="translate(-429.7 -429.7)"/><path class="cls-1" d="M688.79,1210.36l-176.63,70.83a591.08,591.08,0,0,0,105.74,171L754.31,1319A401.24,401.24,0,0,1,688.79,1210.36Z" transform="translate(-429.7 -429.7)"/><path class="cls-1" d="M836.29,1607.59a588.69,588.69,0,0,0,204.41,43.75V1461.12A398.19,398.19,0,0,1,917,1434.91Z" transform="translate(-429.7 -429.7)"/><path d="M1506.81,614.51C1387.64,495.33,1229.19,429.7,1060.66,429.7a631.92,631.92,0,0,0-202.35,33l-.22-.54-11,4.4A628.75,628.75,0,0,0,614.5,614.51C495.33,733.68,429.7,892.12,429.7,1060.66s65.63,327,184.8,446.16,277.62,184.8,446.16,184.8,327-65.63,446.15-184.8,184.81-277.62,184.81-446.16S1626,733.68,1506.81,614.51Zm94.76,207.68-172.4,80.56a402,402,0,0,0-67-106l133.23-136.48A591.32,591.32,0,0,1,1601.57,822.19ZM1080.61,470a589.46,589.46,0,0,1,179.71,34.24L1189.42,681a398.13,398.13,0,0,0-108.81-20.82ZM835.84,513.92l70.8,176.57A401.85,401.85,0,0,0,798.16,758L665,621.57A591.48,591.48,0,0,1,835.84,513.92ZM510.2,845l172.88,80.78A398.93,398.93,0,0,0,660,1047.12v-6.42H470A588.6,588.6,0,0,1,510.2,845Zm2,436.16,176.63-70.83A401.24,401.24,0,0,0,754.31,1319L617.9,1452.14A591.08,591.08,0,0,1,512.16,1281.19Zm528.54,370.15a588.69,588.69,0,0,1-204.41-43.75L917,1434.91a398.19,398.19,0,0,0,123.72,26.21ZM699.6,1060.66c0-199.41,161.65-361.06,361.06-361.06s361.06,161.65,361.06,361.06-161.66,361.06-361.06,361.06S699.6,1260.07,699.6,1060.66Zm603.34,539.25L1232,1423.08A402.45,402.45,0,0,0,1339,1348.9l133,136.2A592.24,592.24,0,0,1,1302.94,1599.91Zm315.42-343.19-173.36-81-.71,1.52a398.55,398.55,0,0,0,16.83-96.61h190.21A589.1,589.1,0,0,1,1618.36,1256.72Z" transform="translate(-429.7 -429.7)"/><path class="cls-1" d="M1421.72,1060.66c0-199.41-161.66-361.06-361.06-361.06S699.6,861.25,699.6,1060.66s161.65,361.06,361.06,361.06S1421.72,1260.07,1421.72,1060.66ZM1282,1165.21a123.29,123.29,0,0,1-174.09,9.77l-44.58-39.84c9.69,106.72,73.91,162.93,95.78,179.15a2.79,2.79,0,0,1-1.68,5H963.51a2.79,2.79,0,0,1-1.67-5c21.91-16.2,86.16-72.29,95.87-178.93L1013.38,1175A123.29,123.29,0,0,1,849.06,991.13L1060.66,802l211.6,189.12A123.3,123.3,0,0,1,1282,1165.21Z" transform="translate(-429.7 -429.7)"/><path d="M1272.26,991.13,1060.66,802,849.06,991.13A123.29,123.29,0,0,0,1013.38,1175l44.33-39.62c-9.71,106.64-74,162.73-95.87,178.93a2.79,2.79,0,0,0,1.67,5h193.94a2.79,2.79,0,0,0,1.68-5c-21.87-16.22-86.09-72.43-95.78-179.15l44.58,39.84a123.29,123.29,0,0,0,164.33-183.85Z" transform="translate(-429.7 -429.7)"/></svg>