<svg xmlns="http://www.w3.org/2000/svg" viewBox="0 0 990.72 1008.51"><g id="Layer_2" data-name="Layer 2"><rect x="811.33" y="356.47" height="43.44" transform="translate(-738.56 842.62) rotate(-16.95)"/><path d="M1586.37-38.1a12.33,12.33,0,0,1,12.88-11.59,12.08,12.08,0,0,1,11.21,10.33l-24.16,2C1586.31-37.61,1586.35-37.88,1586.37-38.1Z" transform="translate(-663.55 589.67)"/><path d="M1585.83-32.69l24.91-3.14c-.64,10.65-2.88,23.65-6.36,38.05L1580-.73A223.09,223.09,0,0,0,1585.83-32.69Z" transform="translate(-663.55 589.67)"/><path d="M1586.3-37.39l24.16-2a11.47,11.47,0,0,1,.38,2.56c0,.3-.08.66-.1,1l-24.91,3.14C1586-34.25,1586.21-35.91,1586.3-37.39Z" transform="translate(-663.55 589.67)"/><path d="M1130.11,11.9a12.29,12.29,0,0,1-14,10.16L1107,20.62l15.81-21.71A12.1,12.1,0,0,1,1130.11,11.9Z" transform="translate(-663.55 589.67)"/><path d="M1102.23-4.93l-1.33,24.6c-11.85-1.84-30-4.62-52.34-7.91l24.67-21.14C1084.79-7.63,1094.59-6.12,1102.23-4.93Z" transform="translate(-663.55 589.67)"/><path d="M1120-2.14a11.44,11.44,0,0,1,2.81,1.05L1107,20.62l-6-.95,1.33-24.6C1112.09-3.4,1118.42-2.39,1120-2.14Z" transform="translate(-663.55 589.67)"/><path d="M883-35.23,896.46-8.88c-32.05-3.89-64-7.4-93.06-10l22-22.6C844-39.63,863.4-37.52,883-35.23Z" transform="translate(-663.55 589.67)"/><path d="M1073.23-9.38l-24.67,21.14c-41.4-6.11-96.85-13.93-152.1-20.64L883-35.23C954-26.92,1027.22-16.33,1073.23-9.38Z" transform="translate(-663.55 589.67)"/><path d="M737.91-47.53c2.45.06,4.94.14,7.5.23l.27,24.54c-1.54-.06-3.16-.14-4.66-.19a778.27,778.27,0,0,0-7.36,104.46L722,119.79Z" transform="translate(-663.55 589.67)"/><path d="M825.41-41.45l-22,22.6c-21.16-1.88-40.72-3.24-57.72-3.91l-.27-24.54C768.4-46.44,795.86-44.33,825.41-41.45Z" transform="translate(-663.55 589.67)"/><path d="M709.18,114.53q-.28-7.43-.41-14.64L722,119.79Z" transform="translate(-663.55 589.67)"/><path d="M720.42-47.84l10.33.14c2.29,0,4.75.1,7.16.17L722,119.79l-13.26-19.9c-1.34-75.27,8.83-132.5,9.77-137.57Z" transform="translate(-663.55 589.67)"/><path d="M1541.62,101.64l16.44,22c-16,30.86-34.07,58.31-52.31,75.73l-6.86-28.46C1513.42,153.56,1528.31,128.77,1541.62,101.64Z" transform="translate(-663.55 589.67)"/><path d="M1580-.73l24.35,3c-8.8,36.34-25.72,81.6-46.32,121.44l-16.44-22C1558.23,67.76,1572.27,30.37,1580-.73Z" transform="translate(-663.55 589.67)"/><path d="M1474.78,193.11,1492,210.9c-4.79,3.66-9.57,7.31-14.32,10.85l-28.56-9.43C1457.59,206.17,1466.18,199.66,1474.78,193.11Z" transform="translate(-663.55 589.67)"/><path d="M1482.19,187.57a111.59,111.59,0,0,0,16.7-16.64l6.86,28.46a111.94,111.94,0,0,1-8.58,7.57c-1.75,1.35-3.47,2.61-5.2,3.94l-17.19-17.79C1477.26,191.22,1479.7,189.5,1482.19,187.57Z" transform="translate(-663.55 589.67)"/><path d="M722,119.79l13.31,14.91c.08,1.22.18,2.46.27,3.68L711,145c-.56-6.9-1-13.74-1.38-20.46L722,119.79Z" transform="translate(-663.55 589.67)"/><path d="M722,119.79l11.63-38.28c-.07,16.74.4,34.61,1.67,53.19L722,119.79Z" transform="translate(-663.55 589.67)"/><path d="M709.59,124.51c-.17-3.37-.29-6.66-.41-10L722,119.79Z" transform="translate(-663.55 589.67)"/><path d="M1305.68,301l12.54,21.67c-21.83,11.4-43.13,21.49-63.91,30.5l-96.75,8.71C1203.51,347.93,1253.07,328.21,1305.68,301Z" transform="translate(-663.55 589.67)"/><path d="M1449.09,212.32l28.56,9.43c-55.56,41.4-108.86,74.56-159.43,101L1305.68,301A1122.67,1122.67,0,0,0,1449.09,212.32Z" transform="translate(-663.55 589.67)"/><path d="M805,357.42,817.66,399c-7.28-2.35-11.69-4.11-13-4.65L802,393.2,800.07,391c-53.76-63-77.41-144.84-86.51-220.11l22.22-30.07C741.34,212.7,759.28,293.86,805,357.42Z" transform="translate(-663.55 589.67)"/><path d="M735.78,140.79l-22.22,30.07Q712,157.75,711,145l24.63-6.59Z" transform="translate(-663.55 589.67)"/><path d="M1104.88,376,1120,398.82q-9.56,2.32-18.86,4.35l-1.46-26C1101.36,376.81,1103.13,376.38,1104.88,376Z" transform="translate(-663.55 589.67)"/><path d="M1157.56,361.92l96.75-8.71A838.59,838.59,0,0,1,1120,398.82L1104.88,376Q1130.33,370.18,1157.56,361.92Z" transform="translate(-663.55 589.67)"/><path d="M1026.56,389.34,1052.89,412a642,642,0,0,1-92.54,6.9c-13.85,0-26.77-.53-38.94-1.36L922.49,392A598.94,598.94,0,0,0,1026.56,389.34Z" transform="translate(-663.55 589.67)"/><path d="M1099.64,377.19l1.46,26q-25,5.41-48.21,8.78l-26.33-22.61A691.32,691.32,0,0,0,1099.64,377.19Z" transform="translate(-663.55 589.67)"/><path d="M922.49,392l-1.08,25.51A483.87,483.87,0,0,1,843.09,406l18.33-21.65A488.57,488.57,0,0,0,922.49,392Z" transform="translate(-663.55 589.67)"/><path d="M816.71,372.68c5.81,2.09,21.18,7.1,44.71,11.65L843.09,406c-10.54-2.51-19.12-5-25.43-7L805,357.42C808.73,362.61,812.59,367.74,816.71,372.68Z" transform="translate(-663.55 589.67)"/><rect x="838.07" y="395.15" width="28.37" transform="translate(-663.57 1379.94) rotate(-49.75)"/><rect x="838.07" y="395.15" width="28.37" transform="translate(-663.57 1379.94) rotate(-49.75)"/><path d="M1528.09-56a12.81,12.81,0,0,1,3.6,15.73c-1.32,2.64-2.93,5.09-4.34,7.67l-11.75,1Z" transform="translate(-663.55 589.67)"/><path d="M1364-56.77A251.11,251.11,0,0,0,1376.62-96a12.89,12.89,0,0,1,16.94-9.19l97.88,35.1,24.16,38.48Z" transform="translate(-663.55 589.67)"/><path d="M1491.44-70.1l33,11.85a12.3,12.3,0,0,1,3.63,2.27L1515.6-31.62Z" transform="translate(-663.55 589.67)"/><path d="M1473-18.46l49.92-6.3q-4.8,8.13-10.15,15.88L1462-15Z" transform="translate(-663.55 589.67)"/><polygon points="852.05 558.05 852.02 558.05 852.05 558.05 852.05 558.05"/><path d="M1515.57-31.61h0l11.75-1c-1.43,2.63-2.9,5.25-4.42,7.82L1473-18.46Z" transform="translate(-663.55 589.67)"/><path d="M1306.73,29.75c1.57-1.6,3.29-3.17,4.8-4.78l5.43,4.78Z" transform="translate(-663.55 589.67)"/><path d="M1515.57-31.61,1453.78-16h0L1317,29.75,1311.53,25A269.08,269.08,0,0,0,1364-56.77L1515.6-31.62Z" transform="translate(-663.55 589.67)"/><polygon points="790.23 573.63 809.46 571.2 798.4 574.62 790.24 573.63 790.23 573.63"/><polygon points="790.23 573.63 809.46 571.2 798.4 574.62 790.24 573.63 790.23 573.63"/><polygon points="790.23 573.63 809.46 571.2 798.4 574.62 790.24 573.63 790.23 573.63"/><polygon points="790.23 573.63 852.02 558.05 809.46 571.2 790.23 573.63 790.23 573.63"/><polygon points="790.23 573.63 852.02 558.05 809.46 571.2 790.23 573.63 790.23 573.63"/><polygon points="790.23 573.63 852.02 558.05 809.46 571.2 790.23 573.63 790.23 573.63"/><path d="M1455.92-13.18l29.2,39.12q-8.25,9-17,17.41l-13.54-56.11Z" transform="translate(-663.55 589.67)"/><polygon points="790.24 573.63 792.37 576.49 791.02 576.9 790.23 573.63 790.24 573.63"/><polygon points="790.24 573.63 792.37 576.49 791.02 576.9 790.23 573.63 790.24 573.63"/><polygon points="790.24 573.63 792.37 576.49 791.02 576.9 790.23 573.63 790.24 573.63"/><path d="M1462-15l50.83,6.17a317.07,317.07,0,0,1-27.66,34.82l-29.2-39.12Z" transform="translate(-663.55 589.67)"/><polygon points="798.4 574.62 792.37 576.49 790.24 573.63 798.4 574.62"/><polygon points="798.4 574.62 792.37 576.49 790.24 573.63 798.4 574.62"/><polygon points="798.4 574.62 792.37 576.49 790.24 573.63 798.4 574.62"/><polygon points="790.23 573.63 790.23 573.63 790.23 573.63 790.23 573.63"/><polygon points="790.23 573.63 790.23 573.63 790.23 573.63 790.23 573.63"/><polygon points="790.23 573.63 790.23 573.63 790.23 573.63 790.23 573.63"/><polygon points="790.24 573.63 790.23 573.63 790.23 573.63 790.24 573.63"/><polygon points="790.24 573.63 790.23 573.63 790.23 573.63 790.24 573.63"/><polygon points="790.24 573.63 790.23 573.63 790.23 573.63 790.24 573.63"/><polygon points="790.24 573.63 790.23 573.63 790.23 573.63 790.24 573.63"/><polygon points="790.24 573.63 790.23 573.63 790.23 573.63 790.24 573.63"/><polygon points="790.23 573.63 790.23 573.63 790.23 573.63 790.23 573.63"/><polygon points="790.23 573.63 790.23 573.63 790.23 573.63 790.23 573.63"/><polygon points="790.23 573.63 790.23 573.63 790.23 573.63 790.23 573.63"/><polygon points="790.23 573.63 790.23 573.63 790.23 573.63 790.23 573.63"/><polygon points="790.23 573.63 790.23 573.63 790.23 573.63 790.23 573.63"/><path d="M1208.39,132.88,1317,29.75h0l71.78,74.29a656.35,656.35,0,0,1-106.43,53.23l-73.92-24.4Z" transform="translate(-663.55 589.67)"/><path d="M1317,29.75l137.61-42.51,13.54,56.11c-25.06,24-52.71,44.12-79.36,60.7L1317,29.76Z" transform="translate(-663.55 589.67)"/><polygon points="791.02 576.9 653.41 619.42 790.23 573.63 791.02 576.9"/><polygon points="791.02 576.9 653.41 619.42 790.23 573.63 791.02 576.9"/><polygon points="791.02 576.9 653.41 619.42 790.23 573.63 791.02 576.9"/><polygon points="505.32 807.26 526.85 705.35 544.84 722.54 505.32 807.26"/><path d="M1208.39,132.88l-18-17.19,1.85-8.76a13,13,0,0,1,8.21-9.42c46.41-17.39,80.69-41.8,106.27-67.76H1317Z" transform="translate(-663.55 589.67)"/><path d="M1208.4,132.88l53,91.6-1.74,17.33a12.93,12.93,0,0,1-11.23,11.54l-71.47,9.1a12.93,12.93,0,0,1-14.28-15.5l6.2-29.36,39.52-84.71Z" transform="translate(-663.55 589.67)"/><polygon points="544.84 722.54 505.32 807.26 505.32 807.26 544.84 722.54"/><polygon points="544.84 722.54 505.32 807.26 505.32 807.26 544.84 722.54"/><path d="M1282.32,157.28c-2.7,1-5.21,2-7.21,2.73a12.87,12.87,0,0,0-8.35,10.82l-5.37,53.65-53-91.6Z" transform="translate(-663.55 589.67)"/><line x1="544.84" y1="722.55" x2="544.84" y2="722.54"/><path d="M1250.87-173.22C1240.78-138.76,1202.58-44.54,1080-6.88a11.82,11.82,0,0,0-8,8.12L1037.46,127a11.77,11.77,0,0,0,12.13,14.87l65.51-4.35a11.77,11.77,0,0,0,10.84-9.87l10.37-64.17a11.72,11.72,0,0,1,8.19-9.38C1178.37,43.87,1311.33.19,1363.7-79.63c3.88-5.92-39.74-55.58-46.24-58.37l-50.68-42.65A11.75,11.75,0,0,0,1250.87-173.22Z" transform="translate(-663.55 589.67)"/><path d="M1118,22.21A12.25,12.25,0,0,0,1120-2.14c-11.2-1.8-275.67-44.07-389.2-45.57h-.16a12.26,12.26,0,0,0-12.26,12.1,12.26,12.26,0,0,0,12.1,12.41c111.74,1.48,382.91,44.82,385.64,45.26A11.73,11.73,0,0,0,1118,22.21Z" transform="translate(-663.55 589.67)"/><path d="M1327.53-105.31C1307.37-422.23,1072-311.55,1083.22-557.74c52.69-22.18,135.92-38.79,195.37-29.1-4.59,74.67,15,152.62,97,210.46,77.45,54.65,137.91,113.81,174,298.65-.58-.28-17,14.53-17.59,14.31l-135.67-49.47a21,21,0,0,0-7.14-1.24,20.91,20.91,0,0,0-20.52,16.3c-1.18,5.18-2.79,11.33-5,18.2-2.88-.48-5.62-1-8.58-1.43-9.56-1.52-18.89-2.81-28.11-4C1327.49-92.12,1327.69-102.76,1327.53-105.31Z" transform="translate(-663.55 589.67)"/><path d="M1539.71-53.9a21.16,21.16,0,0,0-7.72-9.52c.29-6.84.49-14.11.32-16.26-30.38-373.49-237.66-226.45-241.17-504.89a404.67,404.67,0,0,1,221.59,100.39c132.77,118.68,176.53,327.9,112.5,497.3-4.57,12.11-20.64,17.79-29.76,8.59-19.61-19.79-39.28-35.65-61.54-48.83,1.73-3.13,3.45-6.26,5-9.47A21.12,21.12,0,0,0,1539.71-53.9Z" transform="translate(-663.55 589.67)"/><path d="M1197.23-96.85c-15.41-268-251.64-169.17-236.88-377.6,25.3-24.31,74.2-65,108.37-77.95C1068-468.68,1088.14-413.19,1168-364c78.17,48.13,154.18,120.69,161.67,254.24,0,.11,0,24.59,0,24.7a1034.33,1034.33,0,0,0-132.51-7.84C1197.25-94.69,1197.27-96.15,1197.23-96.85Z" transform="translate(-663.55 589.67)"/><path d="M916.18-185.31c43.84,9.58,107.55,19.92,149,52.24a106.56,106.56,0,0,1,9.23,7.44c3,2.36,5.39,5.06,7.92,7.43a90.43,90.43,0,0,1,6.7,7.27c4.17,4.49,7.11,9.15,9.8,12.74,2.7,4.25,4.74,7.52,6,9.56C1019-82.42,938.3-72.54,847.47-81c-95.66-12.5-152.26-52-179.3-84a19.76,19.76,0,0,1,10.45-31.85c40.36-9.81,101.07-24.79,145.59-43.09C833.13-216.45,867.85-194.67,916.18-185.31Z" transform="translate(-663.55 589.67)"/><path d="M834.56-240c.49,1.06,1.14,2.36,2,3.92,1,1.47,2,3.1,3.27,5a61.92,61.92,0,0,0,10.7,11.68,84.35,84.35,0,0,0,17.15,11.27c13.4,7.11,30.64,11.93,49.18,16.26s38.8,8.25,58.89,13.23c10,2.45,20,5.31,29.74,8.41a245.57,245.57,0,0,1,28,11.11,161.78,161.78,0,0,1,24.51,14,102.83,102.83,0,0,1,10.46,7.93,109.24,109.24,0,0,1,9.06,8.17,105,105,0,0,1,13.89,16.17c3.84,5,6.37,9.88,8.74,13.72,2.29,4,3.51,7.35,4.57,9.48a7.18,7.18,0,0,1,.41,1c29.82-2.12,60.29-3.84,92.06-4.25h1.47c-1.22-29.9-5.88-55.54-13.15-77.68-28.18-86.75-96.39-120.16-156.35-150.79-68.77-35.29-82.17-86.59-81.19-141.73-52.36,47.63-83.48,121.22-97.61,171.46-19.61,3.84-27,37.25-17.08,48.2C833.09-243.34,833.74-241.55,834.56-240Z" transform="translate(-663.55 589.67)"/><path d="M1104.86-88.63c.65,1.06,1.06,1.8,1.3,2.12l-1.06-2.12Z" transform="translate(-663.55 589.67)"/><path d="M1124.72-542.15l49-41.38a421.71,421.71,0,0,1,76-5.59c.69,10.59,1.55,20.69,2.59,30.49l-127.6,16.48Z" transform="translate(-663.55 589.67)"/><path d="M1111-568l13.76,25.89-41.57-11c0-1.57,0-3,.07-4.59C1092.33-561.57,1101.61-564.92,1111-568Z" transform="translate(-663.55 589.67)"/><path d="M1124.72-542.15h0L1111-568a405.07,405.07,0,0,1,62.76-15.49l-49,41.38Z" transform="translate(-663.55 589.67)"/><path d="M1270.24-477.81A200.15,200.15,0,0,0,1299.92-426l-62.69,10.62Z" transform="translate(-663.55 589.67)"/><path d="M1124.72-542.15l112.51,126.78h0l-84.66,27.21c-19.17-15.37-36.12-32.59-48.55-55.62l20.7-98.37Z" transform="translate(-663.55 589.67)"/><path d="M1124.72-542.15l127.6-16.48c3.2,30,8.44,56.51,17.92,80.82l-33,62.44Z" transform="translate(-663.55 589.67)"/><polygon points="461.17 47.52 461.17 47.52 461.17 47.52 461.17 47.52"/><polygon points="461.17 47.52 461.17 47.52 461.17 47.52 461.17 47.52"/><polygon points="461.17 47.52 461.17 47.52 461.17 47.52 461.17 47.52"/><polygon points="461.17 47.52 461.17 47.52 461.17 47.51 461.17 47.52"/><polygon points="461.17 47.52 461.17 47.52 461.17 47.51 461.17 47.52"/><polygon points="461.17 47.52 461.17 47.52 461.17 47.51 461.17 47.52"/><path d="M1104-443.78c-14.29-26.5-22.49-60.86-20.87-109.37l41.57,11Z" transform="translate(-663.55 589.67)"/><path d="M1339.38-312.34l43.1-41.94c36,26.12,71.25,54.43,98.36,101.63l-141.45-59.68Z" transform="translate(-663.55 589.67)"/><path d="M1339.38-312.33l-58.67,39.64c-16.09-25.38-34.9-44.48-54.45-60.64l11-82Z" transform="translate(-663.55 589.67)"/><path d="M1339.38-312.34h0l-102.15-103h0L1299.92-426c14.5,18.41,33.11,36.05,57.49,53.68,8.33,6,16.72,12,25.07,18l-43.1,41.94Z" transform="translate(-663.55 589.67)"/><polygon points="573.67 174.3 573.68 174.3 573.67 174.3 573.67 174.3"/><polygon points="573.67 174.3 573.68 174.3 573.67 174.3 573.67 174.3"/><polygon points="573.67 174.3 573.68 174.3 573.67 174.3 573.67 174.3"/><path d="M1237.23-415.36l-11,82c-24.83-20.52-50.78-36.45-73.69-54.83l84.66-27.21Z" transform="translate(-663.55 589.67)"/><polygon points="573.67 174.3 573.68 174.3 573.68 174.3 573.67 174.3"/><polygon points="573.67 174.3 573.68 174.3 573.68 174.3 573.67 174.3"/><polygon points="573.67 174.3 573.68 174.3 573.68 174.3 573.67 174.3"/><path d="M1339.39-312.33l145,231-88.09-31.59a21,21,0,0,0-7.14-1.24,20.91,20.91,0,0,0-20.52,16.3c-1.18,5.18-2.79,11.33-5,18.2-2.88-.48-5.62-1-8.58-1.43-9.56-1.52-18.89-2.81-28.11-4,.48-7.06.68-17.7.52-20.25-3.91-61.51-16-106.78-32.74-141.81l44.59-65.21Z" transform="translate(-663.55 589.67)"/><path d="M1480.84-252.65c24.58,42.79,42.47,101.1,48.12,187.55a16.37,16.37,0,0,0-1.74-.84L1484.41-81.3l-145-231Z" transform="translate(-663.55 589.67)"/><polygon points="675.84 277.34 675.83 277.33 675.83 277.33 675.84 277.34"/><polygon points="675.84 277.34 675.83 277.33 675.83 277.33 675.84 277.34"/><polygon points="675.84 277.34 675.83 277.33 675.83 277.33 675.84 277.34"/><polygon points="675.83 277.33 675.83 277.33 675.83 277.33 675.83 277.33"/><polygon points="675.83 277.33 675.83 277.33 675.83 277.33 675.83 277.33"/><polygon points="675.83 277.33 675.83 277.33 675.83 277.33 675.83 277.33"/><path d="M1294.79-247.12a248.19,248.19,0,0,0-14.08-25.57l58.67-39.64Z" transform="translate(-663.55 589.67)"/><path d="M1317.41-567l8.88-11.51q14.85,3.13,29.48,7.4L1317.41-567Z" transform="translate(-663.55 589.67)"/><path d="M1291.08-563.64c-.13-6.74-.16-13.64.06-20.93,3.52.43,7,1.15,10.52,1.67L1317.41-567Z" transform="translate(-663.55 589.67)"/><path d="M1317.4-567h0l-15.75-15.86c8.24,1.23,16.46,2.61,24.63,4.34L1317.41-567Z" transform="translate(-663.55 589.67)"/><path d="M1489.11-458v0h0l4.14-42.26c6.59,5.2,13.16,10.44,19.5,16.11,4,3.56,7.63,7.46,11.45,11.18l20.75,105.12Z" transform="translate(-663.55 589.67)"/><path d="M1544.93-367.88,1524.18-473a399.84,399.84,0,0,1,60.57,75.48Z" transform="translate(-663.55 589.67)"/><path d="M1317.41-567l171.68,109L1331.31-431.3c-17.74-23.18-31.13-51.85-37-92L1317.41-567Z" transform="translate(-663.55 589.67)"/><path d="M1317.41-567l38.36-4.12a403.56,403.56,0,0,1,137.46,70.87L1489.09-458Z" transform="translate(-663.55 589.67)"/><polygon points="653.86 22.62 653.86 22.62 653.86 22.62 653.86 22.62"/><polygon points="653.86 22.62 653.86 22.62 653.86 22.62 653.86 22.62"/><polygon points="653.86 22.62 653.86 22.62 653.86 22.62 653.86 22.62"/><polygon points="653.85 22.62 653.86 22.62 653.86 22.62 653.85 22.62"/><polygon points="653.85 22.62 653.86 22.62 653.86 22.62 653.85 22.62"/><polygon points="653.85 22.62 653.86 22.62 653.86 22.62 653.85 22.62"/><path d="M1294.29-523.3a318.56,318.56,0,0,1-3.21-40.34l26.33-3.4Z" transform="translate(-663.55 589.67)"/><path d="M1544.93-367.88l70.17,28.35a476,476,0,0,1,34,120.07l-46.52,18.19Z" transform="translate(-663.55 589.67)"/><path d="M1544.93-367.88l40.23-29a440.54,440.54,0,0,1,29.94,57.33l-70.17-28.35Z" transform="translate(-663.55 589.67)"/><path d="M1584.75-397.52c.14.21.27.44.41.66l-40.23,29Z" transform="translate(-663.55 589.67)"/><path d="M1584.75-397.52c.14.21.27.44.41.66l-40.23,29Z" transform="translate(-663.55 589.67)"/><path d="M1489.11-458l113.51,256.74-104.48-44.08c-26.62-60.59-64.57-93.6-100.82-123.37L1489.09-458Z" transform="translate(-663.55 589.67)"/><polygon points="881.38 221.79 939.07 388.4 825.56 131.66 881.38 221.79 881.38 221.78 881.38 221.79"/><polygon points="881.38 221.78 881.38 221.79 881.38 221.79 881.38 221.78"/><polygon points="881.38 221.78 881.38 221.79 881.38 221.79 881.38 221.78"/><polygon points="881.38 221.78 881.38 221.79 881.38 221.79 881.38 221.78"/><polygon points="825.55 131.64 825.56 131.66 825.54 131.63 825.55 131.64"/><polygon points="825.55 131.64 825.56 131.66 825.54 131.63 825.55 131.64"/><polygon points="825.55 131.64 825.56 131.66 825.54 131.63 825.55 131.64"/><path d="M1397.32-368.72c-24.09-19.78-47.39-38.25-66-62.58L1489.09-458Z" transform="translate(-663.55 589.67)"/><path d="M1602.62-201.27l50.07,88.51a466.24,466.24,0,0,1-11,70.85l-104.42,8.52c.56-1.07,1.16-2.12,1.7-3.2a21.12,21.12,0,0,0,.73-17.31,21.16,21.16,0,0,0-7.72-9.52v-.17l70.63-137.68Z" transform="translate(-663.55 589.67)"/><path d="M1602.62-201.27l46.52-18.19a486.33,486.33,0,0,1,3.55,106.7l-50.07-88.51Z" transform="translate(-663.55 589.67)"/><path d="M1532-63.59c.3-6.79.42-14,.32-16.09-3.64-72.58-16.4-125.21-34.17-165.67l104.48,44.08Z" transform="translate(-663.55 589.67)"/><path d="M1627.92,5.07,1569.41-2a281.07,281.07,0,0,0-34.21-24.29l105.94-13.35A442.81,442.81,0,0,1,1627.92,5.07Z" transform="translate(-663.55 589.67)"/><path d="M1641.14-39.66,1535.2-26.31c-.43-.26-.84-.55-1.27-.81,1.15-2.07,2.24-4.17,3.35-6.27l104.42-8.52C1641.52-41.16,1641.32-40.41,1641.14-39.66Z" transform="translate(-663.55 589.67)"/><path d="M1625.23,13.12c-4.57,12.11-20.64,17.79-29.76,8.59A346.14,346.14,0,0,0,1569.41-2l58.51,7.09C1627,7.74,1626.23,10.48,1625.23,13.12Z" transform="translate(-663.55 589.67)"/><path d="M1088-367.39h0l7.83-37.23a236.73,236.73,0,0,0,28.79,25.46Z" transform="translate(-663.55 589.67)"/><path d="M980.61-388.18h0l35.81-134.07q10.47-7.5,21.44-13.93l7.25,24.43c3.63,21.62,9.1,41.21,17.63,59.41l25.22,85Z" transform="translate(-663.55 589.67)"/><path d="M1088-367.4h0l-25.22-85a176.94,176.94,0,0,0,33,47.73L1088-367.39Z" transform="translate(-663.55 589.67)"/><path d="M1041.54-538.52c1,9.27,2.12,18.17,3.56,26.76l-7.25-24.43C1039.1-536.93,1040.28-537.81,1041.54-538.52Z" transform="translate(-663.55 589.67)"/><path d="M973.43-389.4a121,121,0,0,1-7.43-19l14.6,20.18Z" transform="translate(-663.55 589.67)"/><path d="M966-408.37c-5.3-18-7.53-39.51-5.65-66.08,17.88-17.18,36.38-33.69,56.06-47.81L980.6-388.19Z" transform="translate(-663.55 589.67)"/><path d="M1223.59-313.34a241.45,241.45,0,0,1,46.32,47.95l-58,39.17Z" transform="translate(-663.55 589.67)"/><path d="M1088-367.39l124,141.17-48.86,3.8c-28.13-46.8-69-70-106.87-92.17l31.73-52.8Z" transform="translate(-663.55 589.67)"/><path d="M1088-367.39l36.62-11.77c8,6,16.72,12,26.32,17.91,24.56,15.12,49.56,29.5,72.7,47.91L1212-226.22Z" transform="translate(-663.55 589.67)"/><polygon points="424.4 222.27 424.4 222.27 424.39 222.27 424.4 222.27"/><polygon points="424.4 222.27 424.4 222.27 424.39 222.27 424.4 222.27"/><polygon points="424.4 222.27 424.4 222.27 424.39 222.27 424.4 222.27"/><polygon points="424.39 222.27 424.4 222.27 424.39 222.27 424.39 222.27"/><polygon points="424.39 222.27 424.4 222.27 424.39 222.27 424.39 222.27"/><polygon points="424.39 222.27 424.4 222.27 424.39 222.27 424.39 222.27"/><path d="M980.61-388.18l.89,13.05c-2-2.89-3.77-5.92-5.5-9.06l4.6-4Z" transform="translate(-663.55 589.67)"/><path d="M1088-367.39l-31.73,52.8c-29.28-17.16-56.65-33.82-74.72-60.54l-.89-13.05Z" transform="translate(-663.55 589.67)"/><polygon points="317.06 201.48 317.06 201.48 317.05 201.48 317.06 201.48"/><polygon points="317.06 201.48 317.06 201.48 317.05 201.48 317.06 201.48"/><polygon points="317.06 201.48 317.06 201.48 317.05 201.48 317.06 201.48"/><path d="M976-384.19c-.91-1.67-1.72-3.46-2.57-5.21l7.17,1.21Z" transform="translate(-663.55 589.67)"/><path d="M1324.84-85.59c0,.1,0,.16,0,.26a959.94,959.94,0,0,0-127.66-7.56c0-1.8.07-3.26,0-4-.14-2.35-.42-4.46-.58-6.75l91-133C1306.61-200.21,1320.16-152.23,1324.84-85.59Z" transform="translate(-663.55 589.67)"/><path d="M1212-226.22l-18.34,94.93a291.93,291.93,0,0,0-10-44.9l28.37-50Z" transform="translate(-663.55 589.67)"/><path d="M1212-226.22l58-39.17a231.68,231.68,0,0,1,17.7,28.77l-91,133c-.72-9.73-1.75-18.92-3-27.69L1212-226.22Z" transform="translate(-663.55 589.67)"/><path d="M1183.58-176.19a212.64,212.64,0,0,0-20.49-46.23l48.86-3.8Z" transform="translate(-663.55 589.67)"/><path d="M920.45-433.56a162.29,162.29,0,0,0,11.2,37.11l-33.36-5.64A356.08,356.08,0,0,1,920.45-433.56Z" transform="translate(-663.55 589.67)"/><path d="M992.9-209.18l54.26-90.32c37.89,19.36,75,40.39,102.69,78.11L992.9-209.18Z" transform="translate(-663.55 589.67)"/><path d="M877.63-298.64l74.87-65.11a179.2,179.2,0,0,0,31.74,28.51l8.65,126.06Z" transform="translate(-663.55 589.67)"/><path d="M992.9-209.18h0l-8.65-126.06a317.56,317.56,0,0,0,40.41,24.29c7.49,3.83,15,7.62,22.51,11.45L992.9-209.18Z" transform="translate(-663.55 589.67)"/><path d="M877.63-298.64,851.5-295.5c2.09-7.22,4.38-14.39,6.81-21.52Z" transform="translate(-663.55 589.67)"/><path d="M858.31-317c10-29.44,23-58.06,40-85.07l33.36,5.64a133,133,0,0,0,20.85,32.7l-74.87,65.11Z" transform="translate(-663.55 589.67)"/><path d="M1193.21-92.86c-1.36,0-2.63.09-4,.11l3.37-4.93C1192.77-96,1193.05-94.55,1193.21-92.86Z" transform="translate(-663.55 589.67)"/><path d="M1190.42-114.8l-4.28,22.14c-17.44.29-34.38,1-51,1.9l43-75.79A295.2,295.2,0,0,1,1190.42-114.8Z" transform="translate(-663.55 589.67)"/><path d="M1192.6-97.68l-3.37,4.93c-1,0-2,.08-3.09.09l4.28-22.14C1191.25-109.28,1192-103.56,1192.6-97.68Z" transform="translate(-663.55 589.67)"/><path d="M992.9-209.18l28.73,44.93c-5.26-2.16-10.63-4.2-16.16-5.95-9.73-3.17-19.71-6-29.74-8.49-3.68-.9-7.31-1.64-11-2.48l28.15-28Z" transform="translate(-663.55 589.67)"/><path d="M1149.85-221.39a202.85,202.85,0,0,1,28.26,54.84l-43,75.79c-10.1.57-20.23,1.11-30.11,1.82-.12-.26-.18-.38-.31-.68-1.08-2.15-2.35-5.5-4.58-9.43s-4.89-8.78-8.78-13.79A107.56,107.56,0,0,0,1077.5-129a108.76,108.76,0,0,0-9.1-8.16,109.81,109.81,0,0,0-10.45-7.89,165.67,165.67,0,0,0-24.47-14.09c-3.86-1.75-7.83-3.44-11.85-5.09L992.9-209.18Z" transform="translate(-663.55 589.67)"/><polygon points="329.35 380.49 329.34 380.49 329.35 380.49 329.35 380.49"/><polygon points="329.35 380.49 329.34 380.49 329.35 380.49 329.35 380.49"/><polygon points="329.35 380.49 329.34 380.49 329.35 380.49 329.35 380.49"/><polygon points="329.35 380.49 329.34 380.49 329.34 380.48 329.35 380.49"/><polygon points="329.35 380.49 329.34 380.49 329.34 380.48 329.35 380.49"/><polygon points="329.35 380.49 329.34 380.49 329.34 380.48 329.35 380.49"/><path d="M877.63-298.63l-6.9,91.94c-1-.49-2.12-.9-3.08-1.41a89.37,89.37,0,0,1-17.13-11.28,60.31,60.31,0,0,1-10.7-11.71c-1.23-1.85-2.33-3.51-3.29-4.94-.43-.86-1.29-2.52-2.09-4.06l43.19-58.55Z" transform="translate(-663.55 589.67)"/><path d="M877.63-298.64l115.26,89.46-28.15,28c-16.39-3.76-32.68-7.13-47.91-10.67-17.26-4.07-33.17-8.6-46.1-14.85l6.9-91.94Z" transform="translate(-663.55 589.67)"/><path d="M834.44-240.09c-.65-1.26-1.27-2.44-1.51-2.93-10-10.93-2.18-44.73,17.39-48.58.37-1.31.8-2.6,1.18-3.9l26.13-3.14Z" transform="translate(-663.55 589.67)"/><path d="M1032-148.1l39.5,61.76C1002.76-80.74,936.87-74.6,863-80L952.1-168.6C983.88-163,1010.54-156.25,1032-148.1Z" transform="translate(-663.55 589.67)"/><path d="M1074.38-125.65c3,2.35,5.38,5.09,7.9,7.48A78.67,78.67,0,0,1,1089-111c4.24,4.56,7.13,9.16,9.82,12.74,2.68,4.16,4.61,7.26,5.86,9.31-11.17.8-22.22,1.68-33.19,2.57L1032-148.1Q1058-138.2,1074.38-125.65Z" transform="translate(-663.55 589.67)"/><path d="M818-217.77c9.65,10.13,26,23.19,51.13,32.64l-7.88,105c-2.52-.19-5-.32-7.56-.53l-109-37.7Z" transform="translate(-663.55 589.67)"/><path d="M911.75-174.75c14.42,1.83,27.66,3.93,40.35,6.15L863-80l-1.76-.13,7.88-105A188.47,188.47,0,0,0,911.75-174.75Z" transform="translate(-663.55 589.67)"/><path d="M716.49-124.64C695.1-137.81,679.14-152,668.17-165a19.74,19.74,0,0,1,10.48-31.84c2.18-.53,4.39-1.13,6.57-1.66l59.41,80.21Z" transform="translate(-663.55 589.67)"/><path d="M685.22-198.53c38.28-9.45,77.21-20.66,121-34.5,0,0,3.46,6.53,11.77,15.26l-73.35,99.45Z" transform="translate(-663.55 589.67)"/><path d="M744.73-109.53c-.29-.13-.61-.25-.89-.39l.79-8.36Z" transform="translate(-663.55 589.67)"/><path d="M744.63-118.32l109,37.7c-2.09-.18-4.11-.25-6.22-.44-41.27-5.37-75.23-15.8-102.72-28.47l-.1-8.75Z" transform="translate(-663.55 589.67)"/><path d="M744.63-118.32h0v0l-.79,8.36a265.57,265.57,0,0,1-27.35-14.72Z" transform="translate(-663.55 589.67)"/><polygon points="81.08 471.35 81.08 471.35 81.08 471.39 81.08 471.35"/><polygon points="81.08 471.35 81.08 471.35 81.08 471.39 81.08 471.35"/><polygon points="81.08 471.35 81.08 471.35 81.08 471.39 81.08 471.35"/><rect x="770.27" y="228.5" height="29.94" transform="translate(-701.07 824.79) rotate(-16.95)"/><rect x="1115.84" y="302.7" width="26.65" transform="translate(-286.13 1787.64) rotate(-64.99)"/><polygon points="290.74 864.3 272.33 886.04 272.32 886.04 290.74 864.3 290.74 864.3"/><path d="M861,185a12.19,12.19,0,0,1,12.6,11.89c0,.41,0,.81.06,1.22l-21.06-9.38A12.21,12.21,0,0,1,861,185Z" transform="translate(-663.55 589.67)"/><path d="M1250.29,288.34a12.25,12.25,0,0,1,2.27,24.39c-.9.09-32,2.83-82.45,2.83-14.08,0-29.73-.24-46.58-.78l11.27-24.16C1204.28,292.35,1249.22,288.44,1250.29,288.34Z" transform="translate(-663.55 589.67)"/><path d="M1134.8,290.62l-11.27,24.16a1442.43,1442.43,0,0,1-173.1-16l79.07-14.6C1068.32,288,1104,289.86,1134.8,290.62Z" transform="translate(-663.55 589.67)"/><path d="M1029.5,284.14l-79.07,14.6c-4.82-.75-9.68-1.55-14.55-2.36l18.41-21.75C980.31,278.68,1005.5,281.78,1029.5,284.14Z" transform="translate(-663.55 589.67)"/><path d="M742.78,221c7.69,2.85,15.41,5.52,23.12,8.15l8.73,28.64c-13.47-4.32-26.94-8.84-40.37-13.82a12.25,12.25,0,0,1,8.52-23Z" transform="translate(-663.55 589.67)"/><path d="M923.05,398.27a12.21,12.21,0,0,1-1.38,13.11l.62-14.67C922.55,397.24,922.78,397.74,923.05,398.27Z" transform="translate(-663.55 589.67)"/><path d="M922.29,396.71l-.62,14.67a12,12,0,0,1-4,3.36,12.27,12.27,0,0,1-16.47-5.39c-8.43-16.62-15.35-32.14-21.22-46.93L898.07,341A507.06,507.06,0,0,0,922.29,396.71Z" transform="translate(-663.55 589.67)"/><path d="M852.71,254.45c-2.13-19.19-3-37.85-3.58-56.82a12.17,12.17,0,0,1,3.49-8.88l21.06,9.38c.63,20.72,1.68,41.08,4.51,62.27,25.88,5.72,51.34,10.39,76.1,14.23l-18.41,21.75c-17.51-2.92-35.3-6.22-53.34-10A388.33,388.33,0,0,0,898.07,341L880,362.42a411.38,411.38,0,0,1-23.56-81.88c-27-6.38-54.42-14-81.78-22.75l-8.73-28.64C794.88,239,824,247.4,852.71,254.45Z" transform="translate(-663.55 589.67)"/><rect x="875.01" y="351.73" width="28.01" transform="translate(-617.41 1392.64) rotate(-49.75)"/><rect x="875.01" y="351.73" width="28.01" transform="translate(-617.41 1392.64) rotate(-49.75)"/><path d="M1520.71,132.52a12.25,12.25,0,0,1-.66,24.49l-.67,0c-.89-.05-10.05-.58-24.36-2.1l-6.12-25.38C1508,131.79,1520.46,132.51,1520.71,132.52Z" transform="translate(-663.55 589.67)"/><path d="M1405.72,139.57a12.24,12.24,0,0,1-9-14.82,12.09,12.09,0,0,1,5.09-7.15l26,26.93C1420.62,143.05,1413.22,141.41,1405.72,139.57Z" transform="translate(-663.55 589.67)"/><path d="M1411.56,115.76a657.94,657.94,0,0,0,77.34,13.75l6.12,25.38c-16.79-1.78-40.71-4.93-67.17-10.36l-26-26.93A12.16,12.16,0,0,1,1411.56,115.76Z" transform="translate(-663.55 589.67)"/><polygon points="309.34 842.33 309.34 842.33 315.71 834.8 309.34 842.33"/><path d="M1060.59,47.24l-39.17,17.32c-9.12-1.83-18.35-3.71-27.75-5.69-1.65,6.63-3,13.24-4.31,19.86L962.55,90.58c.3-2,.58-4,.91-5.93l53.66-46C1032.1,41.74,1046.7,44.61,1060.59,47.24Z" transform="translate(-663.55 589.67)"/><path d="M908.16,14,922.94,42.9Q838.74,22.56,783.29,1.79l18.77-19.26C831.55-7,867.12,3.57,908.16,14Z" transform="translate(-663.55 589.67)"/><path d="M986.35,32.25c10.41,2.25,20.66,4.37,30.77,6.44l-53.66,46c1.74-10.39,3.72-20.7,6.25-31-16.28-3.58-31.83-7.18-46.77-10.79L908.16,14Q944.49,23.22,986.35,32.25Z" transform="translate(-663.55 589.67)"/><path d="M745.48-41.29l.3,27.45c-3.67-1.73-7.21-3.47-10.57-5.2l2.51-26.47C740.2-44.11,742.76-42.7,745.48-41.29Z" transform="translate(-663.55 589.67)"/><path d="M802.06-17.47,783.29,1.79Q762.46-6,745.78-13.84l-.3-27.45C760.63-33.44,779.61-25.47,802.06-17.47Z" transform="translate(-663.55 589.67)"/><path d="M736.69-46.07c.32.18.7.37,1,.56L735.21-19c-3.75-1.93-7.37-3.85-10.73-5.78A12.26,12.26,0,0,1,720-41.55,12.28,12.28,0,0,1,736.69-46.07Z" transform="translate(-663.55 589.67)"/><path d="M1132.16,60,1163.48,90c-12.18-1.9-29.87-4.76-51.52-8.51l-5.8-25.89Q1120.16,58,1132.16,60Z" transform="translate(-663.55 589.67)"/><path d="M1142.52,187.54a12,12,0,0,1-4.69,9.38l-4.73-21.09A12.07,12.07,0,0,1,1142.52,187.54Z" transform="translate(-663.55 589.67)"/><path d="M1185,68.47a12.25,12.25,0,0,1-1.74,24.38,11.71,11.71,0,0,1-1.77-.13c-.25,0-6.83-1-18-2.76L1132.16,60C1164.14,65.42,1184.58,68.41,1185,68.47Z" transform="translate(-663.55 589.67)"/><path d="M981.82,158.49c19.91,3.87,38.65,6.83,55.74,9.13l35.35,28.91c-24.68-2.26-55.79-6.1-90.53-12.67.74,17.14,2.22,35.48,4.42,55.53a11.94,11.94,0,0,1-1.22,6.34l-6.32-.59L958.07,136.73c.49-11,1.25-21.72,2.47-32.13l22.8,18.65C982.44,134.62,981.82,146.21,981.82,158.49Z" transform="translate(-663.55 589.67)"/><path d="M1130.3,175.26a11.8,11.8,0,0,1,2.8.57l4.73,21.09a12,12,0,0,1-7.56,2.84h0c-2.64,0-24.15-.18-57.33-3.23l-35.35-28.91C1092.14,174.93,1129.44,175.25,1130.3,175.26Z" transform="translate(-663.55 589.67)"/><path d="M983.34,123.25l-22.8-18.65c.56-4.72,1.3-9.37,2-14l26.81-11.85A390.75,390.75,0,0,0,983.34,123.25Z" transform="translate(-663.55 589.67)"/><path d="M1106.16,55.56l5.8,25.89c-25.77-4.46-57-10.16-90.54-16.89l39.17-17.32C1076.88,50.33,1092.16,53.1,1106.16,55.56Z" transform="translate(-663.55 589.67)"/><path d="M979.25,245.13,962,237.46c-.29-2.82-.49-5.45-.76-8.21l18,15.88Z" transform="translate(-663.55 589.67)"/><path d="M761.07,106.86a12.25,12.25,0,1,1,12.06-21.33A550.38,550.38,0,0,0,829.48,113l51.31,45.26C840.82,145.47,799.87,128.8,761.07,106.86Z" transform="translate(-663.55 589.67)"/><path d="M979.25,245.13h0l-18-15.88c-1.71-17.76-3-34.66-3.5-50.39-24.61-5.35-50.58-12.15-77-20.6L829.48,113c43.09,18.26,87.22,31.27,128,40.38.06-5.7.38-11.14.62-16.65l21.19,108.41Z" transform="translate(-663.55 589.67)"/><path d="M985.58,245.73a12.09,12.09,0,0,1-9.63,7.18c-.45,0-.9.07-1.35.07a12.27,12.27,0,0,1-1.71-.32l6.37-7.52Z" transform="translate(-663.55 589.67)"/><rect x="979.25" y="245.13" transform="translate(-578.02 1304.14) rotate(-41.76)"/><rect x="979.25" y="245.13" transform="translate(-578.02 1304.14) rotate(-41.76)"/><rect x="979.25" y="245.13" transform="translate(-578.02 1304.14) rotate(-41.76)"/><polygon points="315.7 834.8 315.71 834.8 315.7 834.8 315.7 834.8"/><polygon points="315.7 834.8 315.71 834.8 315.7 834.8 315.7 834.8"/><polygon points="315.7 834.8 315.71 834.8 315.7 834.8 315.7 834.8"/><path d="M979.26,245.14l-6.37,7.52a12.11,12.11,0,0,1-10.45-10.6c-.18-1.6-.26-3-.43-4.6l17.24,7.67Z" transform="translate(-663.55 589.67)"/><polygon points="315.7 834.8 315.71 834.8 315.7 834.8 315.7 834.8"/><polygon points="315.7 834.8 315.71 834.8 315.7 834.8 315.7 834.8"/><polygon points="315.7 834.8 315.71 834.8 315.7 834.8 315.7 834.8"/><polygon points="315.7 834.8 315.71 834.8 315.7 834.8 315.7 834.8"/><path d="M1687.77,43.81" transform="translate(-663.55 589.67)"/><path d="M1687.77,43.81" transform="translate(-663.55 589.67)"/><path d="M1694.9,42.68" transform="translate(-663.55 589.67)"/><path d="M1270.36,321" transform="translate(-663.55 589.67)"/><path d="M1644.74,104.19" transform="translate(-663.55 589.67)"/><path d="M1694.9,42.68" transform="translate(-663.55 589.67)"/></g></svg>