<svg xmlns="http://www.w3.org/2000/svg" viewBox="0 0 1419.45 951.71"><defs><style>.cls-1{fill:#712e00;}.cls-2{fill:#fff;}.cls-3{fill:#404247;}.cls-4{fill:#a3a4ad;}.cls-5{fill:#ceced1;}</style></defs><g id="object"><polygon class="cls-1" points="974.71 437.64 974.65 437.66 974.65 437.66 974.71 437.64"/><path class="cls-2" d="M1726.42,805.19a31.35,31.35,0,0,0-.29-4.32l-8.08-57.5c-2.26-16.1-16.85-28.24-33.94-28.24H1290.73l-5.82,0-5.28,0h-54.86c-16.93,0-32,9.58-38.25,24.4l-21.72,51a37.09,37.09,0,0,0-3,14.54h0v85.48a37.43,37.43,0,0,0,4.56,17.8c7.58,13.95,22.92,40.84,40.38,64,10.06,13.37,19.67,24,28.59,31.61,12.52,10.69,24.06,15.89,35.25,15.89h.73l.65,0,1.44-.16.46-.06,1.12-.15.37-.06,1.42-.25.24,0,1.18-.25.4-.1c.36-.08.72-.17,1.07-.27l.35-.09,1.36-.4.24-.07,1.09-.37.4-.14c.32-.11.63-.23.9-.34l.44-.16.13-.06c.72-.29,1.45-.61,2.18-1l.09,0c.7-.34,1.41-.71,2.09-1.09l.22-.13c.65-.37,1.3-.76,1.91-1.16l.23-.14c.54-.36,1.07-.73,1.59-1.1l0,0,.28-.21.26-.2.87-.68.27-.22,1.06-.89.15-.14c.3-.27.6-.53.85-.78l.26-.23c.31-.3.63-.61,1-1l.16-.16.78-.81.2-.21.87-1,.12-.14c.25-.28.48-.57.72-.85l.16-.2c.23-.28.47-.57.68-.85l.28-.36c.38-.49.75-1,1.12-1.5l0,0,.41-.58,0,0c.36-.52.72-1.05,1.09-1.61l.06-.1c.39-.59.78-1.2,1.21-1.89l.06-.11c.38-.61.74-1.22,1.11-1.84l0-.08q.52-.9,1-1.83l0-.06,1-1.84,0-.08.95-1.75,1.89-3.51,0-.1.89-1.62.06-.1c.29-.52.58-1.05.88-1.55l.06-.11.83-1.42.07-.12c.3-.5.6-1,.92-1.49l0-.08c.29-.47.6-.93.92-1.42l0-.07c.32-.48.62-.91.92-1.33l.06-.08c.32-.44.64-.88,1-1.3l0-.06q.33-.43.69-.87l0-.06c.23-.29.48-.57.71-.84l.08-.09.71-.79.1-.1c.24-.26.49-.52.74-.77l.09-.1.78-.75.08-.08.78-.7.13-.11c.26-.23.54-.46.82-.68l.11-.1c.29-.22.57-.45.9-.69l.09-.07.74-.53.15-.1c.25-.18.51-.35.77-.52l.1-.07.81-.5.13-.08.84-.49.2-.11.9-.49.11-.05,1-.48.14-.06,1-.48.19-.08,1.06-.45.13,0,.92-.35.26-.09.91-.33.16-.06,1-.33.31-.1.93-.28.23-.07,1.2-.32.27-.07,1-.25.32-.07c.43-.1.86-.2,1.28-.28l.21-.05,1.17-.23.39-.07,1.34-.23.14,0,1.43-.22.4,0,1.31-.17.27,0,1.6-.17.4,0,1.34-.12.41,0,1.75-.12.29,0,1.53-.07.5,0,1.87-.07a68.64,68.64,0,0,0,8.66-.73h80.76l-138.85,173.79c-30.43,36.84-53.81,68.1-69.48,92.9-16.36,25.87-26.9,47.19-32.23,65.18-5.28,17.79-8,34.15-8,48.64v85.48c0,33,10.1,59.37,30,78.37,19.74,18.81,46.57,28.36,79.75,28.36,15.18,0,32.47-1.83,51.42-5.43a358.56,358.56,0,0,0,36.84-9l1.41-.46.42-.16.78-.29.33-.13.42-.18c.57-.24,1.1-.47,1.59-.71l.25-.12.06,0c.48-.23,1-.49,1.49-.78l.3-.16c.55-.32,1.1-.65,1.64-1l.3-.2c.48-.32.93-.62,1.34-.93l.45-.31.28-.23c.37-.29.74-.58,1.11-.9l.27-.22c.47-.41,1-.84,1.42-1.3l.29-.28c.47-.47.93-.94,1.33-1.4a3.33,3.33,0,0,0,.25-.28c.32-.36.61-.7.89-1l.09-.09.34-.44.36-.48,0,0,.35-.48,0,0c.12-.16.23-.33.34-.49l0-.05.35-.51.34-.53,0,0,.33-.53.34-.58c.1-.17.2-.35.29-.53s.22-.41.33-.61l.28-.54,0,0,.27-.58h0l.26-.55c.09-.2.17-.41.26-.61l0-.05.21-.52,0-.07c.08-.19.15-.38.22-.59s.15-.4.22-.6.14-.39.21-.61l0,0,.18-.56v-.06c.07-.21.13-.42.19-.64v0l.15-.55c.06-.23.11-.46.17-.7v0c.06-.22.11-.44.15-.65l.12-.61c0-.22.09-.44.13-.67s.08-.51.11-.76.06-.39.08-.57.07-.59.1-.86,0-.3,0-.46c0-.34,0-.68.07-1,0-.12,0-.23,0-.35,0-.45,0-.9,0-1.33v-11.5a587.73,587.73,0,0,1,3.87-65.54c2.5-22.18,9.09-48.19,19.59-77.3,10.59-29.38,27.77-65.33,51-106.85,23.38-41.7,55.65-92.22,95.94-150.17,22.7-31.78,44.69-61.73,65.35-89,1.92-2.55,4-5.25,6.5-8.51l1.82-2.36c1.58-2,3.18-4.09,4.77-6.13l.6-.76c.59-.75,1.17-1.5,1.76-2.24q2.73-3.47,5.49-6.91l1.41-1.78c2.25-2.79,4.59-5.69,7-8.6l1.12-1.37.78-.94c1.72-2.1,3.44-4.19,5.18-6.27l2.26-2.71.27-.32,4.71-5.6,2.62-3.09,5-5.8.81-1,1.5-1.73c2.66-3.06,5-5.8,7.29-8.35.35-.39.69-.79,1-1.24l.27-.35.31-.41c.1-.13.2-.26.31-.42s.3-.42.47-.67l0,0c.1-.13.19-.27.29-.42s.31-.47.45-.71l.29-.46.44-.75.23-.4c.22-.41.43-.81.63-1.22,0,0,.09-.2.13-.27.15-.32.3-.64.44-1,.07-.16.14-.31.2-.48s.22-.52.33-.8.12-.33.2-.52l.25-.73c.07-.18.13-.36.19-.57s.17-.52.23-.75.1-.35.15-.53l0,0c.06-.24.13-.49.19-.74s.09-.39.13-.57.12-.53.17-.77.07-.39.11-.58.09-.52.13-.8.06-.37.08-.54l.09-.8V894c0-.18,0-.36,0-.53s0-.59.07-.89l0-.49c0-.48,0-.93,0-1.38V805.19Z" transform="translate(-306.98 -580.27)"/><path class="cls-2" d="M1522.7,1180.44q-14.65,23.79-26.4,44.74-7.26,12.94-13.73,25.16l-.71,1.37,0,.06q-12.49,23.7-21.9,44.49l-.72,1.6c-.06.13-.12.26-.17.39h0q-8.1,18.11-13.77,33.78c-10.5,29.11-17.09,55.12-19.59,77.29a585.65,585.65,0,0,0-3.87,65.55v11.5c0,.43,0,.88,0,1.33,0,.11,0,.23,0,.35,0,.31,0,.65-.07,1,0,.16,0,.31,0,.46s-.06.57-.1.86,0,.37-.08.57-.07.5-.11.76-.08.45-.13.67-.08.41-.12.61-.09.43-.14.65v0c0,.23-.11.46-.17.69s-.1.37-.16.55v0l-.18.64,0,.06c-.06.19-.12.38-.19.56v0c-.07.22-.14.42-.21.62l-.21.59c-.08.21-.15.4-.23.59l0,.07-.21.52,0,.05c-.09.2-.18.41-.26.61l-.26.55h0c-.1.2-.18.39-.28.58l0,0c-.09.18-.18.36-.28.54l-.33.61c-.09.18-.19.35-.3.53s-.22.39-.33.58l-.33.53,0,0-.34.53-.35.51,0,.05-.34.49,0,0-.35.48,0,0-.37.48-.33.44-.08.09c-.28.35-.58.69-.9,1l-.24.28c-.41.46-.87.94-1.34,1.4l-.29.28c-.47.46-1,.89-1.42,1.3l-.27.22c-.37.32-.74.61-1.11.9l-.28.23-.44.31c-.42.31-.86.61-1.35.93l-.3.2c-.54.34-1.09.67-1.64,1l-.3.16c-.52.29-1,.55-1.49.78l-.06,0-.25.12c-.49.24-1,.47-1.59.71l-.42.18-.33.13-.78.29-.43.15c-.47.17-.93.32-1.4.46a358.52,358.52,0,0,1-36.84,9c-19,3.6-36.24,5.43-51.42,5.43-33.18,0-60-9.55-79.75-28.36-19.92-19-30-45.37-30-78.37v-85.48c0-14.49,2.68-30.86,8-48.64,5.33-18,15.88-39.31,32.23-65.18,15.67-24.8,39-56.06,69.48-92.9l39.78-49.8,18-22.56c8,2.62,18.63,4.78,29.75,7,18.7,3.8,39.89,8.11,59.63,16.39,24.19,10.14,41.27,24.2,52.2,43C1517.73,1142,1522.33,1160,1522.7,1180.44Z" transform="translate(-306.98 -580.27)"/><path class="cls-3" d="M1711.55,802.91l-8.07-57.5c-1.25-8.89-9.54-15.57-19.37-15.57H1293.24c-4.6,0-9.09-.05-13.53,0h-55c-10.93,0-20.74,6.13-24.7,15.44l-21.72,51a22.33,22.33,0,0,0,1,19.55c15,27.5,59.23,103.93,91.34,103.86,37.11-3.39,16.66-58.2,88.1-59.9a55.16,55.16,0,0,0,7.86-.73H1509c16,0,25.19,16.56,15.77,28.36l-174.68,218.62-29,36.27q-45.27,54.81-68.47,91.5t-30.55,61.5q-7.38,24.81-7.35,44.46a127,127,0,0,0,1.38,19.13q4.53,29.92,24.07,48.58,25.47,24.27,69.6,24.29,21.48,0,48.66-5.16a343.89,343.89,0,0,0,35.32-8.62c8-2.44,13.35-9.36,13.34-17.11V1389.4a598.79,598.79,0,0,1,4-67.2q4-35.13,20.37-80.64t52.06-109.06q10.76-19.2,23.85-40.61,30.24-49.5,72.9-110.84,33.94-47.53,65.63-89.42,29.31-38.75,61.56-75.28A16.7,16.7,0,0,0,1711.55,802.91Z" transform="translate(-306.98 -580.27)"/><path class="cls-2" d="M1690.8,803.9c-21.43,24.35-42.1,49.67-61.46,75.25-20.89,27.6-43.09,57.84-66,89.88l-.15.21c-28.55,41.06-53.31,78.69-73.57,111.86-.9,1.58-23.37,39.72-24.24,41.28q-8,14.19-15,27.57c-16.78,31.85-29.68,60.22-38.47,84.6q-2.14,5.94-4.09,11.74c-8.48,25.29-14.12,48.5-16.83,69.21a.87.87,0,0,1,0,.11c-.12.92-.24,1.83-.35,2.74-.05.51-.12,1-.18,1.54-.35,3-.68,6.88-1,11.19,0,0,0,0,0,0-.79,10.86-1.47,24.79-2,37.18a40.34,40.34,0,0,1-32.62,37.93l-.33.06c-16.75,3.18-31.82,4.8-44.78,4.8-24.11,0-42.21-6.08-55.32-18.58-11.21-10.69-17.38-25.24-18.74-44.29-.2-2.72-.3-5.54-.3-8.44s.14-5.67.41-8.66a156.51,156.51,0,0,1,6.08-29.9,130.73,130.73,0,0,1,4.72-13c5.19-12.31,13.05-26.83,23.5-43.35q9.77-15.48,23.86-34.59l.22-.3q4.49-6.08,9.41-12.53c.54-.71,1.08-1.42,1.64-2.14q2-2.62,4.1-5.32,7.73-9.95,16.39-20.67l2.79-3.44c1.68-2.06,3.37-4.14,5.1-6.24l3.41-4.15.22-.26,29-36.28,25.65-32.1.16-.19,148.87-186.33a37.13,37.13,0,0,0,4.6-39.56c-6.65-13.82-20.65-22.4-36.54-22.4H1366.61a20.23,20.23,0,0,0-3.39.28,34.74,34.74,0,0,1-4.93.45c-53.92,1.29-69.47,30.24-78.76,47.54-5.49,10.22-7,11.84-9.36,12.28-2.3-.56-13.65-4.66-35.37-33.63-8-10.68-15.58-22.28-22-32.84s-11.75-20-15.28-26.5a1.63,1.63,0,0,1-.11-1.56l21.71-51c.59-1.39,2.78-2.86,5.67-2.86h55.16c1.64,0,3.29,0,4.95,0H1683.3Z" transform="translate(-306.98 -580.27)"/><path class="cls-4" d="M1683.3,750.54s-233.77,12.63-318.94,10.67c-86.71-2-119.43,1.18-128.89,3.55s-24.64,29.76-26.41,38.63,10.68,40.17,10.68,40.17-4.49-7.09-7-11.1c-6.43-10.52-11.75-20-15.28-26.5a1.63,1.63,0,0,1-.11-1.56l21.71-51c.59-1.39,2.78-2.86,5.67-2.86h55.16c1.64,0,3.29,0,4.95,0H1683.3Z" transform="translate(-306.98 -580.27)"/><path class="cls-5" d="M1309.76,1411.09c-24.11,0-42.2-6.08-55.32-18.58-12.81-12.22-19-29.47-19-52.73,0-11.09,2.19-24.06,6.5-38.56s13.82-33.59,28.2-56.34c14.91-23.58,37.42-53.65,66.93-89.38l.22-.26,41.2-51.57c36.83-1.84,68.08-4.5,102.89-8.39-.9,1.58-15,25.54-15.93,27.1-24.23,43.23-42.22,81-53.47,112.17-11.44,31.7-18.66,60.42-21.46,85.34-1.36,12-2.39,31.73-3.07,48.43a40.23,40.23,0,0,1-32.54,37.91l-.33.06C1337.79,1409.47,1322.72,1411.09,1309.76,1411.09Z" transform="translate(-306.98 -580.27)"/><path class="cls-4" d="M1288.22,1232.89l1.29-1.87c8.47-12.16,18-25.35,28.59-39.3,67.26-88.65,195.84-257.63,195.84-257.63s-139.42,168.31-179,220.24c-16.7,21.9-89.21,112.21-95.66,156.63,0,0,0-.11.17-.32-5.43,22.23-8.9,56.06,11.36,78,0,0-24.41-65.92,37.26-155.57Z" transform="translate(-306.98 -580.27)"/><polygon class="cls-1" points="119.86 437.64 119.81 437.66 119.8 437.66 119.86 437.64"/><path class="cls-2" d="M871.57,805.19a31.35,31.35,0,0,0-.29-4.32l-8.07-57.5c-2.26-16.1-16.86-28.24-33.94-28.24H435.89l-5.83,0-5.28,0H369.92c-16.93,0-31.94,9.58-38.25,24.4l-21.72,51a37.08,37.08,0,0,0-3,14.54h0v85.48a37.42,37.42,0,0,0,4.55,17.8c7.59,13.95,22.92,40.84,40.38,64,10.06,13.37,19.68,24,28.59,31.61,12.53,10.69,24.06,15.89,35.26,15.89h.73l.65,0,1.44-.16.46-.06,1.12-.15.36-.06,1.42-.25.25,0,1.17-.25.4-.1c.36-.08.72-.17,1.07-.27l.36-.09,1.35-.4.24-.07,1.09-.37.41-.14.9-.34.43-.16.13-.06c.73-.29,1.45-.61,2.18-1l.09,0c.7-.34,1.41-.71,2.09-1.09l.23-.13c.65-.37,1.29-.76,1.91-1.16l.22-.14c.54-.36,1.08-.73,1.6-1.1l0,0,.28-.21.26-.2.87-.68.27-.22,1.06-.89.16-.14c.3-.27.59-.53.85-.78l.25-.23c.32-.3.63-.61,1-1l.16-.16.77-.81.2-.21.88-1,.12-.14.72-.85.15-.2c.24-.28.47-.57.69-.85l.27-.36c.38-.49.76-1,1.12-1.5l0,0,.42-.58v0c.36-.52.73-1.05,1.09-1.61l.07-.1c.39-.59.77-1.2,1.2-1.89l.07-.11c.37-.61.74-1.22,1.1-1.84l0-.08q.54-.9,1.05-1.83l0-.06c.34-.59.67-1.19,1-1.84l.05-.08c.31-.58.63-1.16.94-1.75l1.9-3.51,0-.1.88-1.62.06-.1c.29-.52.59-1.05.88-1.55l.06-.11c.27-.47.55-.95.84-1.42l.06-.12c.3-.5.61-1,.92-1.49l0-.08.92-1.42.05-.07.92-1.33.07-.08c.31-.44.64-.88,1-1.3l.05-.06.69-.87.05-.06q.36-.43.72-.84l.08-.09c.23-.27.47-.54.7-.79l.1-.1c.24-.26.49-.52.74-.77l.1-.1.77-.75.09-.08c.26-.24.52-.48.78-.7l.12-.11c.27-.23.54-.46.82-.68l.12-.1.89-.69.1-.07c.23-.18.48-.35.73-.53l.16-.1.76-.52.11-.07.8-.5.13-.08.85-.49.2-.11c.29-.17.59-.33.9-.49l.11-.05.95-.48.14-.06,1-.48.19-.08,1.06-.45.13,0L480,964l.26-.09.92-.33.16-.06,1-.33.32-.1.93-.28.23-.07,1.2-.32.26-.07,1-.25.32-.07c.42-.1.85-.2,1.28-.28l.21-.05,1.17-.23.39-.07,1.33-.23.15,0,1.42-.22.4,0,1.31-.17.27,0,1.6-.17.4,0,1.34-.12.42,0,1.75-.12.29,0,1.53-.07.49,0,1.88-.07a68.8,68.8,0,0,0,8.66-.73h80.75L454.81,1133.05c-30.43,36.84-53.81,68.1-69.48,92.9-16.35,25.87-26.89,47.19-32.22,65.18-5.29,17.79-8,34.15-8,48.64v85.48c0,33,10.1,59.37,30,78.37,19.73,18.81,46.56,28.36,79.74,28.36,15.18,0,32.48-1.83,51.42-5.43a358.76,358.76,0,0,0,36.85-9l1.4-.46.42-.16c.27-.09.52-.19.78-.29l.33-.13.42-.18c.58-.24,1.11-.47,1.6-.71l.24-.12.07,0c.48-.23,1-.49,1.48-.78l.31-.16c.55-.32,1.09-.65,1.63-1l.31-.2c.48-.32.92-.62,1.34-.93l.45-.31.27-.23c.37-.29.74-.58,1.12-.9l.26-.22c.47-.41.95-.84,1.42-1.3l.3-.28c.47-.47.92-.94,1.33-1.4l.25-.28c.31-.36.61-.7.89-1l.08-.09.34-.44.36-.48,0,0,.36-.48,0,0,.33-.49,0-.05.34-.51c.12-.17.23-.35.34-.53l0,0c.11-.18.22-.35.32-.53s.22-.38.34-.58l.3-.53.32-.61c.1-.18.19-.36.28-.54l0,0c.1-.19.19-.38.28-.58h0c.1-.19.19-.38.26-.55s.18-.41.26-.61l0-.05c.08-.17.15-.34.22-.52l0-.07.22-.59.22-.6c.07-.19.13-.39.2-.61l0,0,.18-.56,0-.06.18-.64v0l.15-.55c.06-.23.12-.46.17-.7v0l.15-.65.12-.61.12-.67.12-.76c0-.19.06-.39.08-.57s.07-.59.09-.86,0-.3.05-.46c0-.34,0-.68.06-1,0-.12,0-.23,0-.35,0-.45,0-.9,0-1.33v-11.5a585.34,585.34,0,0,1,3.87-65.54c2.49-22.18,9.09-48.19,19.59-77.3,10.59-29.38,27.76-65.33,51-106.85,23.38-41.7,55.66-92.22,95.95-150.17,22.7-31.78,44.68-61.73,65.34-89,1.93-2.55,4-5.25,6.5-8.51l1.82-2.36q2.38-3.07,4.78-6.13l.59-.76,1.76-2.24q2.74-3.47,5.49-6.91l1.42-1.78c2.24-2.79,4.58-5.69,7-8.6.38-.45.75-.91,1.13-1.37l.78-.94q2.58-3.15,5.17-6.27l2.27-2.71.26-.32q2.36-2.8,4.72-5.6L849,928.4q2.47-2.91,5-5.8l.81-1c.5-.57,1-1.15,1.49-1.73,2.66-3.06,5.05-5.8,7.3-8.35.34-.39.68-.79,1-1.24l.28-.35.3-.41.32-.42.47-.67,0,0,.28-.42.46-.71c.09-.14.18-.28.28-.46s.3-.5.44-.75l.23-.4c.22-.41.43-.81.63-1.22l.13-.27c.16-.32.3-.64.45-1,.06-.16.13-.31.2-.48s.22-.52.33-.8l.19-.52c.09-.24.18-.49.26-.73l.19-.57.23-.75.15-.53v0c.07-.24.13-.49.19-.74s.1-.39.14-.57.11-.53.16-.77.08-.39.11-.58.09-.52.13-.8.06-.37.08-.54.07-.53.1-.8V894l.06-.53c0-.3,0-.59.06-.89l0-.49c0-.48,0-.93,0-1.38V805.19Z" transform="translate(-306.98 -580.27)"/><path class="cls-2" d="M667.85,1180.44q-14.65,23.79-26.4,44.74-7.26,12.94-13.72,25.16c-.24.46-.49.92-.72,1.37l0,.06q-12.5,23.7-21.9,44.49c-.24.53-.47,1.06-.71,1.6l-.18.39h0q-8.11,18.11-13.77,33.78c-10.5,29.11-17.09,55.12-19.59,77.29a585.65,585.65,0,0,0-3.87,65.55v11.5c0,.43,0,.88,0,1.33,0,.11,0,.23,0,.35,0,.31,0,.65-.07,1,0,.16,0,.31-.05.46s0,.57-.09.86-.05.37-.08.57-.07.5-.12.76l-.12.67-.12.61-.15.65v0c-.05.23-.11.46-.17.69l-.15.55v0l-.18.64,0,.06-.18.56,0,0c-.06.22-.13.42-.2.62l-.22.59-.22.59,0,.07c-.07.18-.14.35-.22.52l0,.05c-.08.2-.17.41-.26.61s-.16.36-.26.55h0c-.09.2-.18.39-.28.58l0,0c-.09.18-.18.36-.28.54s-.21.41-.32.61l-.3.53-.34.58c-.1.18-.21.35-.32.53l0,0c-.11.18-.22.36-.34.53l-.34.51,0,.05-.33.49,0,0-.36.48,0,0-.36.48-.34.44-.08.09c-.28.35-.58.69-.89,1l-.25.28c-.41.46-.86.94-1.33,1.4l-.29.28c-.48.46-1,.89-1.43,1.3l-.26.22c-.38.32-.75.61-1.11.9l-.28.23-.45.31c-.42.31-.86.61-1.34.93l-.31.2c-.53.34-1.08.67-1.63,1l-.31.16c-.52.29-1,.55-1.48.78l-.07,0-.24.12c-.49.24-1,.47-1.6.71l-.41.18-.34.13-.77.29-.43.15c-.48.17-.94.32-1.4.46a358.73,358.73,0,0,1-36.85,9c-18.94,3.6-36.24,5.43-51.42,5.43-33.17,0-60-9.55-79.75-28.36-19.91-19-30-45.37-30-78.37v-85.48c0-14.49,2.69-30.86,8-48.64,5.33-18,15.87-39.31,32.22-65.18,15.67-24.8,39.05-56.06,69.48-92.9l39.79-49.8,18-22.56c8,2.62,18.62,4.78,29.75,7,18.69,3.8,39.88,8.11,59.63,16.39,24.19,10.14,41.26,24.2,52.19,43C662.89,1142,667.48,1160,667.85,1180.44Z" transform="translate(-306.98 -580.27)"/><path class="cls-3" d="M856.71,802.91l-8.07-57.5c-1.25-8.89-9.54-15.57-19.37-15.57H438.4c-4.61,0-9.1-.05-13.54,0H369.92c-10.94,0-20.75,6.13-24.71,15.44l-21.71,51a22.29,22.29,0,0,0,1,19.55c15,27.5,59.24,103.93,91.34,103.86,37.11-3.39,16.66-58.2,88.1-59.9a55.16,55.16,0,0,0,7.86-.73H654.12c16,0,25.2,16.56,15.78,28.36L495.22,1106.05l-29,36.27q-45.27,54.81-68.46,91.5t-30.56,61.5q-7.36,24.81-7.35,44.46a128.29,128.29,0,0,0,1.38,19.13q4.54,29.92,24.08,48.58,25.47,24.27,69.6,24.29,21.48,0,48.65-5.16a342.62,342.62,0,0,0,35.32-8.62c8-2.44,13.36-9.36,13.34-17.11V1389.4a596.52,596.52,0,0,1,4-67.2q3.94-35.13,20.36-80.64t52.06-109.06q10.75-19.2,23.85-40.61,30.24-49.5,72.9-110.84,34-47.53,65.63-89.42,29.31-38.75,61.56-75.28A16.75,16.75,0,0,0,856.71,802.91Z" transform="translate(-306.98 -580.27)"/><path class="cls-2" d="M836,803.9c-21.43,24.35-42.1,49.67-61.45,75.25-20.89,27.6-43.09,57.84-66,89.88l-.15.21c-28.55,41.06-53.3,78.69-73.57,111.86-.9,1.58-23.37,39.72-24.24,41.28q-8,14.19-15,27.57c-16.79,31.85-29.69,60.22-38.47,84.6q-2.15,5.94-4.1,11.74c-8.48,25.29-14.12,48.5-16.83,69.21a.87.87,0,0,1,0,.11c-.12.92-.23,1.83-.34,2.74-.06.51-.13,1-.19,1.54-.34,3-.68,6.88-1,11.19v0c-.79,10.86-1.47,24.79-2,37.18A40.32,40.32,0,0,1,500,1406.23l-.34.06c-16.75,3.18-31.82,4.8-44.77,4.8-24.12,0-42.21-6.08-55.32-18.58-11.21-10.69-17.38-25.24-18.75-44.29-.2-2.72-.29-5.54-.29-8.44s.13-5.67.4-8.66a155.82,155.82,0,0,1,6.09-29.9,125.87,125.87,0,0,1,4.72-13c5.18-12.31,13-26.83,23.49-43.35q9.78-15.48,23.86-34.59l.22-.3q4.49-6.08,9.41-12.53l1.64-2.14,4.1-5.32q7.74-9.95,16.4-20.67l2.79-3.44q2.51-3.09,5.09-6.24l3.42-4.15.21-.26,29-36.28,25.64-32.1.16-.19L686.07,900.34a37.15,37.15,0,0,0,4.59-39.56C684,847,670,838.38,654.12,838.38H511.76a20.32,20.32,0,0,0-3.39.28,34.74,34.74,0,0,1-4.93.45c-53.91,1.29-69.47,30.24-78.76,47.54-5.48,10.22-7,11.84-9.36,12.28-2.29-.56-13.64-4.66-35.36-33.63-8-10.68-15.58-22.28-22-32.84s-11.76-20-15.29-26.5a1.63,1.63,0,0,1-.11-1.56l21.72-51c.59-1.39,2.78-2.86,5.67-2.86h55.16c1.64,0,3.29,0,4.95,0H828.46Z" transform="translate(-306.98 -580.27)"/><path class="cls-4" d="M828.46,750.54s-233.78,12.63-319,10.67c-86.71-2-119.43,1.18-128.89,3.55S356,794.52,354.21,803.39s10.69,40.17,10.69,40.17-4.5-7.09-7-11.1c-6.43-10.52-11.76-20-15.29-26.5a1.63,1.63,0,0,1-.11-1.56l21.72-51c.59-1.39,2.78-2.86,5.67-2.86h55.16c1.64,0,3.29,0,4.95,0H828.46Z" transform="translate(-306.98 -580.27)"/><path class="cls-5" d="M454.92,1411.09c-24.11,0-42.21-6.08-55.32-18.58-12.82-12.22-19-29.47-19-52.73,0-11.09,2.18-24.06,6.49-38.56s13.83-33.59,28.21-56.34c14.9-23.58,37.42-53.65,66.93-89.38l.21-.26,41.21-51.57c36.83-1.84,68.08-4.5,102.89-8.39-.9,1.58-15.06,25.54-15.93,27.1-24.24,43.23-42.23,81-53.47,112.17-11.44,31.7-18.66,60.42-21.47,85.34-1.36,12-2.38,31.73-3.07,48.43A40.23,40.23,0,0,1,500,1406.23l-.34.06C482.94,1409.47,467.87,1411.09,454.92,1411.09Z" transform="translate(-306.98 -580.27)"/><path class="cls-4" d="M433.38,1232.89c.42-.62.85-1.24,1.29-1.87,8.47-12.16,18-25.35,28.58-39.3,67.26-88.65,195.85-257.63,195.85-257.63s-139.42,168.31-179,220.24c-16.69,21.9-89.21,112.21-95.66,156.63l.17-.32c-5.42,22.23-8.89,56.06,11.37,78,0,0-24.41-65.92,37.26-155.57Z" transform="translate(-306.98 -580.27)"/><polygon class="cls-1" points="530.92 352.79 530.85 352.81 530.84 352.81 530.92 352.79"/><path class="cls-2" d="M1356,685.23a35.57,35.57,0,0,0-.34-5l-9.4-67c-2.64-18.75-19.64-32.9-39.55-32.9H848.43l-6.78,0q-3.1,0-6.15,0H771.58c-19.73,0-37.22,11.15-44.56,28.42l-25.31,59.42a43.25,43.25,0,0,0-3.46,16.94h0v99.59a43.6,43.6,0,0,0,5.3,20.74C712.39,821.67,730.26,853,750.6,880c11.72,15.58,22.92,28,33.3,36.83,14.6,12.45,28,18.5,41.08,18.5h.85l.76-.07c.58,0,1.15-.11,1.68-.18l.53-.06,1.31-.19.42-.06c.57-.1,1.12-.19,1.65-.3a2.47,2.47,0,0,0,.29-.06l1.37-.29.47-.11,1.25-.31.41-.11,1.58-.46.28-.09,1.27-.42.47-.17,1-.39.5-.2.15-.06c.85-.35,1.69-.72,2.54-1.12l.11-.05c.82-.4,1.64-.83,2.43-1.27l.26-.15c.76-.43,1.51-.88,2.23-1.35l.26-.17c.63-.41,1.26-.84,1.86-1.28l0,0,.33-.25.3-.23c.35-.27.7-.53,1-.79l.31-.25c.41-.34.82-.68,1.24-1l.18-.16,1-.9.3-.28c.36-.35.73-.7,1.12-1.1l.18-.19c.3-.3.6-.62.91-1l.23-.24,1-1.14.14-.17q.42-.48.84-1l.18-.22c.28-.33.55-.67.8-1l.32-.41c.44-.57.88-1.16,1.3-1.75l0,0,.48-.68,0,0c.42-.6.84-1.22,1.27-1.87l.07-.12c.46-.68.91-1.39,1.41-2.2l.07-.13c.44-.71.86-1.42,1.29-2.15l0-.08c.41-.71.82-1.42,1.22-2.14l0-.06c.38-.7.77-1.39,1.18-2.14l0-.1,1.11-2,2.2-4.1.06-.1c.34-.63.68-1.26,1-1.89l.07-.12c.33-.61.68-1.22,1-1.81l.07-.12c.31-.56.64-1.11,1-1.67l.08-.13c.35-.58.7-1.16,1.07-1.74l.06-.09c.34-.55.69-1.09,1.07-1.65l.06-.09c.37-.55.72-1.06,1.07-1.54l.07-.1c.37-.51.75-1,1.13-1.51l.06-.08.8-1,.06-.07c.27-.34.56-.67.83-1l.1-.1c.27-.32.55-.63.82-.92l.11-.12q.42-.45.87-.9l.11-.11.9-.87.1-.09c.3-.29.61-.56.91-.82l.14-.13c.31-.27.63-.53,1-.8l.13-.11,1-.8.11-.09.86-.61.18-.12c.29-.21.59-.41.89-.61l.13-.07.93-.59.16-.09c.33-.2.67-.4,1-.57l.23-.13q.52-.3,1-.57l.13-.06,1.11-.56.16-.07,1.21-.56.22-.09c.4-.17.8-.35,1.24-.52l.15-.06,1.07-.41.3-.11c.36-.13.72-.27,1.07-.38l.18-.07,1.21-.39.36-.11,1.09-.33.27-.08,1.39-.37.31-.08,1.18-.29.38-.09c.49-.11,1-.23,1.49-.33l.24-.05,1.36-.27.46-.08,1.56-.27.17,0,1.65-.25.47-.06,1.53-.2.31,0,1.87-.2.46,0,1.56-.14.49,0,2-.14.34,0,1.78-.09.58,0,2.19-.08a81.72,81.72,0,0,0,10.08-.85h94.09L870.48,1067.2c-35.45,42.93-62.69,79.34-81,108.24-19,30.14-31.33,55-37.54,75.94-6.15,20.72-9.27,39.79-9.27,56.67v99.59c0,38.45,11.76,69.17,35,91.3,23,21.92,54.25,33,92.91,33,17.68,0,37.83-2.13,59.91-6.33a417.38,417.38,0,0,0,42.92-10.47l1.64-.54.49-.18.91-.34.38-.15.49-.21c.67-.28,1.29-.55,1.86-.83l.29-.13.07,0c.56-.28,1.13-.57,1.73-.91l.36-.19c.64-.37,1.27-.75,1.9-1.16l.35-.22c.57-.37,1.08-.73,1.57-1.08l.52-.36.32-.28c.44-.33.87-.68,1.3-1l.31-.25c.55-.48,1.11-1,1.66-1.51l.34-.33c.54-.55,1.07-1.1,1.55-1.63l.29-.33c.37-.41.71-.82,1-1.22l.1-.11.39-.51.42-.56,0,0,.42-.57,0,0c.14-.18.27-.37.4-.56l0-.06.41-.59.39-.63,0,0c.13-.2.26-.4.38-.61s.26-.43.39-.67.24-.41.35-.62.26-.47.38-.72l.33-.63,0,0c.11-.22.22-.44.32-.67h0c.1-.23.21-.45.29-.65s.21-.47.31-.71l0-.05c.09-.2.17-.41.25-.61l0-.08c.09-.22.17-.45.26-.69s.17-.46.25-.69.16-.46.24-.72l0,0,.21-.66,0-.07c.08-.25.15-.5.22-.74v0c.06-.21.12-.43.17-.64s.14-.54.2-.81v0c.06-.25.12-.5.17-.75s.1-.47.14-.7l.15-.79c0-.3.09-.59.13-.88s.07-.46.1-.66.08-.69.11-1,0-.35,0-.54c0-.39.06-.78.08-1.15,0-.14,0-.27,0-.41,0-.52,0-1.05,0-1.55v-13.39a683.11,683.11,0,0,1,4.5-76.37c2.91-25.84,10.59-56.14,22.83-90,12.34-34.23,32.35-76.11,59.47-124.49,27.24-48.58,64.84-107.44,111.78-174.95,26.45-37,52.06-71.92,76.13-103.72,2.24-3,4.65-6.12,7.57-9.92l2.12-2.74q2.78-3.59,5.57-7.14l.69-.89,2-2.61c2.12-2.69,4.26-5.38,6.39-8.05l1.66-2.07c2.61-3.26,5.34-6.63,8.11-10l1.31-1.59.91-1.11q3-3.66,6-7.3l2.64-3.16.31-.37q2.73-3.27,5.49-6.53c1-1.2,2-2.4,3-3.59l5.8-6.77,1-1.1,1.74-2c3.1-3.58,5.88-6.76,8.5-9.73.4-.45.8-.93,1.21-1.45l.32-.4.36-.48.37-.49.55-.78,0,0,.34-.5c.18-.27.35-.55.52-.82l.34-.54.51-.88c.09-.16.19-.33.26-.47.26-.47.51-.94.74-1.42l.15-.31c.18-.37.35-.74.52-1.12.08-.18.15-.36.23-.56s.26-.6.39-.93l.22-.61q.17-.42.3-.84c.08-.21.15-.42.23-.67l.26-.87.18-.62v0c.08-.29.15-.58.22-.87s.12-.46.16-.67.13-.61.19-.89.09-.45.13-.68.1-.6.16-.93.06-.43.09-.62.07-.63.11-.94v-.07l.06-.62c0-.34,0-.69.07-1s0-.37,0-.57c0-.56,0-1.08,0-1.61V685.23Z" transform="translate(-306.98 -580.27)"/><path class="cls-2" d="M1118.69,1122.41q-17.09,27.73-30.76,52.13-8.46,15.07-16,29.32l-.84,1.59,0,.07q-14.55,27.62-25.51,51.84c-.29.61-.56,1.23-.84,1.86-.07.15-.14.31-.2.46h0q-9.43,21.08-16,39.35c-12.24,33.91-19.91,64.21-22.82,90a680.55,680.55,0,0,0-4.51,76.37v13.39c0,.5,0,1,0,1.55,0,.14,0,.27,0,.41,0,.36-.05.76-.08,1.15l-.06.54c0,.32-.06.66-.1,1s-.06.44-.1.67-.08.58-.13.88l-.15.78c0,.25-.09.48-.14.71s-.11.5-.17.76v0c-.06.27-.13.54-.2.81s-.11.43-.18.64v0q-.09.38-.21.75l0,.07-.21.66,0,.06c-.08.25-.16.48-.24.71s-.16.46-.25.69-.18.47-.26.68l0,.09c-.08.2-.17.41-.26.61l0,.05-.3.71-.3.65h0c-.11.23-.21.45-.32.67l0,0c-.1.22-.21.43-.32.64s-.25.47-.38.71-.23.41-.35.62-.26.46-.39.67-.25.41-.38.62l0,0-.39.63-.4.59,0,0a5.72,5.72,0,0,1-.39.57l0,0-.42.56,0,0-.42.56-.39.51-.1.1c-.33.41-.68.81-1,1.23-.1.12-.19.23-.29.33-.48.53-1,1.09-1.55,1.63l-.34.32c-.55.53-1.11,1-1.66,1.51l-.31.26c-.44.37-.86.72-1.29,1l-.33.28-.52.35c-.49.36-1,.72-1.56,1.09l-.36.23c-.62.4-1.26.78-1.91,1.15l-.35.19c-.6.33-1.17.63-1.73.91l-.07,0-.29.14c-.57.28-1.19.55-1.86.83l-.48.21-.4.15-.9.34-.49.18c-.56.2-1.1.37-1.64.53a414.76,414.76,0,0,1-42.92,10.48c-22.08,4.2-42.23,6.33-59.91,6.33-38.65,0-69.92-11.12-92.91-33-23.21-22.12-35-52.84-35-91.29v-99.59c0-16.89,3.13-36,9.28-56.67,6.21-21,18.49-45.81,37.54-75.94,18.26-28.9,45.5-65.31,81-108.24l46.35-58,21-26.29c9.36,3.05,21.7,5.56,34.66,8.2,21.78,4.43,46.47,9.46,69.47,19.1,28.18,11.81,48.08,28.19,60.81,50.07C1112.9,1077.66,1118.26,1098.57,1118.69,1122.41Z" transform="translate(-306.98 -580.27)"/><path class="cls-3" d="M1338.71,682.57l-9.4-67c-1.46-10.37-11.12-18.14-22.57-18.14H851.36c-5.37,0-10.6-.05-15.77,0h-64c-12.74,0-24.17,7.15-28.79,18l-25.3,59.43a26,26,0,0,0,1.13,22.77c17.41,32,69,121.09,106.41,121,43.24-3.95,19.41-67.8,102.64-69.79a64.12,64.12,0,0,0,9.16-.85h165.86c18.61,0,29.35,19.3,18.38,33l-203.51,254.7L883.79,1078Q831,1141.86,804,1184.61t-35.59,71.65q-8.59,28.9-8.57,51.79a148.12,148.12,0,0,0,1.61,22.29q5.28,34.88,28,56.6,29.67,28.29,81.08,28.3,25,0,56.69-6a399.8,399.8,0,0,0,41.15-10c9.37-2.85,15.56-10.91,15.54-19.93v-13.4a697.26,697.26,0,0,1,4.62-78.29q4.6-40.92,23.73-93.94T1073,1066.56q12.54-22.36,27.79-47.31,35.24-57.68,84.93-129.13,39.55-55.38,76.46-104.18,34.15-45.13,71.72-87.71A19.47,19.47,0,0,0,1338.71,682.57Z" transform="translate(-306.98 -580.27)"/><path class="cls-2" d="M1314.53,683.73c-25,28.37-49,57.86-71.6,87.66-24.34,32.17-50.2,67.4-76.85,104.72a2.2,2.2,0,0,0-.17.25c-33.27,47.84-62.11,91.68-85.72,130.32-1,1.84-27.22,46.28-28.24,48.1q-9.27,16.52-17.48,32.11c-19.55,37.11-34.59,70.16-44.82,98.56q-2.5,6.93-4.77,13.69c-9.88,29.46-16.45,56.5-19.61,80.63a1.09,1.09,0,0,1,0,.12c-.14,1.07-.28,2.13-.4,3.2-.07.59-.15,1.2-.22,1.79-.4,3.56-.79,8-1.15,13a0,0,0,0,0,0,0c-.92,12.66-1.71,28.89-2.32,43.32a47,47,0,0,1-38,44.19l-.39.08c-19.51,3.7-37.07,5.58-52.17,5.58-28.09,0-49.17-7.08-64.45-21.64-13.06-12.46-20.25-29.4-21.84-51.6q-.34-4.76-.34-9.84,0-4.85.48-10.09a181.4,181.4,0,0,1,7.08-34.83A147.81,147.81,0,0,1,797,1248c6-14.34,15.2-31.26,27.37-50.51q11.39-18,27.8-40.3c.09-.11.18-.22.26-.34q5.22-7.1,11-14.6l1.91-2.5,4.78-6.19q9-11.6,19.1-24.09l3.25-4q2.92-3.6,5.94-7.26c1.31-1.61,2.63-3.21,4-4.84l.26-.3,33.76-42.27,29.88-37.39.19-.24,173.45-217.07a43.27,43.27,0,0,0,5.35-46.09c-7.74-16.1-24.06-26.11-42.57-26.11H936.83a23.63,23.63,0,0,0-3.94.33,40.29,40.29,0,0,1-5.75.53c-62.82,1.49-80.94,35.23-91.76,55.39-6.39,11.9-8.13,13.78-10.91,14.3-2.67-.65-15.89-5.43-41.2-39.18-9.33-12.44-18.15-26-25.67-38.26s-13.69-23.31-17.8-30.88a1.88,1.88,0,0,1-.13-1.82L765,624.88c.69-1.62,3.24-3.33,6.61-3.33h64.26c1.91,0,3.83,0,5.77,0l6.52,0H1305.8Z" transform="translate(-306.98 -580.27)"/><path class="cls-4" d="M1305.8,621.56S1033.44,636.27,934.21,634c-101-2.32-139.14,1.38-150.17,4.13s-28.7,34.68-30.76,45,12.45,46.8,12.45,46.8-5.24-8.26-8.13-12.93c-7.49-12.26-13.69-23.31-17.8-30.88a1.88,1.88,0,0,1-.13-1.82L765,624.88c.69-1.62,3.24-3.33,6.61-3.33h64.26c1.91,0,3.83,0,5.77,0l6.52,0H1305.8Z" transform="translate(-306.98 -580.27)"/><path class="cls-5" d="M870.6,1391.13c-28.09,0-49.17-7.08-64.44-21.64-14.93-14.24-22.19-34.34-22.19-61.44,0-12.91,2.54-28,7.57-44.92,5.05-17.06,16.1-39.13,32.86-65.64,17.36-27.48,43.59-62.51,78-104.13l.24-.3,48-60.09c42.91-2.14,79.32-5.24,119.88-9.77-1,1.85-17.54,29.76-18.56,31.58-28.24,50.35-49.2,94.32-62.3,130.67-13.33,36.94-21.74,70.4-25,99.43-1.58,14-2.78,37-3.57,56.43a46.88,46.88,0,0,1-37.91,44.16l-.39.08C903.26,1389.25,885.7,1391.13,870.6,1391.13Z" transform="translate(-306.98 -580.27)"/><path class="cls-4" d="M845.51,1183.52l1.5-2.17c9.87-14.17,21-29.54,33.3-45.79,78.37-103.28,228.18-300.15,228.18-300.15S946.05,1031.49,899.92,1092c-19.45,25.51-103.93,130.72-111.45,182.48l.2-.38c-6.32,25.9-10.36,65.32,13.24,90.94,0,0-28.44-76.81,43.41-181.25Z" transform="translate(-306.98 -580.27)"/></g></svg>