<svg id="Layer_2" data-name="Layer 2" xmlns="http://www.w3.org/2000/svg" viewBox="0 0 300 300"><defs><style>.cls-1{fill:#fff;}</style></defs><path class="cls-1" d="M81,199.36h0L97.52,141h0l-4-24.3h0l-3.85-4.53-.51-.6A141.24,141.24,0,0,0,58.16,200a143.52,143.52,0,0,0,1,16.55l5.54-.62.31-.32.51-.51,3.68-3.75Zm71-65.62,12.84-11L192.67,98.9l-2.14-18.42L189.19,69h0L128.71,83.24h0L97.37,116.46,101.12,139Zm38.19-69,27.23-1.81,15.18-1a142.24,142.24,0,0,0-105,16.14l.95,1.24ZM283.3,97.94l3.17.28h0L300,99.42a141.94,141.94,0,0,0-53.56-33.48l13.75,11.94ZM172.4,192.08l54.89,20.06h0l2.14-2,39.28-37.53h0l-14.32-51.64-1.84-.59L195,102.06l-.23.19-39.58,33.89,13.9,47.42,2.39,8.17,1,.35Zm-55.73,118h0l-13.84-6.81a142.91,142.91,0,0,0,20.11,15.78l-3-4.35ZM282,101.73h0l-13.57,10.52-10.17,7.88,1,3.58,13.39,48.34h0l40,31.93,16.79-15.62h0l-.25-4,0-.22-2.66-43.45-.35-5.63a142,142,0,0,0-22-31.33h0l-20.3-1.8Zm49.44,90.87-.39-.44L319.3,203l-4.93,4.59-14,42-5.17,15.5h0l4.09,27.72h0l.32-.06,9-1.56a141.22,141.22,0,0,0,33.17-86.74ZM118.08,236.78h0l-.11-.36-35.49-33L70,216.08l-1.2,1.23-2.12,31.13a141.89,141.89,0,0,0,28,46.52h0l23,11.3h0l16.91-15.79.64-.6-9.7-30.11ZM291.6,267.36l-1.3.18-51.19,6.92-2.19,1.87L198.69,308.9l2.8,6.45,7.71,17.71h0l14.6,6.78h0a140.51,140.51,0,0,0,31.86-9.35l11.18-9.85L295.7,295.2h0l-4.1-27.84Zm-104.47,73.9q6.36.57,12.87.58a142.55,142.55,0,0,0,16.75-1l-9.25-4.29Zm8.47-34.84.58-.49.88-.76h0L232,275.43h0l2.07-1.76,2-1.71-10.77-56.41-26.9-9.83L168.92,195,121.3,234.12,139,288.89l49.77,15.4Z" transform="translate(-50 -50)"/><path d="M200,50A150,150,0,1,0,350,200,150,150,0,0,0,200,50ZM308.6,291.23l-9,1.56-.32.06h0l-4.09-27.72h0l5.17-15.5,14-42L319.3,203,331,192.16l.39.44,10.38,11.89A141.22,141.22,0,0,1,308.6,291.23Zm-84.8,48.61h0l-14.6-6.78h0l-7.71-17.71-2.8-6.45,38.23-32.57,2.19-1.87,51.19-6.92,1.3-.18h0l4.1,27.84h0l-28.86,25.44-11.18,9.85A140.51,140.51,0,0,1,223.8,339.84Zm-121-36.53,13.84,6.81h0l3.23,4.62,3,4.35A142.91,142.91,0,0,1,102.82,303.31Zm14.81,2.95h0l-23-11.3h0a141.89,141.89,0,0,1-28-46.52l2.12-31.13,1.2-1.23,12.5-12.71,35.49,33,.11.36h0l7.4,23,9.7,30.11-.64.6Zm-58.5-89.71a143.52,143.52,0,0,1-1-16.55,141.24,141.24,0,0,1,31-88.45l.51.6,3.85,4.53h0l4,24.3h0L81,199.36h0l-11.79,12-3.68,3.75-.51.51-.31.32ZM128.7,83.24h0L189.19,69h0l1.34,11.5,2.14,18.42-27.85,23.85-12.84,11L101.12,139l-3.75-22.52ZM200,58.16a142.18,142.18,0,0,1,32.58,3.76l-15.18,1-27.23,1.81L128.48,79.3l-.95-1.24A141.07,141.07,0,0,1,200,58.16Zm104.12,45.53a142,142,0,0,1,22,31.33l.35,5.63,2.66,43.45,0,.22.25,4h0L312.59,204l-40-31.93h0L259.2,123.71l-1-3.58,10.17-7.88L282,101.73h0l1.87.16,20.3,1.8Zm-132.68,88-2.39-8.17-13.9-47.42,39.58-33.89.23-.19,57.59,18.28,1.84.59,14.32,51.64h0L229.43,210.1l-2.14,2h0L172.4,192.08h0Zm115-93.5h0l-3.17-.28L260.19,77.88,246.44,65.94A141.94,141.94,0,0,1,300,99.42ZM121.3,234.12,168.92,195l29.47,10.77,26.9,9.83L236.06,272l-2,1.71L232,275.43h0l-34.92,29.74h0l-.88.76-.58.49-6.88-2.13L139,288.89Zm86.2,102.44,9.25,4.29a142.55,142.55,0,0,1-16.75,1q-6.51,0-12.87-.58Z" transform="translate(-50 -50)"/></svg>