<svg id="Layer_2" data-name="Layer 2" xmlns="http://www.w3.org/2000/svg" viewBox="0 0 300 300"><defs><style>.cls-1{fill:#231f20;}.cls-2{fill:#fff;}</style></defs><path class="cls-1" d="M76.73,201.4h0L93.29,143h0l-4.05-24.31h0l-3.85-4.53-.51-.6A141.24,141.24,0,0,0,53.93,202a143.52,143.52,0,0,0,1,16.55l5.54-.62.32-.32.5-.51,3.68-3.75Zm71-65.62,12.84-11,27.86-23.85L186.3,82.52,185,71h0L124.48,85.28h0L93.14,118.5,96.9,141Zm38.2-69L213.17,65l15.18-1a142.24,142.24,0,0,0-105,16.14l1,1.24ZM279.07,100l3.18.28h0l13.53,1.19A141.94,141.94,0,0,0,242.21,68L256,79.92Zm-110.9,94.14,54.89,20.06h0l2.14-2,39.28-37.53h0L250.16,123l-1.84-.59L190.73,104.1l-.22.19-39.59,33.89,13.9,47.42,2.39,8.17,1,.35Zm-55.73,118h0l-13.85-6.81a142.43,142.43,0,0,0,20.12,15.78l-3-4.35ZM277.72,103.77h0l-13.57,10.52L254,122.17l1,3.58,13.4,48.34h0l40,31.93,16.79-15.62h0l-.25-4v-.22l-2.67-43.45-.35-5.63a142,142,0,0,0-22-31.33h0l-20.3-1.8Zm49.44,90.87-.38-.44-11.71,10.88-4.93,4.59-14,42L291,267.17h0l4.09,27.72h0l.32-.06,9-1.56a141.22,141.22,0,0,0,33.17-86.74ZM113.85,238.82h0l-.12-.36L78.24,205.41l-12.5,12.71-1.2,1.23-2.12,31.13a141.89,141.89,0,0,0,28,46.52h0l23,11.3h0l16.91-15.79.64-.6-9.7-30.11ZM287.37,269.4l-1.3.18-51.19,6.92-2.19,1.87-38.23,32.57,2.8,6.45L205,335.1h0l14.6,6.78h0a140.51,140.51,0,0,0,31.86-9.35l11.19-9.85,28.85-25.44h0l-4.1-27.84ZM182.9,343.3q6.36.57,12.87.58a142.55,142.55,0,0,0,16.75-1l-9.25-4.29Zm8.47-34.84L192,308l.88-.76h0l34.91-29.74h0l2.07-1.76,2-1.71-10.77-56.41-26.9-9.83L164.69,197l-47.62,39.17,17.65,54.77,49.77,15.4Z" transform="translate(-47.05 -52.04)"/><path class="cls-2" d="M197.05,52a150,150,0,1,0,150,150A150,150,0,0,0,197.05,52Zm108.6,241.23-9,1.56-.33.06h0l-4.08-27.72h0l5.17-15.5,14-42,4.93-4.59,11.7-10.88.39.44,10.38,11.89A141.28,141.28,0,0,1,305.65,293.27Zm-84.8,48.61h0l-14.6-6.78h0l-7.71-17.71-2.8-6.45L234,278.37l2.19-1.87,51.19-6.92,1.3-.18h0l4.1,27.84h0l-28.86,25.44-11.18,9.85A140.51,140.51,0,0,1,220.85,341.88Zm-121-36.53,13.85,6.81h0l3.24,4.62,3,4.35A143,143,0,0,1,99.86,305.35Zm14.82,2.95h0l-23-11.3h0a141.89,141.89,0,0,1-28-46.52l2.12-31.13,1.2-1.23,12.5-12.71L115,238.46l.11.36h0l7.41,23,9.7,30.11-.64.6Zm-58.5-89.71a143.52,143.52,0,0,1-1-16.55,141.24,141.24,0,0,1,30.95-88.45l.51.6,3.84,4.53h0L94.57,143h0L78,201.4h0l-11.79,12-3.68,3.75-.51.51-.31.32ZM125.75,85.28h0L186.24,71h0l1.34,11.5,2.14,18.42-27.86,23.85-12.83,11L98.17,141,94.42,118.5Zm71.3-25.08A142.18,142.18,0,0,1,229.63,64l-15.18,1-27.23,1.82-61.7,14.55-1-1.24A141.13,141.13,0,0,1,197.05,60.2Zm104.12,45.53a142.37,142.37,0,0,1,22,31.33l.34,5.63,2.67,43.45v.22l.25,4h0L309.63,206l-40-31.93h0l-13.39-48.34-1-3.58,10.16-7.88L279,103.77h0l1.87.16,20.29,1.8Zm-132.68,88-2.4-8.17L152.2,138.18l39.58-33.89.23-.19,57.59,18.28,1.84.59,14.31,51.64h0l-39.27,37.53-2.14,2-2.3,2.23-52.59-22.29h0Zm115-93.51h0l-3.17-.28L257.24,79.92,243.48,68A141.78,141.78,0,0,1,297,101.46ZM118.35,236.16,166,197l29.46,10.77,26.9,9.83L233.11,274l-2,1.71L229,277.47h0l-34.92,29.74h0l-.88.76-.58.49-6.88-2.13L136,290.93Zm86.2,102.44,9.24,4.29a142.38,142.38,0,0,1-16.74,1q-6.51,0-12.87-.58Z" transform="translate(-47.05 -52.04)"/></svg>