<svg id="Layer_1" data-name="Layer 1" xmlns="http://www.w3.org/2000/svg" viewBox="0 0 3986.13 3867.2"><defs><style>.cls-1{fill:#a51d1d;}.cls-2{fill:#9d9ba2;}.cls-3{fill:#ffd102;}</style></defs><path class="cls-1" d="M2865.1,2316.31l16.73-38.64A149,149,0,0,0,2865.1,2316.31Z" transform="translate(-481.93 -529.4)"/><path class="cls-2" d="M2271.12,3289.3l116.74-269.69c-32-15.75-63.11-32.75-93-51.23-113.05-69.9-197.08-152.46-256.87-252.41-52.17-87.2-84.33-187.25-96.07-298.41L1182.46,627.87h122.85L1140.68,529.4H481.93L1668.85,3289.3l164.63,98.47-42.35-98.47Z" transform="translate(-481.93 -529.4)"/><path class="cls-2" d="M2771.39,2363.31c0-165.63,139.27-301.14,500.64-301.14,233.39,0,485.59,67.76,730.26,207l188.22-463c-244.68-154.33-583.46-233.38-914.71-233.38-749.09,0-1110.45,372.66-1110.45,820.6,0,978.71,1532,639.93,1532,1133,0,161.86-146.8,282.32-508.17,282.32-316.2,0-647.45-112.93-869.54-274.79l-207,459.24c233.39,180.68,655,304.9,1072.81,304.9,752.85,0,1118-376.43,1118-816.84C4303.43,2513.88,2771.39,2848.9,2771.39,2363.31Z" transform="translate(-481.93 -529.4)"/><path class="cls-2" d="M2780.86,1404.37c129.64-24.56,272.1-33,424.74-25.09l365.13-689.16L3778,705.5,3621.06,595.11l-604.38-44.87-491.22,930.32L2682.35,1591Z" transform="translate(-481.93 -529.4)"/><path class="cls-3" d="M3029.73,2414.78l16.73-38.64A149,149,0,0,0,3029.73,2414.78Z" transform="translate(-481.93 -529.4)"/><path d="M3362.49,1489.67,3778,705.5l-604.38-44.87L2682.35,1591q98.91-42.1,212.69-67.42C3035.87,1492.26,3192.91,1480.91,3362.49,1489.67Z" transform="translate(-481.93 -529.4)"/><path d="M2552.5,3118.08c-32-15.75-63.12-32.75-93-51.23-113-69.9-197.08-152.46-256.87-252.41-52.17-87.2-84.33-187.25-96.07-298.41L1305.31,627.87H646.57l1186.91,2759.9h602.28Z" transform="translate(-481.93 -529.4)"/><path d="M2936,2461.78c0-165.63,139.27-301.14,500.64-301.14,233.39,0,485.59,67.76,730.27,207l188.21-463c-244.68-154.33-583.46-233.38-914.71-233.38C2691.34,1671.29,2330,2044,2330,2491.89c0,978.71,1532,639.93,1532,1133,0,161.86-146.8,282.32-508.17,282.32-316.2,0-647.45-112.93-869.54-274.79l-207,459.24c233.38,180.68,655,304.9,1072.8,304.9,752.85,0,1118-376.42,1118-816.84C4468.07,2612.35,2936,2947.37,2936,2461.78Z" transform="translate(-481.93 -529.4)"/></svg>