<svg id="Layer_1" data-name="Layer 1" xmlns="http://www.w3.org/2000/svg" viewBox="0 0 2485.77 2045.6"><defs><style>.cls-1,.cls-2,.cls-3,.cls-4{fill-rule:evenodd;}.cls-2{fill:#fdfff4;}.cls-3{fill:#feffbf;}.cls-4{fill:#fff;}</style></defs><path class="cls-1" d="M1889,1381.42l-18.29-14.05-32.08,41.78,18.3,14,32.07-41.78Zm26.89,20.64h0l-32.08,41.78-18.3-14,32.08-41.78,18.3,14Zm26.88,20.65-18.29-14-32.08,41.77,18.3,14,32.07-41.77Zm26.89,20.64h0l-32.08,41.78-18.3-14.05,32.08-41.78,18.3,14ZM1996.5,1464l-18.29-14-32.08,41.78,18.3,14L1996.5,1464Zm26.89,20.65h0l-32.08,41.77-18.3-14.05,32.08-41.77,18.3,14.05Zm26.9,20.64-18.31-14L1999.9,1533l18.3,14,32.09-41.78Zm26.89,20.65h0l-32.09,41.78-18.3-14,32.09-41.78,18.3,14Zm26.87,20.64-18.28-14-32.09,41.78,18.28,14,32.09-41.78Zm26.89,20.64h0L2098.85,1609l-18.3-14,32.09-41.78,18.3,14Zm26.87,20.65-18.28-14-32.09,41.78,18.31,14.05,32.06-41.78Zm26.89,20.64h0l-32.06,41.78-18.3-14,32.06-41.78,18.3,14Zm26.9,20.64-18.31-14.05-32.06,41.78,18.28,14.05,32.09-41.78Zm-337.73-339.37-18.3-14-32.08,41.78,18.3,14,32.08-41.78Zm26.88,20.64h0l-32.08,41.78-18.29-14,32.07-41.78,18.3,14.05Zm26.89,20.64h0l-32.08,41.78-18.3-14,32.08-41.78,18.3,14Zm26.88,20.65-18.3-14-32.07,41.78,18.29,14,32.08-41.78Zm26.89,20.64h0l-32.08,41.78-18.3-14,32.08-41.78,18.3,14Zm26.88,20.64-18.3-14-32.08,41.78,18.3,14,32.08-41.78Zm26.89,20.65h0l-32.08,41.77-18.3-14,32.08-41.78,18.3,14.05Zm26.89,20.64-18.31-14L2011.69,1462l18.29,14,32.09-41.78Zm26.89,20.65h0l-32.09,41.78-18.3-14.06,32.08-41.78,18.31,14.06Zm26.89,20.64-18.3-14-32.09,41.78,18.3,14,32.09-41.78Zm26.87,20.65h0L2110.65,1538l-18.3-14,32.09-41.77,18.28,14Zm26.89,20.64-18.3-14-32.09,41.78,18.31,14.05,32.08-41.78Zm26.87,20.64h0l-32.06,41.78-18.31-14,32.09-41.78,18.28,14Zm26.89,20.64-18.3-14L2173,1585.86l18.3,14.05,32.06-41.78Zm26.9,20.65h0l-32.09,41.78-18.28-14,32.06-41.78,18.31,14Zm26.89,20.64-18.31-14.05-32.08,41.78,18.3,14,32.09-41.78Zm26.87,20.64h0L2272,1661.84l-18.3-14,32.09-41.78,18.28,14Zm-418.38-401.3-18.29-14-32.08,41.78,18.29,14,32.08-41.78Zm26.89,20.64h0l-32.08,41.78-18.3-14,32.08-41.78,18.3,14.05Zm26.88,20.65-18.29-14-32.08,41.77,18.3,14,32.07-41.77Zm26.89,20.64-18.3-14-32.08,41.78,18.3,14,32.08-41.78Zm26.88,20.64h0l-32.08,41.78-18.29-14,32.08-41.78,18.29,14Zm26.89,20.64-18.3-14-32.08,41.77,18.3,14,32.08-41.78Zm26.87,20.65h0l-32.06,41.78-18.3-14.05,32.08-41.78,18.28,14Zm26.89,20.64-18.3-14L2023.47,1391l18.3,14,32.07-41.78Zm26.9,20.64h0l-32.09,41.78-18.28-14,32.06-41.78,18.31,14.05Zm26.89,20.65-18.3-14-32.09,41.78,18.3,14,32.09-41.78Zm26.89,20.65h0L2122.43,1467l-18.3-14,32.09-41.78,18.3,14Zm26.87,20.64-18.28-14L2131,1473.57l18.31,14,32.06-41.78Zm26.89,20.64h0l-32.08,41.78-18.29-14,32.09-41.78,18.28,14Zm26.89,20.65-18.3-14.05-32.08,41.77,18.3,14.05,32.08-41.77Zm26.87,20.64h0L2230,1549.55l-18.3-14,32.08-41.78,18.28,14Zm26.9,20.64-18.31-14.05-32.06,41.78,18.28,14,32.09-41.78Zm26.89,20.65h0l-32.09,41.77-18.28-14,32.07-41.77,18.3,14Zm26.89,20.64-18.3-14-32.09,41.78,18.3,14,32.09-41.78Zm26.87,20.64h0l-32.08,41.78-18.29-14,32.07-41.78,18.3,14Zm-445.26-421.95h0l-32.08,41.78-18.3-14.05,32.08-41.78,18.3,14.05Zm26.88,20.65-18.3-14-32.08,41.77,18.3,14,32.08-41.77Zm26.89,20.64h0L1946,1251.46l-18.3-14,32.08-41.78,18.3,14Zm26.88,20.64h0l-32.08,41.78-18.29-14,32.07-41.78,18.3,14Zm26.89,20.65-18.3-14-32.08,41.77,18.3,14,32.08-41.77Zm26.88,20.64h0l-32.08,41.78-18.3-14.05,32.08-41.78,18.3,14Zm26.89,20.64-18.3-14L2035.26,1320l18.3,14,32.08-41.78Zm26.88,20.64h0l-32.07,41.78-18.3-14.05,32.06-41.77,18.31,14Zm26.89,20.65-18.31-14L2089,1361.27l18.28,14,32.09-41.78Zm26.89,20.65h0L2134.21,1396l-18.3-14.06,32.09-41.78,18.3,14.06Zm26.89,20.64-18.3-14-32.09,41.78,18.3,14,32.09-41.78Zm26.87,20.64h0L2188,1437.25l-18.31-14,32.09-41.78,18.28,14Zm26.89,20.65-18.3-14-32.07,41.78,18.31,14.05,32.06-41.78Zm26.89,20.64h0l-32.08,41.78-18.3-14,32.08-41.78,18.3,14Zm26.9,20.64-18.31-14.05-32.08,41.78,18.3,14,32.09-41.78Zm26.87,20.65h0l-32.09,41.77-18.28-14L2309.3,1464l18.31,14Zm26.89,20.64-18.3-14-32.09,41.78,18.3,14,32.09-41.78Zm26.87,20.64h0l-32.07,41.78-18.3-14,32.09-41.78,18.28,14Zm26.89,20.65-18.28-14-32.09,41.77,18.31,14,32.06-41.77ZM1963,1118l-18.3-14-32.08,41.78,18.3,14L1963,1118Zm26.88,20.64h0l-32.08,41.78-18.29-14,32.08-41.78,18.29,14.05Zm26.89,20.64-18.3-14L1966.39,1187l18.3,14,32.08-41.78Zm26.88,20.65-18.29-14-32.08,41.78,18.29,14,32.08-41.77Zm26.88,20.64h0l-32.07,41.78-18.3-14.05,32.09-41.78,18.28,14Zm26.89,20.64-18.3-14L2047.06,1249l18.28,14,32.08-41.78Zm26.89,20.65h0l-32.08,41.77-18.3-14.05,32.08-41.77,18.3,14.05Zm26.88,20.64-18.29-14-32.08,41.78,18.28,14,32.09-41.78Zm26.89,20.64h0L2146,1325l-18.28-14,32.07-41.78,18.3,14.05Zm26.89,20.65-18.3-14-32.09,41.77,18.3,14.06,32.09-41.78Zm26.89,20.65h0l-32.08,41.77-18.31-14,32.09-41.77,18.3,14Zm26.87,20.64-18.28-14-32.09,41.78,18.31,14.05,32.06-41.78Zm26.89,20.64h0l-32.06,41.78-18.3-14,32.06-41.78,18.3,14Zm26.9,20.64-18.31-14.05-32.06,41.78,18.28,14.05,32.09-41.78Zm26.89,20.65h0l-32.09,41.78-18.3-14L2321.1,1393l18.31,14Zm26.87,20.64-18.3-14-32.07,41.78,18.28,14,32.09-41.78Zm26.89,20.64h0l-32.09,41.78-18.3-14,32.09-41.78,18.3,14ZM2420,1469l-18.28-14-32.09,41.78,18.31,14L2420,1469Zm26.89,20.64h0l-32.06,41.78-18.31-14.05,32.09-41.78,18.28,14Zm-445.26-421.95h0l-32.08,41.78-18.3-14,32.08-41.78,18.3,14.05Zm26.89,20.64-18.3-14L1978.18,1116l18.3,14,32.08-41.78Zm26.88,20.65h0l-32.08,41.78-18.29-14,32.07-41.78,18.3,14Zm26.89,20.64h0l-32.08,41.78-18.3-14,32.08-41.78,18.3,14Zm26.87,20.64-18.28-14L2058.83,1178l18.31,14,32.06-41.78Zm26.89,20.65h0L2104,1212.66l-18.3-14.05,32.06-41.78,18.3,14.05Zm26.9,20.64-18.31-14-32.08,41.78,18.3,14,32.09-41.78Zm26.87,20.64h0l-32.07,41.78-18.3-14,32.08-41.78,18.29,14.05Zm26.89,20.65-18.3-14-32.07,41.77,18.28,14,32.09-41.77Zm26.89,20.65h0l-32.07,41.77-18.32-14,32.09-41.78,18.3,14.06Zm26.89,20.64-18.3-14-32.09,41.78,18.31,14.05,32.08-41.78Zm26.87,20.64h0l-32.06,41.78-18.31-14,32.09-41.78,18.28,14Zm26.89,20.65-18.3-14.05-32.06,41.77,18.3,14.05,32.06-41.77Zm26.9,20.64h0l-32.09,41.78-18.28-14,32.06-41.78,18.31,14Zm26.89,20.64-18.31-14.05-32.08,41.78,18.3,14,32.09-41.78Zm26.87,20.64h0l-32.07,41.78-18.3-14,32.09-41.77,18.28,14Zm26.89,20.65-18.3-14-32.09,41.78,18.3,14,32.09-41.78Zm26.87,20.64h0l-32.06,41.78-18.31-14.05,32.09-41.78,18.28,14Zm26.89,20.64-18.3-14L2435.24,1467l18.3,14,32.06-41.78ZM2040.34,1017.3l-18.29-14L1990,1045l18.29,14,32.08-41.77Zm26.9,20.64h0l-32.09,41.78-18.3-14,32.09-41.78,18.3,14.05Zm26.87,20.64-18.28-14-32.09,41.78,18.28,14,32.09-41.78Zm26.89,20.64-18.3-14L2070.61,1107l18.31,14,32.08-41.78Zm26.87,20.65h0l-32.06,41.78-18.3-14.05,32.08-41.78,18.28,14Zm26.89,20.64-18.3-14-32.06,41.78,18.3,14,32.06-41.78Zm26.9,20.64h0l-32.09,41.78-18.28-14,32.06-41.78,18.31,14.05Zm26.89,20.65-18.3-14-32.09,41.78,18.3,14,32.09-41.77Zm26.87,20.64h0l-32.09,41.78-18.28-14,32.09-41.78,18.28,14Zm26.89,20.65L2264,1189l-32.09,41.78,18.33,14.06,32.06-41.78Zm26.89,20.64h0l-32.08,41.78-18.29-14,32.07-41.78,18.3,14Zm26.89,20.65-18.3-14.05-32.08,41.78,18.3,14,32.08-41.77ZM2363,1265h0l-32.07,41.78-18.3-14,32.06-41.78,18.31,14Zm26.89,20.64-18.31-14.05-32.06,41.78,18.28,14,32.09-41.78Zm26.89,20.65h0l-32.09,41.77-18.28-14,32.07-41.77,18.3,14Zm26.89,20.64-18.3-14-32.09,41.78,18.3,14,32.09-41.78Zm26.87,20.64h0l-32.08,41.78-18.29-14,32.07-41.78,18.3,14Zm26.89,20.64-18.3-14L2447,1396l18.31,14,32.08-41.78Zm26.87,20.65h0l-32.06,41.78-18.3-14.05,32.06-41.78,18.3,14.05ZM2079,966.93h0l-32.09,41.78-18.29-14.05,32.08-41.78,18.3,14Zm26.89,20.64-18.3-14.05-32.09,41.78,18.3,14,32.09-41.78Zm26.87,20.65h0L2100.72,1050l-18.31-14,32.09-41.78,18.28,14.05Zm26.89,20.64h0l-32.08,41.78-18.31-14.05,32.09-41.78,18.3,14Zm26.89,20.64-18.3-14-32.08,41.78,18.3,14,32.08-41.78Zm26.88,20.64h0l-32.07,41.78-18.3-14.05,32.06-41.77,18.31,14Zm26.89,20.65-18.31-14L2190,1118.52l18.28,14,32.09-41.78Zm26.89,20.64h0l-32.09,41.78-18.3-14,32.09-41.78,18.3,14Zm26.87,20.64-18.28-14-32.09,41.77,18.3,14,32.07-41.78Zm26.89,20.65h0l-32.06,41.78-18.33-14,32.09-41.78,18.3,14Zm26.89,20.65-18.3-14-32.06,41.78,18.3,14.05,32.06-41.78Zm26.89,20.64h0l-32.08,41.78-18.3-14,32.08-41.78,18.3,14Zm26.88,20.64-18.29-14.05-32.08,41.78,18.3,14,32.07-41.78Zm26.89,20.65h0l-32.09,41.77-18.28-14,32.06-41.78,18.31,14Zm26.89,20.64-18.3-14L2405,1283.67l18.3,14,32.09-41.78Zm26.87,20.64h0l-32.06,41.78-18.31-14,32.09-41.78,18.28,14Zm26.89,20.65-18.28-14L2458.81,1325l18.31,14,32.06-41.77Zm26.89,20.64h0L2504,1359.65l-18.3-14.05,32.08-41.78,18.3,14Zm26.87,20.64-18.28-14-32.08,41.78,18.3,14,32.06-41.78ZM2117.69,916.56l-18.3-14-32.09,41.77,18.3,14.05,32.09-41.78Zm26.87,20.64h0L2112.49,979l-18.3-14,32.09-41.79,18.28,14.05Zm26.89,20.65-18.28-14.05-32.09,41.78,18.31,14,32.06-41.78Zm26.89,20.64-18.3-14L2148,1006.22l18.28,14,32.08-41.78Zm26.9,20.65h0l-32.09,41.77-18.3-14.05,32.08-41.77,18.31,14Zm26.87,20.64-18.29-14-32.08,41.78,18.28,14,32.09-41.78Zm26.89,20.64h0l-32.09,41.78-18.28-14,32.07-41.78,18.3,14.05Zm26.89,20.65-18.3-14-32.09,41.77,18.3,14,32.09-41.77Zm26.87,20.64h0l-32.06,41.78-18.31-14,32.09-41.78,18.28,14Zm26.89,20.65-18.28-14.06-32.09,41.78,18.31,14.06,32.06-41.78Zm26.89,20.64h0l-32.06,41.78-18.3-14,32.06-41.78,18.3,14Zm26.9,20.64-18.31-14-32.06,41.77,18.28,14.05,32.09-41.78Zm26.89,20.65h0l-32.09,41.78-18.3-14,32.08-41.78,18.31,14Zm26.87,20.64-18.3-14-32.07,41.78,18.28,14,32.09-41.78Zm26.89,20.64h0L2462,1247.35l-18.3-14,32.09-41.78,18.3,14Zm26.87,20.65-18.28-14L2470.59,1254l18.31,14,32.06-41.77Zm26.89,20.64h0l-32.06,41.78-18.31-14.05,32.09-41.78,18.28,14Zm26.89,20.64-18.3-14-32.08,41.78,18.3,14,32.08-41.78Zm26.9,20.65h0l-32.09,41.77-18.3-14,32.08-41.78,18.31,14.05ZM2156.36,866.2h0L2124.27,908,2106,893.93l32.09-41.78,18.3,14.05Zm26.87,20.65L2165,872.8l-32.09,41.76,18.31,14.05,32.06-41.76Zm26.89,20.63h0l-32.06,41.78-18.31-14,32.09-41.77,18.28,14ZM2237,928.12h0L2205,969.91l-18.3-14,32.06-41.79,18.3,14Zm26.9,20.65-18.31-14-32.08,41.78,18.3,14,32.09-41.78Zm26.87,20.64h0l-32.07,41.78-18.3-14.05,32.08-41.78,18.29,14Zm26.89,20.65-18.3-14-32.09,41.78,18.3,14,32.09-41.77Zm26.89,20.64h0l-32.09,41.78-18.3-14,32.09-41.78,18.3,14.05Zm26.87,20.64-18.28-14-32.09,41.78,18.31,14,32.06-41.78Zm26.89,20.65h0l-32.06,41.78-18.3-14.06,32.06-41.77,18.3,14Zm26.89,20.65-18.3-14.05-32.06,41.77,18.3,14.05,32.06-41.77Zm26.9,20.64h0L2420,1135.06l-18.28-14,32.06-41.78,18.31,14Zm26.89,20.64-18.3-14.05-32.09,41.78,18.3,14,32.09-41.78Zm26.87,20.64h0l-32.07,41.78-18.3-14,32.09-41.77,18.28,14Zm26.89,20.65-18.3-14-32.09,41.78,18.3,14,32.09-41.78Zm26.87,20.64h0l-32.06,41.78-18.31-14.05,32.09-41.78,18.28,14Zm26.89,20.64-18.3-14-32.06,41.77,18.3,14,32.06-41.78Zm26.9,20.65h0l-32.09,41.78-18.28-14.05,32.06-41.78,18.31,14.05Zm26.89,20.64-18.31-14-32.08,41.78,18.3,14,32.09-41.78ZM2195,815.83l-18.28-14.05-32.09,41.78,18.28,14.05L2195,815.83Zm26.89,20.65h0l-32.08,41.78-18.31-14,32.09-41.78,18.3,14.05Zm26.87,20.64-18.3-14-32.06,41.78,18.3,14,32.06-41.78Zm26.9,20.65-18.31-14-32.06,41.78,18.3,14,32.07-41.78Zm26.89,20.63h0l-32.09,41.78-18.28-14,32.06-41.78,18.31,14ZM2329.47,919l-18.3-14-32.09,41.78,18.3,14.06L2329.47,919Zm26.87,20.65h0l-32.09,41.78L2306,967.42,2338,925.64l18.3,14.05Zm26.89,20.64-18.3-14.05-32.09,41.78,18.31,14.05,32.08-41.78ZM2410.1,981h0L2378,1022.76l-18.31-14,32.09-41.78L2410.1,981Zm26.91,20.65-18.32-14.06-32.06,41.78,18.3,14.06,32.08-41.78Zm26.88,20.64h0l-32.07,41.78-18.3-14,32.06-41.78,18.31,14Zm26.89,20.64-18.31-14.05-32.06,41.78,18.28,14,32.09-41.78Zm26.89,20.65h0l-32.09,41.77-18.3-14,32.09-41.77,18.3,14Zm26.89,20.64-18.3-14-32.09,41.78,18.3,14,32.09-41.78Zm26.87,20.64h0l-32.08,41.78-18.29-14,32.07-41.78,18.3,14Zm26.89,20.65-18.3-14-32.09,41.77,18.31,14,32.08-41.77Zm26.87,20.64h0l-32.06,41.78-18.3-14.05,32.06-41.78,18.3,14.05Zm26.9,20.64-18.31-14-32.06,41.78,18.28,14,32.09-41.78Zm26.89,20.64h0l-32.09,41.78-18.3-14,32.08-41.77,18.31,14Zm-418.39-401.3-18.3-14-32.09,41.77,18.31,14,32.08-41.78Zm26.87,20.64h0l-32.06,41.78-18.3-14,32.08-41.78,18.28,14Zm26.9,20.65h0l-32.09,41.78-18.28-14,32.06-41.78,18.31,14ZM2341.25,848l-18.31-14-32.06,41.78,18.28,14.05L2341.25,848Zm26.89,20.65h0l-32.09,41.76-18.3-14.05,32.09-41.76,18.3,14.05ZM2395,889.33l-18.28-14.05-32.09,41.78,18.3,14L2395,889.33ZM2421.9,910h0l-32.08,41.78-18.31-14,32.09-41.78L2421.9,910Zm26.87,20.65-18.28-14.05-32.08,41.78,18.3,14,32.06-41.78Zm26.92,20.66h0L2443.6,993,2425.3,979l32.06-41.78,18.33,14.07Zm26.87,20.63-18.29-14-32.08,41.78,18.3,14,32.07-41.78Zm26.89,20.65h0l-32.09,41.78-18.28-14,32.07-41.78,18.3,14Zm26.89,20.64L2538,999.14,2506,1040.92l18.3,14,32.09-41.78Zm26.87,20.64h0l-32.06,41.78-18.31-14,32.09-41.78,18.28,14Zm26.89,20.65-18.28-14-32.09,41.78,18.31,14,32.06-41.77Zm26.89,20.64h0l-32.08,41.78-18.3-14.05,32.08-41.78,18.3,14Zm26.87,20.64-18.28-14-32.08,41.78,18.3,14,32.06-41.78Zm26.9,20.65h0l-32.09,41.77-18.28-14,32.06-41.77,18.31,14.05ZM2353,777l-18.31-14-32.06,41.77,18.28,14L2353,777Zm26.89,20.64h0l-32.09,41.78-18.3-14.05,32.09-41.78,18.3,14Zm26.89,20.65-18.3-14.05-32.09,41.78,18.3,14.05,32.09-41.78ZM2433.68,839h0l-32.06,41.78-18.31-14,32.09-41.78L2433.68,839Zm26.89,20.65-18.3-14.05-32.07,41.76,18.29,14.07,32.08-41.78Zm26.89,20.64h0L2455.38,922l-18.3-14,32.08-41.78,18.3,14Zm26.9,20.65L2496,886.83,2464,928.61l18.3,14.07,32.09-41.78Zm26.89,20.63h0l-32.09,41.79-18.3-14.06,32.08-41.78,18.31,14Zm26.87,20.66-18.3-14.05-32.07,41.77L2536,984l32.09-41.77ZM2595,962.82h0l-32.09,41.78-18.3-14.05,32.09-41.78,18.3,14.05Zm26.87,20.65-18.28-14.05-32.09,41.78,18.31,14,32.06-41.78Zm26.89,20.64h0l-32.06,41.78-18.3-14.05,32.06-41.78,18.3,14.05Zm26.89,20.64-18.3-14-32.08,41.78,18.3,14,32.08-41.78Zm22.77,81.68q-.46,9.67-1.29,19.45l-29.88,38.9,18.3,14,5.65-7.34q-2.09,11.92-4.73,23.91l-31,40.39,16.67,12.79q-1.76,5.45-3.6,10.88l-19.65-15.09-32.09,41.78,31.74,24.37c-1.49,3.38-3,6.76-4.58,10.13l-33.77-25.91-32.06,41.78,41.37,31.76q-2.67,4.76-5.44,9.47l-42.54-32.64-32.06,41.77,46.07,35.39c-2,3-4.15,5.91-6.26,8.84l-46.42-35.64-32.06,41.78L2547,1472.7c-2.33,2.77-4.66,5.52-7,8.25l-45.73-35.11-32.06,41.78,41.61,32c-2.59,2.57-5.21,5.12-7.83,7.63l-40.39-31L2423.46,1538l32.18,24.72c-2.9,2.35-5.8,4.66-8.73,7l-30.06-23.08-32.09,41.78,17.35,13.3c-3.23,2.1-6.49,4.16-9.74,6.18l-14.19-10.9-25.87,33.68q-10.89,5.64-21.86,10.72l.47-.62-18.3-14-24.71,32.18q-13.15,4.76-26.31,8.69l-14.52-11.15-14.48,18.84c-5.44,1.26-10.86,2.41-16.3,3.45l22.19-28.88-18.31-14-32.08,41.78,6.26,4.8q-12.92,1.8-25.73,2.78l4.29-5.59-18.3-14-16,20.79q-6.75,0-13.44-.26l20.82-27.12-18.3-14-30,39.09q-6.22-.72-12.39-1.66l33.8-44-18.28-14L2060,1677.38c-3.82-.9-7.65-1.87-11.41-2.9l43.68-56.9-18.3-14-48.8,63.55c-3.54-1.27-7.07-2.61-10.56-4l50.77-66.12-18.3-14L1993,1653.34c-3.27-1.64-6.53-3.33-9.75-5.09l55.26-72-18.3-14-56.88,74.08q-4.53-3-9-6.09l57.26-74.58-18.31-14.06L1936,1616.17q-4.17-3.48-8.2-7.09l56.88-74.08-18.3-14-55.25,72q-3.8-4-7.43-8.1l54.09-70.45-18.3-14-50.77,66.12q-3.39-4.52-6.61-9.16l48.8-63.56-18.3-14L1869,1536.56q-3-5.08-5.75-10.28l40.85-53.21-18.3-14-33.8,44c-1.67-3.8-3.26-7.65-4.8-11.53l30-39.09-18.3-14-20.83,27.13q-2-6.42-3.72-12.94l16-20.78-18.3-14-4.29,5.59q-2.37-12.63-4-25.58l6.25,4.8,32.08-41.77-18.3-14-22.18,28.88q-.58-8.27-.87-16.64l14.46-18.84L1820.67,1329q.4-13.74,1.6-27.67l24.71-32.19-18.3-14-.48.62q2.07-11.91,4.71-23.9l25.86-33.68-14.19-10.9q1.67-5.49,3.46-11l17.32,13.31,32.08-41.78-30.06-23.08q2.19-5.12,4.46-10.23l32.19,24.72,32.08-41.78-40.38-31q2.63-4.79,5.35-9.55l41.63,32,32.08-41.78-45.73-35.11q3-4.49,6.15-8.93l46.17,35.45,32.08-41.78L1967,961q3.43-4.2,6.92-8.33l46.09,35.39,32.08-41.79-42.51-32.64q3.84-3.9,7.73-7.71l41.36,31.78,32.09-41.78L2057.06,870q4.29-3.56,8.58-7l31.76,24.37,32.07-41.78-19.65-15.09q4.79-3.19,9.59-6.3l16.66,12.8,31-40.39q10.92-5.64,21.88-10.71l-5.63,7.32,18.31,14,29.85-38.9c6.16-2.21,12.29-4.29,18.47-6.25l-1.06,1.39,18.28,14L2286.81,752c5.44-1.26,10.86-2.41,16.3-3.45l-27.34,35.58,18.3,14,32.09-41.78-12.68-9.73c5-.82,9.91-1.58,14.86-2.23l4.4,3.37,3.31-4.31c4.91-.56,9.84-1,14.73-1.39l-9.45,12.31,18.3,14.05,21.11-27.51c4.5,0,9,.1,13.45.27l-26,33.82,18.3,14.05,35.18-45.79q6.22.71,12.39,1.66l-39,50.73,18.3,14.05,46-59.91q5.73,1.35,11.41,2.9L2422,816.32l18.31,14,53.94-70.27c3.54,1.29,7.06,2.62,10.56,4L2448.88,837l18.28,14,59.24-77.16c3.27,1.64,6.54,3.32,9.76,5.08l-60.41,78.67,18.3,14,62-80.8q4.54,3,9,6.11l-62.41,81.27,18.3,14.07L2583.35,811c2.79,2.31,5.53,4.69,8.2,7.1l-62,80.78,18.3,14,60.39-78.67c2.54,2.66,5,5.38,7.44,8.12l-59.24,77.16,18.28,14.05,55.93-72.84c2.27,3,4.46,6.07,6.63,9.16l-54,70.26,18.31,14.05,48.85-63.6c2,3.4,3.89,6.81,5.75,10.29l-46,59.91,18.31,14,39-50.75q2.49,5.73,4.81,11.56l-35.17,45.78,18.3,14,26-33.83c1.31,4.27,2.56,8.58,3.72,12.93l-21.1,27.5,18.28,14,9.45-12.31q1.35,7.25,2.45,14.58l-3.31,4.32,4.4,3.38c.65,4.94,1.2,9.93,1.67,14.94l-12.66-9.73-32.08,41.78,18.3,14,27.32-35.59c.39,5.51.7,11.06.88,16.64l-19.61,25.55,18.28,14,1.09-1.39Z" transform="translate(-257.12 -477.2)"/><path class="cls-1" d="M2084.6,1718c-58.79-8.1-113.87-29.8-161.32-66.24s-82.64-84-105.65-138.74c-5.56,42.54-14.46,101.44-27.64,164.9-26.06,125.54-91,241.71-84.53,251.84a10.1,10.1,0,0,0,5.89,4.33c11.3,2.93,107.34-89.62,221.08-146.81,57.9-29.12,112.5-52.92,152.17-69.28ZM2570,809.53h0c166.05,127.5,161.78,411.78-9.57,634.94s-444.89,300.7-610.94,173.19-161.78-411.78,9.57-634.94S2403.89,682,2570,809.53Zm26.15-34.07c184.89,141.94,184.16,453.2-1.65,695.18C2490.23,1606.4,2349.88,1691.5,2214.11,1715c-241.89,95.65-398,172.58-461.79,251.74-64.69,80.33-360,464.6-370.06,480.79s-24.11,53.74-37.93,64.29c-21.46,16.39-112.76-53.72-102.48-78.68,6.63-16.08,39.27-39.39,52.33-53.25s308-398.41,368.93-481.65c60-82,94-252.74,124-511.13-12.36-137.24,33.62-294.79,137.86-430.55,185.8-242,486.31-323.06,671.17-181.1Z" transform="translate(-257.12 -477.2)"/><path class="cls-1" d="M2677.36,1203c-18.26,87.63-58.85,177.59-121.65,259.37-86.63,112.82-199.21,188.87-311.19,220.62-112.74,32-224.93,19.11-309.86-46.1s-126.31-170.29-124.55-287.45c1.76-116.39,46.16-244.79,132.79-357.61,62.79-81.79,139.23-144.22,219.17-184.51-74,39.88-144.51,99.12-203.05,175.36-171.35,223.16-175.63,507.43-9.57,634.94s439.59,50,610.94-173.19C2618.92,1368.23,2658,1284.86,2677.36,1203Z" transform="translate(-257.12 -477.2)"/><path class="cls-1" d="M1734.73,1988.85c-88.55,112.17-343.17,443.66-352.47,458.68-10,16.19-24.11,53.74-37.93,64.29-21.46,16.39-112.76-53.72-102.48-78.68,6.63-16.08,39.27-39.39,52.33-53.25,12.1-12.85,266.61-344.44,352.1-458.95Z" transform="translate(-257.12 -477.2)"/><path class="cls-1" d="M1352.81,2502.37a43.16,43.16,0,0,1-8.48,9.45,11.25,11.25,0,0,1-4.12,1.92l-.42-.67c-4.61-7.37-8.49-16-11.88-24-4.48-10.57-8.48-21.4-12.26-32.24q-5.43-15.61-10.28-31.43c-2.38-7.67-4.61-15.4-6.61-23.18-1.53-5.94-3-11.91-4.1-17.93-.27-1.38-.52-2.77-.73-4.16l.25-.26c.66-.7,2.08-2.41,4.13-4.93,1.15,2.18,2.11,4.45,3.07,6.73,2.34,5.6,4.59,11.24,6.88,16.86q4.2,10.26,8.47,20.51c4.34,10.37,8.9,20.65,13.53,30.89,4.79,10.61,9.68,21.19,14.31,31.87,2.92,6.72,5.86,13.57,8.24,20.55Zm57-92q-6.84,9.06-12.17,16.16c-3.05-5.71-5.75-11.8-8.2-17.57-4.48-10.57-8.48-21.4-12.25-32.23q-5.43-15.61-10.29-31.43c-2.37-7.68-4.61-15.41-6.61-23.19-1.52-5.94-3-11.9-4.1-17.92-.17-.89-.33-1.77-.48-2.66l4.55-5.88c1,1.92,1.81,3.92,2.65,5.91,2.34,5.6,4.59,11.24,6.89,16.86q4.2,10.27,8.46,20.51c4.35,10.37,8.91,20.65,13.53,30.9,4.79,10.61,9.68,21.19,14.32,31.87,1.24,2.86,2.49,5.75,3.7,8.67Zm61.37-80.61-12.28,16.06c-2.93-5.55-5.53-11.44-7.9-17-4.49-10.56-8.48-21.39-12.26-32.23q-5.43-15.61-10.28-31.43c-2.38-7.68-4.62-15.4-6.61-23.19-1.53-5.93-3-11.9-4.1-17.92-.16-.8-.3-1.6-.44-2.4l4.59-6c.94,1.87,1.75,3.81,2.56,5.75,2.35,5.6,4.6,11.23,6.89,16.85q4.2,10.27,8.47,20.52c4.34,10.37,8.9,20.64,13.53,30.89,4.78,10.61,9.68,21.19,14.31,31.87,1.18,2.72,2.37,5.46,3.52,8.23Zm61.53-80.24-12.31,16c-2.91-5.53-5.5-11.37-7.85-16.92-4.48-10.57-8.48-21.4-12.25-32.24q-5.44-15.61-10.29-31.43c-2.37-7.67-4.61-15.4-6.61-23.18-1.52-5.94-3-11.91-4.1-17.93-.15-.82-.31-1.64-.45-2.46l4.57-6c1,1.89,1.78,3.85,2.6,5.81,2.34,5.6,4.59,11.24,6.89,16.86,2.8,6.84,5.6,13.69,8.46,20.51,4.34,10.37,8.9,20.64,13.53,30.89,4.79,10.61,9.68,21.19,14.32,31.87,1.17,2.7,2.34,5.42,3.49,8.16Zm61.61-80-12.32,16c-2.92-5.55-5.53-11.44-7.9-17-4.48-10.57-8.48-21.4-12.25-32.23q-5.43-15.61-10.28-31.43c-2.38-7.68-4.62-15.41-6.61-23.19-1.53-5.94-3-11.9-4.11-17.92-.17-.93-.34-1.86-.5-2.79l4.5-5.91c1,2,1.87,4,2.72,6.07,2.35,5.6,4.6,11.24,6.89,16.86q4.2,10.27,8.47,20.51c4.34,10.37,8.9,20.65,13.52,30.9,4.79,10.61,9.69,21.19,14.32,31.87,1.19,2.74,2.39,5.51,3.55,8.31Zm112.89-145.57c-2.25-1.76-4.51-3.45-6.72-5.09-8.26-6.12-16.77-12-25.25-17.77-8.24-5.65-16.51-11.28-24.71-17-5.43-3.78-10.86-7.55-16.32-11.26-4.51-3.06-9-6.13-13.62-9-1.48-.94-3-1.86-4.49-2.68l-3.4,4.5c1.18,1.42,2.46,2.75,3.75,4.08,3.81,3.91,7.77,7.66,11.76,11.38,5.21,4.86,10.52,9.6,15.88,14.29,7.32,6.4,14.65,12.78,22.07,19.06,7.69,6.51,15.48,13,23.51,19,2.07,1.56,4.22,3.16,6.42,4.73q5.73-7.37,11.12-14.25Zm25.38-32.36h0c-3.49,4.43-7.19,9.13-11.13,14.16-6.93-5.47-13.71-11.13-20.45-16.8q-13.63-11.46-27.12-23.08-10.74-9.19-21.32-18.57c-5.21-4.63-10.4-9.28-15.5-14l4.56-6.08c5.63,3.86,11.2,7.8,16.77,11.74q10.78,7.62,21.52,15.34c10,7.15,20,14.21,30.09,21.27,7.55,5.3,15.13,10.61,22.58,16Zm-76.56,98.13-12.31,15.9c-3-5.64-5.65-11.63-8.06-17.32-4.48-10.57-8.48-21.39-12.25-32.23q-5.45-15.62-10.29-31.43c-2.37-7.68-4.61-15.4-6.61-23.19-1.52-5.93-3-11.9-4.1-17.92-.22-1.15-.43-2.31-.62-3.47l4.34-5.74c1.13,2.13,2.06,4.36,3,6.59,2.34,5.6,4.59,11.23,6.89,16.85q4.18,10.27,8.46,20.52c4.34,10.37,8.9,20.64,13.53,30.89,4.79,10.61,9.68,21.19,14.31,31.87,1.25,2.87,2.5,5.76,3.71,8.68Z" transform="translate(-257.12 -477.2)"/><path class="cls-1" d="M2235,729.75q8.31-2.7,16.61-5.11c.83,5,1.59,10,2.22,15q1.84,13.93,2.79,27.92c-5.63,1.71-11.25,3.6-16.88,5.54q-.92-15.65-2.94-31.21-.83-6.07-1.8-12.13Zm-42.56,15.85c5.48-2.31,11-4.48,16.45-6.58.32,2.15.63,4.27.9,6.4q2.47,18.84,3.16,37.81c-5.66,2.35-11.34,4.79-17,7.36a392.1,392.1,0,0,0-3.23-42.92c-.08-.7-.18-1.39-.29-2.07ZM2150,765.46q8.19-4.23,16.44-8.16a356.11,356.11,0,0,1,2.27,46.54q-8.78,4.57-17.48,9.51a341.65,341.65,0,0,0-1.23-47.89ZM2107,790c5.59-3.48,11.17-6.85,16.79-10.12a313.48,313.48,0,0,1-1.14,50.79q-9.57,6.17-19,12.76A295.58,295.58,0,0,0,2107,790Zm-45.35,31q9-6.69,18.05-13a267.78,267.78,0,0,1-9.08,60.29c-8.44,6.79-16.81,13.83-25,21.15a251.66,251.66,0,0,0,16.06-68.43ZM1888,1009.35q8.49-13.36,17.7-26.52a208.74,208.74,0,0,0,100.86-115.9q11.76-10.89,23.83-21.1A225.63,225.63,0,0,1,1888,1009.35Zm-31.2,54.21q5.12-9.88,10.61-19.71a252.66,252.66,0,0,0,66-25.48q-9.26,13.78-17.74,27.8a270.61,270.61,0,0,1-58.91,17.39Zm-22.36,47.55q3.82-9,7.95-18c2.17-.23,4.33-.49,6.5-.77a300,300,0,0,0,46.5-9.93q-5.36,10.27-10.3,20.61a314.26,314.26,0,0,1-34,6.37q-8.33,1.1-16.69,1.74Zm-17.29,45.31q3-8.7,6.19-17.39,15.72-.62,31.33-2.66,8.4-1.11,16.74-2.62-3.84,9.32-7.35,18.66-3.57.54-7.15,1a359.4,359.4,0,0,1-39.76,3Zm-13.31,44.46q2.23-8.57,4.72-17.16a387.38,387.38,0,0,0,45.45-2.51c-1.9,6-3.68,11.92-5.38,17.87a405.59,405.59,0,0,1-44.79,1.8Zm-9.73,44.21q1.54-8.55,3.36-17.11a431.75,431.75,0,0,0,43.92-1q-2,8.76-3.75,17.5-21.7,1.34-43.53.58Zm611,396.65q-7.64,4.63-15.36,9a400.63,400.63,0,0,1-9.81-43.73q8-4.77,15.87-9.82a390,390,0,0,0,9.3,44.56Zm39.37-25.81q-7.55,5.35-15.22,10.46a364.76,364.76,0,0,1-7.36-39.18c-.33-2.39-.59-4.78-.88-7.17q8.13-5.8,16.16-11.92.68,8.45,1.78,16.85,2.05,15.58,5.52,31Zm39.47-30.27q-7.65,6.3-15.36,12.34-1.53-8.25-2.64-16.58a319.88,319.88,0,0,1-2.62-34.45q8.74-7.44,17.26-15.27a302.44,302.44,0,0,0,2.41,47.48c.29,2.17.6,4.33.95,6.48Zm41.1-36.89q-8.07,7.85-16.3,15.34a270.28,270.28,0,0,1,1.58-61.4q11.34-11.79,22.29-24.32a252.27,252.27,0,0,0-7.57,70.38Zm149.22-208.58q-6.75,14.3-14.23,28.47A208.81,208.81,0,0,0,2574.05,1496q-10.34,12.29-21,24a225.48,225.48,0,0,1,121.2-179.79Zm23.87-57.49q-3.78,10.42-7.92,20.82a251.13,251.13,0,0,0-62,33.18c5-9.84,9.59-19.73,14-29.65a269.21,269.21,0,0,1,55.89-24.35Zm15.74-49.84q-2.54,9.42-5.42,18.83a297.88,297.88,0,0,0-50.77,17q4-10.82,7.42-21.64a316.58,316.58,0,0,1,48.77-14.23Zm10.78-47q-1.68,9-3.66,18a341.41,341.41,0,0,0-46.56,11.19q2.51-9.71,4.66-19.36a359.22,359.22,0,0,1,45.56-9.82Zm6.71-45.7c-.64,5.85-1.31,11.71-2.11,17.59l-2.08.26a387.37,387.37,0,0,0-42.29,8q1.53-9.18,2.72-18.32,18.49-4.23,37.34-6.7c2.12-.28,4.27-.54,6.42-.79Zm-39.9-38.75c9.18-1.79,18.43-3.3,27.69-4.52,5-.66,10-1.22,15.05-1.71-.1,5.76-.33,11.55-.63,17.36q-6.11.62-12.17,1.41c-10.37,1.36-20.7,3.1-30.92,5.21.43-5.94.78-11.86,1-17.75Zm-935,506.79q1.48-8.64,2.94-17.5,21.66,9.66,43.27,21.19-1.53,8.77-3.18,17.81-21.47-11.71-43-21.5Zm-7.42,40.88q1.65-8.62,3.28-17.51,21.27,10.37,42.56,22.58-1.72,8.83-3.56,17.81-21.12-12.39-42.28-22.88Zm-8.37,41q20.4,11,40.89,23.84,2.3-8.7,4.4-17.5-20.8-12.83-41.59-23.83-1.83,8.88-3.7,17.49ZM1731,1731q2.15-8.54,4.23-17.41,19.65,11.31,39.46,24.27-2.58,8.66-5.29,17.11-19.25-12.77-38.4-24Zm181.07,118.37q-16-16.06-33.63-31.85-7.7,4.73-15.17,9.53,17.31,15.3,33.07,30.91,7.7-4.28,15.73-8.59Zm37.3-19.31q-8.12,4.07-15.94,8.09-15.92-16.86-33.59-33.34,7.82-4.47,15.77-8.78,17.76,16.79,33.76,34Zm37.56-18.27q-15.5-17.86-32.8-35.28-8.09,3.95-16.28,8,17.42,17.2,33,34.94,7.9-3.82,16.06-7.69Zm37.66-17.4q-8.17,3.7-16.14,7.37-15-18.27-31.89-36,8.29-3.92,16.39-7.67,16.71,17.89,31.64,36.33Zm324.91-122.84q-6.37-20.85-10.7-42.21,8-3.93,15.93-8.14,4.16,21.57,10.41,42.69-7.79,4-15.64,7.66Z" transform="translate(-257.12 -477.2)"/><path class="cls-1" d="M2151.27,813c3.6-1.91,7.2-3.79,10.8-5.61-3.62,2-7.22,3.95-10.82,6l0-.38Zm-47.22,28c6.22-4.07,12.47-8,18.77-11.84l-.14,1.53q-9.57,6.17-19,12.76c.12-.81.25-1.63.37-2.45Zm-55.77,41.25q11.66-9.63,23.58-18.59c-.39,1.53-.8,3.07-1.21,4.58-6.7,5.4-13.37,11-19.93,16.71l-2.19,1.9-.33.29-2.58,2.29c.92-2.38,1.82-4.77,2.66-7.18Zm-146.52,169.43q7.86-12.78,16.37-25.39,7.77-3.66,15.3-7.86l-2.1,3.14c-1.43,2.16-2.86,4.33-4.26,6.5s-2.74,4.24-4.08,6.36c-.63,1-1.25,2-1.87,3q-2.76,4.41-5.43,8.83-6.9,2.92-13.93,5.45Zm-30,54.33q4.92-10,10.23-19.92c4.47-1.11,8.93-2.32,13.35-3.64l0,0q-1.68,3.22-3.32,6.46c-.63,1.23-1.25,2.47-1.87,3.71q-2.14,4.29-4.22,8.6l-.85,1.78v0q-6.61,1.62-13.28,3Zm-21.37,48.27q3.61-9.17,7.54-18.3,6.74-1,13.43-2.17v0c-.58,1.4-1.15,2.81-1.72,4.21-.76,1.89-1.52,3.79-2.26,5.69-1.07,2.71-2.11,5.43-3.14,8.15l-.11.29-.11.29q-3.57.54-7.15,1-3.23.42-6.47.79Zm-16.07,46q2.7-8.82,5.68-17.64,7-.54,14-1.34v0q-1.39,4.38-2.72,8.76-.81,2.73-1.6,5.44l-.09.28-.88,3.07-.08.28c-4.74.45-9.5.83-14.26,1.11Zm-11.81,45q1.9-8.67,4.1-17.36,7.38-.28,14.73-.82v0q-.9,3.88-1.74,7.75-.56,2.58-1.08,5.16c-.32,1.52-.62,3-.92,4.56h0q-7.53.46-15.08.68Zm535.21,390.46c-5.19,2.9-10.45,5.72-15.68,8.44q-1.76-7.35-3.26-14.75h0l4.18-2.08c1.57-.78,3.15-1.57,4.7-2.38,2.35-1.2,4.7-2.43,7-3.68q1.43,7.24,3,14.45Zm40.31-24.64c-5.18,3.45-10.35,6.8-15.59,10-.94-4.67-1.82-9.36-2.59-14.06l3.23-1.94c1.59-1,3.21-2,4.8-3,2.62-1.62,5.24-3.25,7.82-4.92h0c.67,4.63,1.45,9.24,2.31,13.83Zm40.43-29.35q-7.83,6.15-15.75,12c-.33-2.15-.61-4.31-.9-6.46-.33-2.39-.59-4.78-.88-7.17l.27-.18.24-.18q3.6-2.58,7.18-5.21,2.37-1.74,4.72-3.53l3.75-2.82c.34,4.52.81,9,1.37,13.54Zm42-36.13q-8.19,7.7-16.58,15c-.29-4.52-.5-9-.6-13.59l1.56-1.33c2.41-2.06,4.78-4.14,7.15-6.24l3.13-2.79,5.4-4.89,0,0q-.18,6.91-.08,13.83Zm48.47-50.33q-10,11.49-20.31,22.37.61-7.44,1.66-14.86,3.61-3.74,7.13-7.54c.8-.84,1.6-1.69,2.38-2.54q2.56-2.79,5.11-5.61c1.74-1.91,3.45-3.84,5.15-5.78.86-.94,1.68-1.9,2.52-2.85q-2.11,8.37-3.64,16.81Zm117.42-190.5q-5.58,13.82-11.88,27.57c-2.11,1.44-4.19,2.92-6.26,4.43l1.6-3.17,0-.06,0,0,0-.11,1.41-2.84c3.8-7.79,7.46-15.62,10.92-23.46,1.37-.8,2.74-1.57,4.13-2.34Zm20.14-58.15q-3.06,10.59-6.58,21.2l-2.27,1q4-10.82,7.42-21.64l1.43-.54Zm10.88-43.51c-.84,4-1.7,7.91-2.62,11.87l-.36.11c1-4,2-8,3-12Z" transform="translate(-257.12 -477.2)"/><path class="cls-1" d="M2001.84,1687.08a318.92,318.92,0,0,1-133-102.11,344.2,344.2,0,0,1-43.32-75.31,8.59,8.59,0,0,0-16.42,2.23c-2.76,21.14-6.36,46.39-10.93,74.33s-10,58.38-16.6,89.93c-15.71,75.68-45.88,148.3-65.56,195.69-13.71,33-22.75,54.77-17.77,62.54a18.93,18.93,0,0,0,4.69,5,18.3,18.3,0,0,0,6.26,3,8.62,8.62,0,0,0,5.14-.27c9.7-2.53,26-15,48.69-32.5,40.68-31.27,103.75-79.74,173.24-114.68,28.79-14.48,56.81-27.66,82.59-39.26s49.29-21.62,69-29.75a8.59,8.59,0,0,0-2.39-16.48,343.94,343.94,0,0,1-83.64-22.36Zm52.58,34.26h0c-13.25,5.65-27.55,11.9-42.59,18.67-25.91,11.66-54.14,24.94-83.26,39.58-71,35.68-134.83,84.77-176,116.45-23,17.67-38.27,29.41-39,29.73h0a1.21,1.21,0,0,1-.38-.18,1.87,1.87,0,0,1-.45-.48c-.09-.14,7.58-18.63,19.23-46.67,19.92-48,50.43-121.42,66.5-198.78,6.62-31.92,12.16-62.62,16.74-90.67,2.66-16.27,5-31.7,7-46a354.41,354.41,0,0,0,33,52.37A336,336,0,0,0,1995.3,1703a354.39,354.39,0,0,0,59.12,18.35ZM2683.13,1091h0c-1.72,113.12-45,238.14-129.57,348.24s-194.13,184.23-303,215.09c-108,30.6-215.12,18.53-295.88-43.48s-120.1-162.43-118.41-274.63c1.71-113.13,45-238.15,129.56-348.25s194.14-184.22,303-215.08c108-30.61,215.14-18.54,295.89,43.48S2684.81,978.78,2683.13,1091ZM2575.19,802.7h0c85.3,65.5,126.86,171,125.08,288.58-1.76,116.67-46.24,245.37-133.05,358.43S2367.55,1639,2255.3,1670.81c-113.15,32.08-225.79,19.17-311.09-46.33s-126.85-171-125.08-288.56c1.76-116.68,46.25-245.37,133.06-358.44s199.65-189.28,311.92-221.1c113.15-32.07,225.79-19.16,311.08,46.32Zm150.52,282.81h0c-.29,124-46.34,260.42-138.06,379.89C2537.1,1531.23,2478,1585,2415.19,1625.34c-65.17,41.87-134.45,69.41-202.55,81.2a8.5,8.5,0,0,0-2.11.65c-121,47.86-220.65,91.08-298.13,132.29-78.26,41.62-134.11,81.35-166.77,121.91-31.07,38.57-115.38,147.32-195.75,251.73C1462.8,2326.26,1380.3,2434.4,1375,2443c-3.49,5.65-7.36,13.55-11.51,22.05-7.77,15.89-16.67,34.09-24.37,40-2.64,2-9.51.5-18.29-3.12-10.63-4.38-22.92-11.93-34.38-20.73s-21.93-18.72-28.91-27.86c-5.76-7.55-9-13.79-7.73-16.86,3.69-9,19-22.26,32.32-33.87,7.14-6.21,13.77-12,18.33-16.81,6.93-7.37,90.11-115,176.93-228.35,80.12-104.6,163.39-214.12,192.64-254.09,30.74-42,54.7-106.24,74.71-192.59,19.83-85.59,35.87-193.16,50.87-322.63a8.56,8.56,0,0,0,0-1.75h0c-6.2-68.83,2.52-142.88,26.14-216.66,22.78-71.13,59.44-142.06,110-207.89,91.73-119.47,211.63-199.18,331.35-231.49,118.91-32.09,237.56-17.3,327.77,52S2726,962.35,2725.71,1085.51ZM2601.37,768.63c94.66,72.7,141.82,188.49,141.51,316.93-.3,127.62-47.52,267.81-141.59,390.32-51.72,67.33-112.27,122.4-176.81,163.87-66.91,43-138.08,71.32-208.08,83.56-120.29,47.59-219.24,90.5-296,131.32-76.23,40.54-130.32,78.85-161.41,117.46s-115.29,147.2-195.55,251.47c-86.75,112.72-168.83,220.27-173.92,228.5-3.13,5.05-6.78,12.51-10.71,20.54-8.61,17.62-18.47,37.79-29.28,46-8.18,6.25-21,5-35.34-.88-12.06-5-25.73-13.31-38.27-23s-24.14-20.68-32.06-31c-9.4-12.31-13.89-24.41-10-33.93,5.18-12.57,22.11-27.3,36.91-40.17,6.75-5.87,13-11.32,17.09-15.64,6.63-7.05,89.36-114.13,175.85-227.05,80-104.45,163.18-213.85,192.44-253.83s52.32-102.16,71.8-186.27c19.62-84.66,35.53-191.34,50.44-319.85-6.25-70.78,2.75-146.84,27-222.58,23.4-73.07,61-145.8,112.66-213.14,94.07-122.5,217.31-204.32,340.52-237.57,124-33.45,248.06-17.81,342.74,54.89Z" transform="translate(-257.12 -477.2)"/><path class="cls-1" d="M1714.6,2000.57l6.12-7.78-74.62-57.29-5.94,7.91-7.66,10.18,74.25,57,7.85-10Zm-358,495.94a69.21,69.21,0,0,1-9.92,13.25c-4.6-8.87-8.73-18.2-12.61-27.3q-9.31-21.87-18.14-44c-6.65-16.7-12.72-33.72-17.82-51-.9-3-1.79-6.09-2.64-9.16,1.76-2.09,4.82-5.87,9-11.21,2,5.36,4.07,10.74,6.14,16.09,6.42,16.63,13,33.18,19.54,49.77q8.58,21.78,17.86,43.28c2.88,6.67,5.79,13.41,8.54,20.2Zm57.52-91.89q-5.67,7.5-10.45,13.84c-2.63-5.61-5.11-11.29-7.49-16.89q-9.32-21.87-18.14-44c-6.65-16.7-12.72-33.72-17.82-51-.78-2.65-1.56-5.32-2.32-8q4.41-5.68,9-11.64c2,5.12,3.89,10.25,5.87,15.36,6.42,16.63,13,33.18,19.54,49.77q8.58,21.78,17.86,43.28,2,4.57,4,9.2Zm61.94-81.28-10.51,13.74c-2.54-5.45-5-11-7.26-16.4q-9.32-21.87-18.14-44c-6.65-16.7-12.72-33.72-17.82-51-.76-2.58-1.52-5.17-2.25-7.78l9-11.71c1.94,5.07,3.85,10.15,5.81,15.21,6.42,16.63,13,33.18,19.54,49.77q8.58,21.78,17.86,43.28c1.26,2.92,2.53,5.86,3.78,8.81Zm62.09-80.94-10.53,13.7c-2.53-5.42-4.92-10.9-7.22-16.31q-9.32-21.87-18.14-44c-6.65-16.7-12.72-33.72-17.82-51q-1.15-3.9-2.27-7.85l9-11.73c1.95,5.1,3.87,10.21,5.84,15.3,6.42,16.63,13,33.18,19.54,49.77q8.58,21.78,17.86,43.28,1.88,4.35,3.76,8.76Zm62.19-80.73-10.55,13.67c-2.55-5.46-5-11-7.28-16.44q-9.32-21.87-18.14-44c-6.65-16.7-12.72-33.72-17.82-51-.8-2.7-1.59-5.43-2.36-8.16l8.94-11.74c2,5.2,4,10.42,6,15.62,6.42,16.63,13,33.18,19.54,49.77q8.58,21.78,17.86,43.28l3.84,8.92Zm62.28-80.48h0l-10.56,13.61c-2.61-5.58-5.07-11.23-7.44-16.79q-9.32-21.87-18.14-44c-6.65-16.7-12.72-33.72-17.82-51-.86-2.91-1.72-5.85-2.54-8.8l8.88-11.75c2.07,5.42,4.12,10.86,6.21,16.27,6.42,16.63,13,33.18,19.54,49.77q8.58,21.78,17.85,43.28c1.34,3.09,2.69,6.2,4,9.33Zm76.46-84q-5.25,6.66-11,14-6.22,7.92-13.12,16.75a8.57,8.57,0,0,1-12,1.52l0,0-87.72-67.35a8.61,8.61,0,0,1-1.59-12.07c.14-.18.29-.36.44-.53q6.49-8.6,12.34-16.39t11.12-14.83a8.57,8.57,0,0,1,12-1.72l.08.06,0,0,88.38,67.86a8.59,8.59,0,0,1,1.58,12.06c-.18.24-.37.46-.56.67Z" transform="translate(-257.12 -477.2)"/><path class="cls-1" d="M1111,1381.42l18.29-14.05,32.08,41.78-18.3,14L1111,1381.42Zm-26.89,20.64h0l32.08,41.78,18.3-14L1102.45,1388l-18.3,14Zm-26.88,20.65,18.29-14,32.08,41.78-18.3,14-32.07-41.77Zm-26.89,20.64h0l32.08,41.78,18.3-14.05-32.08-41.78-18.3,14ZM1003.5,1464l18.29-14,32.08,41.78-18.3,14L1003.5,1464Zm-26.89,20.65h0l32.08,41.77,18.3-14.05-32.08-41.77-18.3,14.05Zm-26.89,20.65,18.3-14.06L1000.1,1533l-18.3,14-32.08-41.77Zm-26.89,20.64h0l32.08,41.78,18.3-14-32.08-41.78-18.3,14ZM896,1546.57l18.29-14,32.08,41.78-18.3,14L896,1546.57Zm-26.89,20.64h0L901.14,1609l18.3-14-32.08-41.77-18.3,14Zm-26.88,20.65,18.29-14,32.08,41.78-18.29,14.05-32.08-41.78Zm-26.89,20.64h0l32.08,41.78,18.3-14-32.08-41.78-18.3,14Zm-26.88,20.64,18.29-14.05,32.08,41.78-18.3,14.05-32.07-41.78Zm337.72-339.37,18.3-14,32.08,41.78-18.3,14-32.08-41.78Zm-26.88,20.64h0l32.08,41.78,18.29-14-32.07-41.78-18.3,14.05Zm-26.89,20.64h0l32.08,41.78,18.3-14L1090.66,1317l-18.3,14Zm-26.88,20.65,18.3-14,32.07,41.78-18.29,14-32.08-41.78Zm-26.89,20.64h0l32.08,41.78,18.3-14-32.08-41.78-18.3,14ZM991.71,1393l18.3-14,32.07,41.78-18.29,14L991.71,1393Zm-26.89,20.65h0l32.08,41.78,18.3-14.05-32.08-41.78-18.3,14.05Zm-26.88,20.64,18.3-14L988.32,1462l-18.3,14-32.08-41.78ZM911,1454.92h0l32.08,41.78,18.31-14.06-32.08-41.78L911,1454.92Zm-26.88,20.64,18.3-14,32.08,41.78-18.3,14-32.08-41.78Zm-26.89,20.65h0L889.35,1538l18.3-14-32.08-41.78-18.3,14Zm-26.88,20.64,18.3-14,32.07,41.78-18.29,14.05-32.08-41.78Zm-26.89,20.64h0l32.08,41.78,18.3-14-32.08-41.78-18.3,14Zm-26.88,20.65,18.3-14.05L827,1585.86l-18.29,14.05-32.08-41.77Zm-26.89,20.64h0l32.08,41.78,18.3-14L768,1564.73l-18.3,14Zm-26.88,20.64,18.3-14.05,32.08,41.78-18.3,14-32.08-41.78ZM696,1620.06h0L728,1661.84l18.3-14L714.26,1606l-18.29,14Zm418.38-401.3,18.29-14,32.08,41.78-18.3,14-32.07-41.78Zm-26.89,20.64h0l32.08,41.78,18.3-14-32.08-41.78-18.3,14.05Zm-26.88,20.65,18.29-14,32.08,41.77-18.3,14-32.07-41.77Zm-26.89,20.64,18.3-14,32.08,41.78-18.3,14-32.08-41.78Zm-26.88,20.64h0l32.07,41.78,18.3-14-32.08-41.78-18.29,14ZM979.92,1322l18.3-14,32.08,41.77-18.3,14L979.92,1322ZM953,1342.62h0l32.07,41.78,18.3-14.05-32.08-41.78-18.29,14Zm-26.89,20.64,18.3-14L976.53,1391l-18.3,14-32.08-41.78Zm-26.88,20.64h0l32.08,41.78,18.29-14-32.08-41.78-18.29,14.05Zm-26.9,20.65,18.31-14,32.08,41.78-18.31,14-32.08-41.78Zm-26.88,20.65h0L877.57,1467l18.29-14-32.08-41.78-18.29,14Zm-26.89,20.64,18.3-14L869,1473.57l-18.3,14-32.08-41.78Zm-26.88,20.64h0l32.08,41.78,18.29-14L810,1452.43l-18.29,14Zm-26.89,20.65,18.3-14.05,32.08,41.78-18.3,14-32.08-41.77ZM738,1507.77h0L770,1549.55l18.29-14-32.07-41.78-18.3,14Zm-26.89,20.64,18.3-14.05,32.08,41.78-18.3,14-32.08-41.78Zm-26.88,20.65h0l32.08,41.77,18.29-14L702.47,1535l-18.29,14Zm-26.89,20.64,18.3-14,32.08,41.78-18.3,14-32.08-41.78Zm-26.88,20.64h0l32.08,41.78,18.29-14-32.08-41.78-18.29,14Zm445.26-421.95h0l32.08,41.78,18.3-14.05L1094,1154.34l-18.3,14.05ZM1048.79,1189l18.3-14,32.07,41.78-18.29,14L1048.79,1189Zm-26.89,20.64h0l32.08,41.78,18.3-14-32.08-41.78-18.3,14ZM995,1230.32h0l32.08,41.78,18.29-14-32.07-41.78-18.3,14ZM968.14,1251l18.29-14,32.08,41.78-18.3,14L968.14,1251Zm-26.89,20.64h0l32.08,41.78,18.29-14.05-32.07-41.78-18.3,14Zm-26.89,20.64,18.3-14L964.74,1320l-18.3,14-32.08-41.78Zm-26.88,20.64h0l32.08,41.78,18.29-14.05-32.07-41.77-18.3,14Zm-26.89,20.65,18.3-14L911,1361.27l-18.3,14-32.08-41.78Zm-26.89,20.65h0L865.78,1396l18.31-14.06L852,1340.13l-18.31,14.06Zm-26.89,20.64,18.3-14,32.08,41.78-18.3,14-32.08-41.78Zm-26.88,20.64h0L812,1437.25l18.29-14-32.07-41.77-18.3,14Zm-26.88,20.65,18.29-14,32.08,41.78-18.3,14.05-32.07-41.78Zm-26.89,20.64h0l32.08,41.78,18.3-14-32.08-41.78-18.3,14Zm-26.89,20.64,18.3-14.05,32.08,41.78-18.3,14-32.08-41.78Zm-26.88,20.65h0l32.08,41.77,18.29-14L690.69,1464l-18.3,14Zm-26.88,20.64,18.29-14,32.08,41.78-18.3,14-32.07-41.78Zm-26.89,20.64h0l32.08,41.78,18.3-14-32.08-41.78-18.3,14ZM591.74,1540l18.29-14,32.08,41.77-18.3,14L591.74,1540ZM1037,1118l18.3-14,32.08,41.78-18.3,14L1037,1118Zm-26.88,20.64h0l32.08,41.78,18.29-14-32.08-41.78-18.29,14.05Zm-26.89,20.64,18.3-14,32.08,41.78-18.3,14-32.08-41.78ZM956.35,1180l18.29-14,32.08,41.78-18.29,14L956.35,1180Zm-26.89,20.64h0l32.08,41.78,18.3-14.05-32.08-41.78-18.3,14Zm-26.88,20.64,18.29-14L953,1249l-18.3,14-32.07-41.78Zm-26.89,20.65h0l32.08,41.77,18.3-14.05L894,1227.84l-18.3,14.05Zm-26.88,20.64,18.29-14,32.08,41.78-18.29,14-32.08-41.78Zm-26.89,20.64h0L854,1325l18.3-14-32.08-41.78-18.3,14.05ZM795,1303.82l18.3-14,32.08,41.77-18.3,14.06L795,1303.82Zm-26.89,20.65h0l32.08,41.77,18.3-14-32.08-41.77-18.3,14Zm-26.88,20.64,18.29-14,32.08,41.78-18.29,14.05-32.08-41.78Zm-26.89,20.64h0l32.08,41.78,18.3-14-32.08-41.78-18.3,14Zm-26.88,20.64,18.3-14,32.08,41.77-18.3,14.05-32.08-41.78ZM660.6,1407h0l32.08,41.78,18.3-14L678.9,1393l-18.3,14Zm-26.88,20.64,18.29-14,32.08,41.78-18.29,14-32.08-41.78Zm-26.89,20.64h0l32.08,41.78,18.3-14-32.08-41.78-18.3,14ZM580,1469l18.3-14,32.08,41.78-18.3,14L580,1469Zm-26.89,20.64h0l32.08,41.78,18.3-14.05-32.08-41.78-18.3,14Zm445.27-421.95h0l32.08,41.78,18.29-14-32.07-41.78-18.3,14.05Zm-26.89,20.64,18.3-14,32.08,41.77-18.3,14-32.08-41.78ZM944.56,1109h0l32.08,41.78,18.29-14-32.07-41.78-18.3,14Zm-26.88,20.64h0l32.07,41.78,18.3-14L936,1115.54l-18.29,14Zm-26.89,20.64,18.3-14L941.17,1178l-18.3,14-32.08-41.78Zm-26.89,20.65h0L896,1212.66l18.3-14.05-32.08-41.78-18.3,14.05ZM837,1191.52l18.3-14,32.07,41.78-18.29,14L837,1191.52Zm-26.89,20.64h0l32.08,41.78,18.3-14-32.08-41.78-18.3,14.05Zm-26.88,20.65,18.3-14,32.08,41.78-18.3,14-32.08-41.77Zm-26.9,20.65h0l32.08,41.77,18.31-14-32.08-41.78-18.31,14.06Zm-26.88,20.64,18.3-14,32.08,41.78-18.3,14.05-32.08-41.78Zm-26.88,20.64h0l32.07,41.78,18.3-14-32.08-41.78-18.29,14Zm-26.89,20.65,18.3-14.05,32.08,41.77-18.3,14.05-32.08-41.77ZM648.82,1336h0l32.07,41.78,18.3-14L667.11,1322l-18.29,14Zm-26.89,20.64,18.3-14.05,32.08,41.78-18.3,14-32.08-41.78Zm-26.88,20.64h0l32.07,41.78,18.3-14-32.08-41.77-18.29,14ZM568.16,1398l18.3-14,32.08,41.78-18.3,14L568.16,1398Zm-26.88,20.64h0l32.07,41.78,18.3-14.05-32.08-41.78-18.29,14Zm-26.89,20.64,18.3-14L564.77,1467l-18.3,14-32.08-41.78ZM959.66,1017.3l18.3-14L1010,1045l-18.29,14-32.08-41.77Zm-26.89,20.64h0l32.08,41.78,18.3-14-32.08-41.78-18.3,14.05Zm-26.88,20.64,18.29-14,32.08,41.78-18.29,14-32.08-41.78ZM879,1079.23l18.3-14L929.38,1107l-18.3,14L879,1079.23Zm-26.88,20.64h0l32.08,41.78,18.29-14.05-32.08-41.78-18.29,14Zm-26.89,20.64,18.3-14,32.08,41.78-18.3,14-32.08-41.78Zm-26.88,20.64h0l32.08,41.78,18.29-14-32.08-41.77-18.29,14Zm-26.89,20.65,18.3-14,32.08,41.78-18.3,14-32.08-41.78Zm-26.88,20.64h0l32.08,41.78,18.29-14-32.08-41.78-18.29,14Zm-26.9,20.65L736,1189l32.08,41.78-18.31,14.06-32.08-41.78Zm-26.88,20.64h0l32.08,41.78,18.29-14-32.08-41.78-18.29,14Zm-26.89,20.65,18.3-14.05,32.08,41.78L696,1286.16l-32.08-41.78ZM637,1265h0l32.08,41.78,18.3-14L655.33,1251,637,1265Zm-26.89,20.64,18.3-14.05,32.08,41.78-18.3,14-32.08-41.78Zm-26.88,20.65h0l32.08,41.77,18.29-14-32.07-41.77-18.3,14ZM556.37,1327l18.3-14,32.08,41.78-18.3,14L556.37,1327Zm-26.88,20.64h0l32.08,41.78,18.3-14-32.08-41.78-18.3,14Zm-26.89,20.65,18.3-14L553,1396l-18.3,14-32.08-41.77Zm-26.88,20.64h0l32.08,41.78,18.29-14.05L494,1374.83l-18.29,14.05ZM921,966.93h0l32.08,41.78,18.3-14.05-32.08-41.78-18.3,14ZM894.1,987.57l18.3-14.05,32.07,41.78-18.29,14L894.1,987.57Zm-26.88,20.65h0L899.29,1050l18.3-14-32.08-41.78-18.29,14.05Zm-26.89,20.64h0l32.08,41.78,18.3-14.05-32.08-41.78-18.3,14Zm-26.89,20.64,18.3-14,32.08,41.78-18.3,14-32.08-41.78Zm-26.88,20.65h0l32.08,41.77,18.29-14.05-32.07-41.77-18.3,14.05Zm-26.88,20.64,18.29-14,32.08,41.78-18.3,14-32.07-41.78Zm-26.89,20.64h0l32.08,41.78,18.3-14-32.08-41.78-18.3,14Zm-26.88,20.64,18.29-14,32.08,41.77-18.3,14-32.07-41.78ZM679,1152.72h0l32.08,41.78,18.3-14-32.07-41.78-18.31,14Zm-26.89,20.65,18.3-14,32.08,41.78-18.3,14.05-32.08-41.78ZM625.24,1194h0l32.08,41.78,18.3-14L643.54,1180l-18.3,14Zm-26.88,20.64,18.29-14.05,32.08,41.78-18.3,14-32.07-41.78Zm-26.89,20.65h0l32.08,41.78,18.3-14-32.08-41.78-18.3,14Zm-26.88,20.64,18.29-14L595,1283.67l-18.3,14-32.07-41.78Zm-26.89,20.64h0l32.08,41.78,18.3-14L536,1262.53l-18.3,14Zm-26.88,20.65,18.29-14L541.19,1325l-18.3,14-32.07-41.77Zm-26.89,20.64h0L496,1359.65l18.3-14.05-32.08-41.78-18.3,14Zm-26.88,20.64,18.29-14,32.08,41.78-18.3,14-32.07-41.78ZM882.31,916.56l18.3-14,32.08,41.77-18.3,14.05-32.08-41.78ZM855.43,937.2h0L887.51,979l18.29-14-32.08-41.79L855.43,937.2Zm-26.89,20.65,18.3-14.05,32.08,41.78-18.3,14-32.08-41.78Zm-26.88,20.64,18.29-14L852,1006.22l-18.29,14-32.08-41.78Zm-26.89,20.65h0l32.08,41.77,18.3-14-32.08-41.78-18.3,14Zm-26.88,20.64,18.29-14,32.08,41.78-18.29,14-32.08-41.78ZM721,1040.42h0l32.08,41.78,18.3-14-32.08-41.78L721,1040.42Zm-26.88,20.65,18.29-14,32.08,41.78-18.29,14-32.08-41.77Zm-26.89,20.64h0l32.08,41.78,18.3-14-32.08-41.78-18.3,14Zm-26.89,20.65,18.3-14.06,32.08,41.78-18.3,14.06-32.08-41.78ZM613.45,1123h0l32.08,41.78,18.3-14L631.75,1109l-18.3,14Zm-26.88,20.65,18.3-14.05,32.07,41.77-18.29,14.05-32.08-41.77Zm-26.89,20.64h0l32.08,41.78,18.3-14L578,1150.24l-18.3,14Zm-26.88,20.64,18.3-14,32.07,41.78-18.29,14-32.08-41.78Zm-26.89,20.64h0L538,1247.35l18.3-14-32.08-41.77-18.3,14ZM479,1226.22l18.3-14L529.41,1254l-18.3,14L479,1226.22Zm-26.89,20.64h0l32.08,41.78,18.3-14.05-32.08-41.78-18.3,14Zm-26.88,20.64,18.29-14,32.08,41.78-18.29,14-32.08-41.78Zm-26.89,20.65h0l32.08,41.77,18.3-14-32.08-41.78-18.3,14.05ZM843.64,866.2h0L875.72,908,894,893.93l-32.08-41.78-18.3,14.05Zm-26.89,20.65,18.3-14.05,32.08,41.76-18.3,14.07-32.08-41.78Zm-26.88,20.63h0L822,949.26l18.3-14-32.08-41.77-18.3,14ZM763,928.12h0l32.07,41.79,18.3-14-32.08-41.79-18.29,14ZM736.1,948.77l18.3-14,32.08,41.78-18.3,14L736.1,948.77Zm-26.89,20.64h0l32.08,41.78,18.3-14.05-32.08-41.78-18.3,14Zm-26.88,20.65,18.3-14,32.08,41.78-18.3,14-32.08-41.78Zm-26.88,20.64h0l32.07,41.78,18.3-14-32.08-41.78-18.29,14.05Zm-26.89,20.64,18.3-14,32.08,41.78-18.3,14-32.08-41.78ZM601.67,1052h0l32.07,41.78,18.31-14L620,1037.94l-18.3,14Zm-26.89,20.65,18.3-14.05,32.08,41.77-18.3,14.05-32.08-41.77Zm-26.88,20.64h0L580,1135.06l18.3-14-32.08-41.78-18.29,14ZM521,1113.92l18.3-14.05,32.08,41.78-18.3,14L521,1113.92Zm-26.88,20.65h0l32.07,41.77,18.3-14-32.08-41.77-18.29,14Zm-26.89,20.64,18.3-14,32.08,41.78-18.3,14-32.08-41.78Zm-26.88,20.64h0l32.07,41.78,18.3-14.05-32.08-41.78-18.29,14Zm-26.89,20.64,18.3-14,32.08,41.77-18.3,14-32.08-41.78Zm-26.88,20.65h0l32.07,41.78,18.3-14.05-32.08-41.78-18.29,14.05Zm-26.89,20.64,18.3-14,32.08,41.78-18.3,14-32.08-41.78ZM805,815.83l18.29-14.05,32.08,41.78-18.29,14.05L805,815.83Zm-26.89,20.65h0l32.08,41.78,18.3-14-32.08-41.78-18.3,14.05ZM751.2,857.12l18.3-14,32.07,41.78-18.29,14L751.2,857.12Zm-26.89,20.65,18.3-14,32.08,41.78-18.3,14-32.08-41.78ZM697.43,898.4h0l32.08,41.78,18.29-14-32.08-41.78-18.29,14ZM670.54,919l18.3-14,32.08,41.78-18.3,14.06L670.54,919Zm-26.88,20.65h0l32.08,41.78L694,967.42,662,925.64l-18.3,14.05Zm-26.89,20.64,18.3-14.05,32.08,41.78-18.3,14.05-32.08-41.78ZM589.89,981h0L622,1022.76l18.29-14-32.08-41.78L589.89,981ZM563,1001.63l18.31-14.06,32.08,41.78-18.31,14.06L563,1001.63Zm-26.88,20.64h0l32.08,41.78,18.29-14-32.07-41.78-18.3,14Zm-26.89,20.64,18.3-14.05,32.08,41.78-18.3,14-32.08-41.78Zm-26.88,20.65h0l32.08,41.77,18.29-14-32.07-41.78-18.3,14Zm-26.89,20.64,18.3-14,32.08,41.78-18.3,14-32.08-41.78Zm-26.88,20.64h0l32.08,41.78,18.29-14-32.07-41.78-18.3,14Zm-26.89,20.65,18.3-14,32.08,41.77-18.3,14-32.08-41.77Zm-26.88,20.64h0l32.08,41.78,18.3-14.05-32.08-41.78-18.3,14.05Zm-26.89,20.64,18.3-14,32.08,41.78-18.3,14-32.08-41.78ZM321,1187.41h0l32.08,41.78,18.3-14-32.08-41.77-18.3,14Zm418.38-401.3,18.3-14,32.08,41.77-18.3,14-32.08-41.78Zm-26.88,20.64h0l32.07,41.78,18.3-14L730.82,792.7l-18.29,14ZM685.64,827.4h0l32.08,41.78,18.3-14-32.08-41.78-18.3,14ZM658.75,848l18.3-14,32.08,41.78-18.3,14.05L658.75,848Zm-26.88,20.65h0L664,910.47l18.3-14.07-32.08-41.76-18.3,14.05ZM605,889.33l18.29-14.05,32.08,41.78-18.3,14L605,889.33ZM578.1,910h0l32.08,41.78,18.3-14L596.4,895.91,578.1,910Zm-26.89,20.65,18.3-14.05,32.08,41.78-18.3,14-32.08-41.78Zm-26.89,20.66h0L556.4,993,574.71,979,542.63,937.2l-18.31,14.07ZM497.44,971.9l18.29-14,32.08,41.78-18.3,14L497.44,971.9Zm-26.89,20.65h0l32.08,41.78,18.3-14L488.85,978.5l-18.3,14Zm-26.88,20.64L462,999.14,494,1040.92l-18.3,14-32.07-41.78Zm-26.89,20.64h0l32.08,41.78,18.3-14-32.08-41.78-18.3,14Zm-26.88,20.65,18.29-14,32.08,41.78-18.29,14-32.08-41.78ZM363,1075.12h0l32.08,41.78,18.3-14.05-32.08-41.78-18.3,14Zm-26.88,20.64,18.29-14,32.08,41.78-18.3,14-32.07-41.78Zm-26.89,20.65h0l32.08,41.77,18.3-14-32.08-41.78-18.3,14.05ZM647,777l18.29-14,32.08,41.77-18.29,14L647,777Zm-26.89,20.64h0l32.08,41.78,18.3-14.05-32.08-41.78-18.3,14ZM593.2,818.32l18.3-14.05,32.07,41.78L625.28,860.1,593.2,818.32ZM566.31,839h0l32.08,41.78,18.3-14-32.08-41.78L566.31,839Zm-26.88,20.65,18.29-14.05,32.08,41.78-18.29,14-32.08-41.78Zm-26.89,20.64h0L544.62,922l18.3-14L530.84,866.2l-18.3,14ZM485.65,900.9,504,886.83,536,928.61l-18.3,14.07L485.65,900.9Zm-26.89,20.63h0l32.08,41.79,18.3-14.06-32.08-41.78-18.3,14Zm-26.88,20.66,18.3-14.05,32.08,41.77L464,984l-32.08-41.77ZM405,962.82h0l32.08,41.78,18.3-14.05-32.08-41.78L405,962.82Zm-26.88,20.65,18.3-14.05,32.07,41.78-18.29,14-32.08-41.78Zm-26.89,20.64h0l32.08,41.78,18.3-14.05-32.08-41.78-18.3,14.05Zm-26.88,20.64,18.3-14,32.08,41.78-18.3,14-32.08-41.78Zm-22.76,81.68q.45,9.67,1.29,19.45l29.86,38.9-18.29,14-5.64-7.34q2.07,11.92,4.71,23.91l31,40.39-16.66,12.79c1.16,3.63,2.37,7.26,3.6,10.88l19.65-15.09,32.08,41.78-31.74,24.38c1.49,3.38,3,6.75,4.59,10.12l33.75-25.91,32.07,41.78-41.37,31.76q2.68,4.76,5.45,9.47l42.52-32.64,32.08,41.77-46.09,35.39c2.05,3,4.15,5.91,6.26,8.85l46.42-35.65,32.08,41.78L453,1472.7q3.49,4.15,7,8.25l45.73-35.11,32.08,41.78-41.63,32q3.9,3.86,7.84,7.63l40.38-31L576.55,1538l-32.19,24.72q4.35,3.52,8.73,7l30.06-23.08,32.08,41.78-17.33,13.3q4.85,3.15,9.73,6.18l14.19-10.89,25.86,33.68q10.91,5.63,21.88,10.72l-.48-.63,18.3-14,24.71,32.18q13.14,4.76,26.32,8.69l14.52-11.15,14.47,18.84q8.16,1.89,16.3,3.45l-22.18-28.88,18.3-14,32.08,41.78-6.26,4.8q12.93,1.8,25.73,2.78l-4.29-5.59,18.3-14,16,20.79q6.75,0,13.45-.26L854,1658.87l18.3-14,30,39.09q6.21-.72,12.38-1.66l-33.81-44,18.3-14L940,1677.38q5.75-1.35,11.42-2.9l-43.69-56.9,18.3-14,48.8,63.55q5.31-1.9,10.56-4l-50.77-66.12,18.3-14,54.09,70.45c3.27-1.64,6.53-3.33,9.75-5.09l-55.26-72,18.3-14,56.88,74.08q4.53-3,9-6.1l-57.26-74.58,18.31-14.05,57.26,74.57q4.17-3.48,8.2-7.09L1015.28,1535l18.3-14,55.25,72q3.8-4,7.43-8.1l-54.09-70.45,18.3-14,50.77,66.12q3.39-4.52,6.61-9.16l-48.8-63.55,18.3-14,43.69,56.89q3-5.08,5.75-10.28l-40.85-53.21,18.3-14,33.8,44c1.67-3.8,3.26-7.65,4.8-11.53l-30-39.09,18.3-14,20.83,27.13q2-6.42,3.72-12.94l-16-20.78,18.3-14,4.29,5.59q2.37-12.61,4-25.58l-6.25,4.81-32.08-41.78,18.3-14,22.18,28.88q.58-8.27.87-16.64l-14.46-18.84,14.52-11.15q-.4-13.74-1.6-27.67L1153,1269.13l18.3-14.05.48.62q-2.08-11.91-4.71-23.9l-25.86-33.68,14.19-10.9q-1.67-5.49-3.46-11l-17.32,13.3-32.08-41.78,30.06-23.08q-2.19-5.12-4.46-10.23l-32.2,24.72-32.07-41.77,40.38-31q-2.62-4.79-5.35-9.55l-41.63,32L1025.21,1047l45.73-35.11q-3-4.49-6.15-8.93l-46.17,35.45-32.08-41.78L1033,961q-3.43-4.2-6.92-8.33L980,988.07l-32.08-41.79,42.51-32.64c-2.56-2.6-5.14-5.15-7.73-7.71l-41.37,31.78L909.2,895.93,943,870q-4.29-3.56-8.6-7L902.6,887.34l-32.07-41.78,19.65-15.09q-4.78-3.19-9.59-6.3L863.93,837l-31-40.39Q822,790.94,811,785.87l5.63,7.32-18.3,14-29.86-38.9q-9.22-3.32-18.46-6.25l1.06,1.39-18.29,14L713.2,752q-8.16-1.89-16.3-3.45l27.33,35.58-18.3,14-32.08-41.78,12.68-9.73c-5-.82-9.93-1.58-14.87-2.23l-4.4,3.37L664,743.48q-7.38-.84-14.72-1.39l9.44,12.31-18.3,14.05-21.11-27.51c-4.5,0-9,.1-13.45.27l26,33.82-18.3,14.05-35.16-45.79q-6.23.71-12.39,1.66l39,50.73-18.3,14.05-46-59.91q-5.75,1.35-11.42,2.9L578,816.32l-18.3,14-54-70.27c-3.54,1.29-7.07,2.62-10.56,4L551.13,837l-18.3,14-59.24-77.16c-3.28,1.64-6.53,3.32-9.75,5.08l60.41,78.67-18.3,14-62-80.8q-4.53,3-9,6.11l62.41,81.29-18.3,14L416.64,811c-2.79,2.31-5.52,4.69-8.2,7.1l62,80.78-18.3,14-60.4-78.67c-2.53,2.66-5,5.38-7.43,8.12l59.24,77.16-18.3,14.05-55.92-72.84q-3.39,4.53-6.61,9.16l53.95,70.26-18.3,14.05-48.84-63.6c-2,3.4-3.9,6.81-5.75,10.29l46,59.91-18.29,14-39-50.73c-1.67,3.8-3.26,7.65-4.8,11.54l35.17,45.78-18.3,14-26-33.83q-2,6.4-3.72,12.93l21.11,27.5-18.3,14-9.44-12.31q-1.35,7.25-2.46,14.58l3.32,4.32-4.4,3.38c-.65,4.94-1.21,9.93-1.68,14.94l12.67-9.73,32.08,41.78-18.3,14-27.33-35.6q-.58,8.26-.87,16.64l19.61,25.55-18.29,14-1.07-1.39Z" transform="translate(-257.12 -477.2)"/><path class="cls-1" d="M915.4,1718c58.79-8.1,113.87-29.8,161.32-66.24s82.64-84,105.65-138.74c5.56,42.54,14.46,101.44,27.63,164.9,26.07,125.54,91,241.71,84.54,251.84a10.1,10.1,0,0,1-5.89,4.33c-11.3,2.93-107.34-89.62-221.08-146.81-57.9-29.11-112.5-52.92-152.17-69.28ZM430.05,809.53h0C264,937,268.27,1221.31,439.62,1444.47s444.87,300.7,610.93,173.19,161.78-411.78-9.57-634.94S596.11,682,430.05,809.53Zm-26.17-34.07C219,917.4,219.74,1228.66,405.54,1470.64,509.78,1606.4,650.12,1691.5,785.89,1715c241.89,95.65,398,172.58,461.79,251.74,64.69,80.34,360,464.6,370.06,480.79s24.11,53.74,37.93,64.29c21.46,16.39,112.76-53.71,102.48-78.68-6.63-16.08-39.28-39.39-52.33-53.25s-308-398.41-368.93-481.65c-60-82-94-252.74-124-511.13,12.36-137.24-33.62-294.79-137.86-430.55-185.8-242-486.3-323.06-671.18-181.1Z" transform="translate(-257.12 -477.2)"/><path class="cls-1" d="M322.64,1203c18.26,87.63,58.86,177.59,121.65,259.37,86.63,112.82,199.21,188.87,311.2,220.62,112.73,32,224.92,19.11,309.85-46.1s126.31-170.29,124.55-287.45c-1.76-116.39-46.16-244.79-132.79-357.61-62.79-81.79-139.22-144.22-219.17-184.51,74,39.88,144.51,99.12,203.05,175.36,171.35,223.16,175.63,507.43,9.57,634.94s-439.59,50-610.93-173.19C381.08,1368.23,342.05,1284.86,322.64,1203Z" transform="translate(-257.12 -477.2)"/><path class="cls-1" d="M1265.27,1988.85c88.55,112.17,343.17,443.66,352.47,458.68,10,16.19,24.11,53.74,37.93,64.29,21.46,16.39,112.76-53.71,102.48-78.68-6.63-16.08-39.28-39.39-52.33-53.25-12.1-12.85-266.61-344.44-352.11-458.95Z" transform="translate(-257.12 -477.2)"/><path class="cls-1" d="M1647.19,2502.37a42.93,42.93,0,0,0,8.48,9.45,11.25,11.25,0,0,0,4.12,1.92l.42-.67c4.61-7.37,8.49-16,11.88-24,4.48-10.57,8.48-21.4,12.26-32.24q5.43-15.61,10.28-31.42c2.37-7.68,4.61-15.41,6.61-23.19,1.53-5.94,3-11.9,4.1-17.93.26-1.38.52-2.77.73-4.16l-.25-.26c-.66-.7-2.08-2.41-4.13-4.93-1.16,2.18-2.11,4.45-3.07,6.73-2.34,5.6-4.59,11.24-6.88,16.86q-4.2,10.26-8.47,20.51c-4.34,10.37-8.9,20.65-13.53,30.89-4.79,10.62-9.68,21.19-14.31,31.87-2.92,6.72-5.86,13.57-8.24,20.55Zm-57-92q6.84,9.06,12.17,16.16c3.05-5.71,5.75-11.8,8.2-17.57,4.48-10.57,8.48-21.4,12.25-32.23q5.43-15.61,10.29-31.43c2.37-7.68,4.61-15.4,6.61-23.19,1.52-5.93,3-11.9,4.1-17.92.16-.89.33-1.77.48-2.66l-4.55-5.88c-1,1.92-1.81,3.92-2.65,5.92-2.34,5.59-4.59,11.23-6.89,16.85q-4.2,10.27-8.46,20.51c-4.35,10.37-8.91,20.65-13.53,30.9-4.79,10.61-9.68,21.19-14.32,31.87-1.24,2.86-2.49,5.75-3.7,8.67Zm-61.37-80.61q6.29,8.22,12.28,16.06c2.93-5.55,5.53-11.44,7.9-17,4.49-10.56,8.48-21.39,12.26-32.23q5.43-15.61,10.28-31.43c2.38-7.68,4.61-15.4,6.61-23.19,1.53-5.93,3-11.9,4.1-17.92.15-.8.3-1.6.44-2.4l-4.59-6c-.94,1.87-1.75,3.81-2.56,5.75-2.35,5.6-4.6,11.24-6.89,16.85q-4.2,10.27-8.47,20.52c-4.34,10.37-8.9,20.64-13.53,30.89-4.78,10.61-9.68,21.19-14.31,31.87-1.18,2.72-2.37,5.47-3.52,8.23Zm-61.53-80.23,12.31,16c2.91-5.53,5.5-11.37,7.85-16.92,4.48-10.57,8.48-21.4,12.25-32.24q5.44-15.61,10.29-31.43c2.37-7.67,4.61-15.4,6.61-23.18,1.52-5.94,3-11.91,4.1-17.93.15-.81.31-1.63.45-2.46l-4.57-6c-1,1.89-1.78,3.85-2.6,5.81-2.34,5.6-4.59,11.24-6.89,16.86q-4.2,10.26-8.46,20.51c-4.34,10.37-8.91,20.65-13.53,30.89-4.79,10.61-9.68,21.19-14.32,31.87-1.17,2.7-2.34,5.42-3.49,8.17Zm-61.61-80,12.32,16c2.92-5.55,5.53-11.44,7.9-17,4.48-10.57,8.48-21.4,12.25-32.23q5.43-15.61,10.28-31.43c2.38-7.68,4.62-15.41,6.61-23.19,1.53-5.94,3-11.9,4.11-17.92.17-.93.34-1.86.5-2.79l-4.5-5.91c-1,2-1.87,4-2.72,6.07-2.35,5.6-4.6,11.24-6.89,16.86q-4.2,10.27-8.47,20.51c-4.34,10.37-8.9,20.65-13.52,30.9-4.79,10.61-9.69,21.19-14.32,31.87-1.19,2.74-2.39,5.51-3.55,8.31ZM1292.77,2023.9c2.25-1.76,4.51-3.45,6.72-5.09,8.26-6.12,16.77-12,25.25-17.77,8.24-5.65,16.5-11.28,24.71-17,5.42-3.78,10.86-7.55,16.32-11.26,4.51-3.06,9-6.13,13.62-9,1.48-.94,3-1.86,4.49-2.68l3.4,4.5c-1.18,1.42-2.46,2.75-3.75,4.08-3.81,3.91-7.77,7.66-11.76,11.38-5.21,4.86-10.53,9.61-15.89,14.29-7.31,6.4-14.65,12.78-22.06,19.06-7.69,6.51-15.48,13-23.51,19-2.07,1.56-4.22,3.16-6.42,4.73q-5.73-7.37-11.12-14.25Zm-25.38-32.36h0c3.49,4.43,7.18,9.13,11.13,14.16,6.93-5.47,13.71-11.13,20.45-16.8q13.63-11.46,27.12-23.08,10.74-9.19,21.32-18.57c5.21-4.63,10.4-9.28,15.5-14l-4.56-6.08c-5.63,3.86-11.2,7.8-16.77,11.74q-10.78,7.62-21.52,15.34c-10,7.15-20,14.21-30.09,21.27-7.55,5.3-15.13,10.61-22.58,16Zm76.56,98.13,12.31,15.9c3-5.64,5.65-11.63,8.06-17.32,4.48-10.56,8.48-21.39,12.25-32.23q5.45-15.62,10.29-31.43c2.37-7.68,4.61-15.4,6.61-23.19,1.52-5.93,3-11.9,4.1-17.92.22-1.15.43-2.31.62-3.47l-4.34-5.74c-1.13,2.13-2.07,4.36-3,6.59-2.34,5.6-4.59,11.23-6.89,16.85-2.8,6.85-5.6,13.69-8.46,20.52-4.34,10.37-8.9,20.64-13.53,30.89-4.79,10.61-9.68,21.19-14.31,31.87-1.25,2.87-2.5,5.77-3.71,8.68Z" transform="translate(-257.12 -477.2)"/><path class="cls-1" d="M765,729.75c-5.53-1.8-11.07-3.49-16.6-5.11q-1.24,7.49-2.23,15-1.83,13.93-2.78,27.92c5.63,1.71,11.26,3.6,16.88,5.54q.91-15.65,3-31.21.79-6.07,1.78-12.13Zm42.56,15.85c-5.47-2.31-10.95-4.48-16.44-6.58-.31,2.15-.62,4.27-.9,6.4q-2.47,18.84-3.17,37.81,8.52,3.53,17,7.36a389.64,389.64,0,0,1,3.23-42.92c.09-.7.19-1.39.28-2.07ZM850,765.46q-8.19-4.23-16.44-8.16a363.24,363.24,0,0,0-2.28,46.54c5.86,3.07,11.69,6.22,17.5,9.51A343.18,343.18,0,0,1,850,765.46ZM893,790q-8.36-5.22-16.79-10.12a314.63,314.63,0,0,0,1.16,50.79q9.55,6.17,19,12.76A296.5,296.5,0,0,1,893,790Zm45.36,31q-9-6.69-18.06-13a268.93,268.93,0,0,0,9.09,60.29q12.67,10.18,25,21.15a250.92,250.92,0,0,1-16.06-68.43ZM1112,1009.36q-8.51-13.38-17.7-26.53a208.74,208.74,0,0,1-100.86-115.9Q981.7,856,969.63,845.83A225.66,225.66,0,0,0,1112,1009.36Zm31.2,54.2q-5.12-9.88-10.61-19.71a252.66,252.66,0,0,1-66-25.48q9.26,13.78,17.74,27.8a270.05,270.05,0,0,0,58.91,17.39Zm22.36,47.55q-3.82-9-7.95-18c-2.17-.23-4.33-.49-6.5-.77a300,300,0,0,1-46.5-9.93q5.36,10.27,10.3,20.61a313.8,313.8,0,0,0,34,6.37q8.33,1.1,16.69,1.74Zm17.29,45.31q-3-8.7-6.19-17.39-15.72-.62-31.33-2.66-8.4-1.09-16.75-2.62,3.86,9.32,7.36,18.66c2.38.36,4.76.71,7.15,1a359.4,359.4,0,0,0,39.76,3Zm13.31,44.47q-2.23-8.58-4.72-17.17a387.38,387.38,0,0,1-45.45-2.51c1.9,6,3.68,11.92,5.38,17.87a405.59,405.59,0,0,0,44.79,1.81Zm9.73,44.2q-1.54-8.55-3.36-17.11a431.75,431.75,0,0,1-43.92-1q2,8.76,3.75,17.5,21.7,1.34,43.53.58Zm-611,396.65q7.65,4.63,15.37,9a407.8,407.8,0,0,0,9.82-43.73q-8-4.77-15.87-9.82a387.44,387.44,0,0,1-9.32,44.56Zm-39.36-25.81q7.56,5.35,15.21,10.47a360.56,360.56,0,0,0,7.37-39.19c.32-2.39.6-4.78.87-7.17q-8.13-5.8-16.14-11.92-.67,8.45-1.79,16.85-2,15.58-5.52,31Zm-39.46-30.27q7.62,6.31,15.36,12.34,1.53-8.25,2.63-16.58a314.83,314.83,0,0,0,2.61-34.45c-5.81-5-11.56-10.06-17.26-15.27a298.86,298.86,0,0,1-2.41,47.48q-.43,3.25-.93,6.48ZM475,1548.77q8.07,7.85,16.3,15.34a270.28,270.28,0,0,0-1.58-61.4q-11.36-11.79-22.29-24.32a252.27,252.27,0,0,1,7.57,70.38ZM325.79,1340.19q6.73,14.3,14.23,28.47A208.81,208.81,0,0,1,426,1496q10.32,12.29,21.05,24a225.57,225.57,0,0,0-121.21-179.79Zm-23.86-57.49q3.76,10.42,7.91,20.82a251.07,251.07,0,0,1,62,33.18q-7.43-14.76-14-29.65a269.67,269.67,0,0,0-55.89-24.35Zm-15.76-49.84q2.55,9.42,5.43,18.83a297.59,297.59,0,0,1,50.77,17q-3.94-10.8-7.42-21.63a315.3,315.3,0,0,0-48.78-14.24Zm-10.78-47q1.69,9,3.66,18A342,342,0,0,1,325.63,1215q-2.52-9.71-4.67-19.36a359,359,0,0,0-45.57-9.82Zm-6.69-45.7c.62,5.85,1.3,11.71,2.1,17.59l2.08.26a390.23,390.23,0,0,1,42.29,8q-1.51-9.18-2.71-18.32-18.51-4.23-37.34-6.7-3.21-.42-6.42-.79Zm39.88-38.75q-13.77-2.69-27.68-4.52-7.51-1-15.07-1.71.19,8.64.66,17.36,6.11.62,12.17,1.41,15.54,2,30.91,5.21c-.43-5.94-.78-11.86-1-17.75Zm935.06,506.79q-1.48-8.64-2.94-17.5-21.66,9.66-43.27,21.19,1.53,8.77,3.18,17.81,21.47-11.71,43-21.5Zm7.42,40.88q-1.65-8.62-3.28-17.51-21.27,10.37-42.56,22.58,1.72,8.83,3.56,17.81,21.12-12.39,42.28-22.88Zm8.37,41q-20.4,11-40.89,23.84-2.3-8.69-4.4-17.5,20.8-12.81,41.59-23.83,1.83,8.88,3.7,17.49ZM1269,1731q-2.15-8.54-4.23-17.41-19.65,11.31-39.46,24.27,2.58,8.66,5.29,17.11,19.25-12.77,38.4-24Zm-181.07,118.37q16-16,33.63-31.85,7.7,4.73,15.17,9.53-17.31,15.3-33.07,30.91-7.7-4.28-15.73-8.59Zm-37.3-19.31q8.12,4.07,15.94,8.09,15.92-16.86,33.59-33.34-7.82-4.47-15.77-8.78-17.76,16.79-33.76,34Zm-37.57-18.27q15.51-17.86,32.81-35.28,8.09,3.95,16.28,8-17.42,17.2-33,34.94-7.9-3.82-16.07-7.69Zm-37.65-17.4q8.18,3.7,16.14,7.37,15-18.27,31.89-36-8.29-3.93-16.39-7.68-16.71,17.89-31.64,36.33ZM650.5,1671.55q6.36-20.85,10.68-42.21-8-3.93-15.93-8.14a433.87,433.87,0,0,1-10.42,42.69q7.81,4,15.67,7.66Z" transform="translate(-257.12 -477.2)"/><path class="cls-1" d="M848.74,813c-3.6-1.91-7.2-3.79-10.81-5.61,3.62,2,7.23,3.95,10.82,6V813Zm47.21,28q-9.33-6.11-18.78-11.84l.16,1.53q9.55,6.17,19,12.76c-.13-.81-.25-1.63-.37-2.45Zm55.76,41.25q-11.65-9.63-23.56-18.59c.38,1.53.78,3.07,1.19,4.6q10.08,8.07,19.94,16.69l2.19,1.9.32.29,2.59,2.29q-1.39-3.57-2.67-7.18Zm146.53,169.44q-7.86-12.8-16.37-25.4-7.77-3.66-15.3-7.86l2.1,3.14c1.43,2.16,2.86,4.33,4.26,6.5s2.74,4.24,4.08,6.36c.63,1,1.25,2,1.87,3q2.76,4.41,5.43,8.83,6.89,2.92,13.93,5.46Zm30,54.32q-4.92-10-10.23-19.92-6.72-1.66-13.35-3.64l0,0c1.12,2.15,2.22,4.3,3.32,6.46.63,1.23,1.25,2.47,1.87,3.71q2.14,4.29,4.22,8.6l.85,1.78v0q6.61,1.62,13.28,3Zm21.37,48.27q-3.61-9.17-7.54-18.3-6.74-1-13.44-2.17l0,0c.58,1.4,1.15,2.81,1.72,4.21.76,1.89,1.52,3.79,2.26,5.69,1.07,2.71,2.11,5.43,3.14,8.15l.11.29.11.29c2.38.36,4.76.71,7.15,1,2.15.28,4.31.55,6.47.79Zm16.07,46q-2.7-8.82-5.69-17.64-7-.54-14-1.34v0q1.39,4.38,2.72,8.76.81,2.73,1.6,5.44l.09.28.88,3.07.08.28c4.74.45,9.5.83,14.26,1.11Zm11.81,45q-1.9-8.67-4.1-17.36-7.38-.28-14.73-.82v0q.9,3.88,1.73,7.75.57,2.58,1.09,5.16c.32,1.52.62,3,.92,4.56h0q7.53.46,15.08.68ZM642.24,1635.65q7.82,4.35,15.7,8.44,1.74-7.35,3.24-14.75h0l-4.18-2.08q-2.36-1.17-4.7-2.38-3.52-1.8-7-3.68-1.38,7.24-3,14.45ZM602,1611q7.74,5.16,15.57,10,1.43-7,2.61-14.06l-3.23-1.94q-2.42-1.47-4.82-3c-2.61-1.62-5.22-3.25-7.81-4.92h0q-1,6.94-2.31,13.84Zm-40.43-29.36q7.82,6.15,15.74,12c.32-2.15.62-4.31.9-6.46.32-2.39.6-4.78.87-7.17l-.26-.18-.25-.18q-3.59-2.58-7.16-5.21-2.37-1.74-4.74-3.53c-1.25-.93-2.49-1.88-3.73-2.82q-.54,6.78-1.37,13.54Zm-42-36.13q8.22,7.7,16.61,15c.28-4.52.48-9,.57-13.59l-1.55-1.33q-3.6-3.09-7.15-6.24c-1-.92-2.1-1.86-3.14-2.79q-2.7-2.43-5.39-4.89l0,0q.21,6.91.08,13.83Zm-48.45-50.33q10,11.49,20.31,22.37-.63-7.44-1.67-14.86-3.6-3.74-7.14-7.54l-2.37-2.54c-1.71-1.86-3.42-3.73-5.11-5.61s-3.45-3.84-5.16-5.78c-.84-.94-1.67-1.9-2.51-2.85q2.12,8.37,3.65,16.81ZM353.66,1304.7q5.58,13.82,11.89,27.57,3.15,2.16,6.24,4.43c-.53-1.06-1.06-2.11-1.58-3.17l0-.06v0l-.05-.11c-.47-.94-.94-1.89-1.4-2.84Q363,1318.82,357.79,1307c-1.37-.79-2.74-1.57-4.13-2.34Zm-20.15-58.15q3.08,10.59,6.59,21.2l2.27,1q-3.94-10.8-7.42-21.63l-1.44-.55ZM322.64,1203q1.25,5.93,2.61,11.87l.37.12q-1.55-6-3-12Z" transform="translate(-257.12 -477.2)"/><path class="cls-1" d="M998.16,1687.08a318.92,318.92,0,0,0,133-102.11,344.2,344.2,0,0,0,43.32-75.31,8.59,8.59,0,0,1,16.42,2.23c2.76,21.14,6.36,46.39,10.92,74.33s10.06,58.38,16.61,89.93c15.71,75.68,45.87,148.3,65.56,195.69,13.71,33,22.75,54.77,17.77,62.54a18.93,18.93,0,0,1-4.69,5,18.3,18.3,0,0,1-6.26,3,8.47,8.47,0,0,1-5.14-.27c-9.7-2.53-26-15-48.69-32.5-40.69-31.27-103.75-79.74-173.25-114.68-28.78-14.48-56.8-27.66-82.58-39.26s-49.29-21.62-69-29.75a8.59,8.59,0,0,1,2.39-16.48,344.06,344.06,0,0,0,83.64-22.36Zm-52.58,34.26h0c13.25,5.65,27.55,11.9,42.59,18.67,25.91,11.66,54.14,24.94,83.26,39.58,71,35.68,134.83,84.77,176,116.45,23,17.67,38.27,29.41,39,29.73h0a1.21,1.21,0,0,0,.38-.18,1.87,1.87,0,0,0,.45-.48c.09-.14-7.58-18.63-19.23-46.67-19.92-47.94-50.43-121.42-66.5-198.78-6.62-31.92-12.17-62.62-16.74-90.67-2.66-16.27-5-31.7-7-46a353.64,353.64,0,0,1-33,52.37A335.85,335.85,0,0,1,1004.7,1703a354.39,354.39,0,0,1-59.12,18.35ZM316.88,1091h0c1.7,113.12,45,238.14,129.56,348.24s194.13,184.23,303,215.09c108,30.6,215.13,18.53,295.89-43.48s120.1-162.43,118.41-274.63c-1.71-113.13-45-238.15-129.56-348.25S840,803.74,731.18,772.88c-108-30.61-215.13-18.54-295.89,43.48S315.19,978.78,316.88,1091ZM424.81,802.7h0c-85.3,65.5-126.85,171-125.08,288.58C301.49,1208,346,1336.65,432.79,1449.71S632.45,1639,744.71,1670.81c113.15,32.08,225.78,19.17,311.08-46.32s126.85-171,125.08-288.57c-1.76-116.68-46.25-245.37-133.06-358.44S848.15,788.2,735.89,756.38c-113.15-32.07-225.78-19.16-311.08,46.32ZM274.28,1085.51h0c.3,124,46.35,260.42,138.08,379.89C462.91,1531.23,522,1585,584.81,1625.34c65.17,41.87,134.46,69.41,202.55,81.2a8.63,8.63,0,0,1,2.11.65c121,47.86,220.65,91.08,298.13,132.29,78.26,41.62,134.11,81.36,166.77,121.91,31.06,38.57,115.38,147.32,195.75,251.73C1537.2,2326.26,1619.7,2434.4,1625,2443c3.49,5.65,7.35,13.55,11.51,22.05,7.77,15.9,16.67,34.09,24.37,40,2.64,2,9.51.5,18.29-3.12,10.63-4.38,22.92-11.92,34.38-20.73s21.93-18.72,28.91-27.86c5.76-7.55,9-13.79,7.73-16.86-3.69-9-19-22.26-32.32-33.87-7.14-6.21-13.78-12-18.33-16.81-6.93-7.36-90.11-115-176.93-228.35-80.12-104.6-163.39-214.12-192.64-254.09-30.74-42-54.7-106.24-74.71-192.59-19.83-85.59-35.87-193.16-50.87-322.63a8.56,8.56,0,0,1,0-1.75h0c6.2-68.83-2.52-142.88-26.14-216.66-22.78-71.13-59.44-142.06-110-207.89C976.51,842.33,856.6,762.62,736.89,730.31,618,698.22,499.33,713,409.12,782.27S274,962.35,274.28,1085.51ZM398.64,768.63C304,841.33,256.81,957.12,257.12,1085.56c.3,127.62,47.52,267.81,141.59,390.32,51.7,67.33,112.27,122.4,176.82,163.87,66.91,43,138.06,71.32,208.06,83.56,120.3,47.59,219.25,90.5,296,131.32,76.23,40.54,130.32,78.85,161.41,117.46s115.29,147.2,195.55,251.47c86.75,112.72,168.83,220.27,173.92,228.5,3.13,5.05,6.78,12.51,10.71,20.54,8.61,17.63,18.47,37.79,29.28,46,8.18,6.25,21,5,35.34-.88,12.06-5,25.73-13.31,38.27-23s24.14-20.68,32.06-31c9.4-12.31,13.89-24.41,10-33.93-5.18-12.57-22.11-27.3-36.91-40.17-6.75-5.87-13-11.32-17.09-15.64-6.63-7.05-89.36-114.13-175.85-227.05-80-104.45-163.19-213.85-192.44-253.83S1291.47,1791,1272,1706.89c-19.62-84.67-35.53-191.35-50.44-319.86,6.25-70.78-2.76-146.84-27-222.58-23.39-73.07-61-145.8-112.65-213.14C987.82,828.81,864.58,747,741.37,713.74c-124-33.45-248-17.81-342.73,54.89Z" transform="translate(-257.12 -477.2)"/><path class="cls-1" d="M1285.4,2000.57l-6.12-7.78,74.62-57.29,5.94,7.91,7.66,10.18-74.25,57-7.85-10Zm358,495.94a69.21,69.21,0,0,0,9.92,13.25c4.6-8.87,8.73-18.2,12.61-27.3q9.31-21.87,18.14-44c6.65-16.7,12.72-33.72,17.82-51,.9-3,1.79-6.09,2.64-9.16-1.76-2.09-4.82-5.87-9-11.21-2,5.37-4.07,10.74-6.14,16.09-6.42,16.63-13,33.18-19.54,49.77q-8.58,21.78-17.86,43.28c-2.88,6.67-5.79,13.41-8.54,20.2Zm-57.52-91.89,10.45,13.84c2.63-5.61,5.11-11.29,7.49-16.89q9.32-21.87,18.14-44c6.65-16.7,12.72-33.72,17.82-51,.78-2.65,1.56-5.32,2.31-8l-9-11.64c-2,5.12-3.88,10.25-5.86,15.36-6.42,16.63-13,33.18-19.54,49.77q-8.58,21.78-17.86,43.28-2,4.57-4,9.2Zm-61.95-81.28c3.57,4.65,7.08,9.25,10.52,13.74,2.54-5.45,5-11,7.26-16.4q9.32-21.87,18.14-44c6.65-16.7,12.72-33.72,17.82-51,.76-2.58,1.52-5.17,2.25-7.78l-9-11.71c-1.94,5.07-3.85,10.15-5.81,15.21-6.42,16.63-13,33.18-19.54,49.77q-8.58,21.78-17.86,43.28-1.89,4.38-3.79,8.81Zm-62.08-80.94,10.53,13.7c2.53-5.42,4.92-10.9,7.22-16.31q9.32-21.87,18.14-44c6.65-16.7,12.72-33.72,17.82-51q1.15-3.9,2.27-7.85l-9-11.73c-1.95,5.1-3.87,10.21-5.84,15.3-6.42,16.63-13,33.18-19.54,49.77q-8.58,21.78-17.86,43.28-1.87,4.35-3.76,8.76Zm-62.19-80.72,10.55,13.66c2.55-5.46,5-11,7.28-16.44q9.32-21.87,18.14-44c6.65-16.7,12.72-33.72,17.82-51q1.2-4,2.36-8.16l-8.94-11.74c-2,5.2-4,10.42-6,15.62-6.42,16.63-13,33.18-19.54,49.77q-8.58,21.78-17.86,43.28-1.92,4.44-3.84,8.93Zm-62.28-80.49h0l10.56,13.61c2.61-5.58,5.07-11.23,7.44-16.79q9.32-21.87,18.14-44c6.65-16.7,12.72-33.72,17.82-51,.86-2.91,1.72-5.85,2.54-8.8l-8.88-11.75c-2.07,5.43-4.12,10.86-6.21,16.27-6.42,16.63-13,33.18-19.54,49.77q-8.58,21.78-17.86,43.28c-1.33,3.09-2.68,6.2-4,9.33Zm-76.46-84q5.25,6.66,11,14c4.15,5.28,8.53,10.88,13.12,16.75a8.56,8.56,0,0,0,12,1.52l0,0,87.72-67.35a8.61,8.61,0,0,0,1.59-12.07c-.14-.18-.29-.36-.44-.53q-6.49-8.6-12.34-16.39t-11.12-14.83a8.58,8.58,0,0,0-12-1.72l-.08.06,0,0-88.38,67.86a8.59,8.59,0,0,0-1.58,12.06c.18.24.37.46.56.67Z" transform="translate(-257.12 -477.2)"/><circle cx="1242.88" cy="328.75" r="318.2"/><path class="cls-1" d="M1262.08,951.41c-.88-1.18-1.66-2.33-2.31-3.41-2.2-3.66-4.41-7.61-6.42-11.72-.49.39-.39,1.43.49,3.31a49.49,49.49,0,0,0,8.24,11.82Zm380.17-430.14c104.32,52.23,176,160.08,176,284.68-1.51,177.48-142.9,319.49-320.61,318.19-139.17-1-260.16-91.68-301.69-224.24,92.77,174.13,327.21,215.77,471.19,80.76,5.61-5.26,10.86-10.61,16.09-16.25,5.84-6.42,6.7-5.94.59-11.4-43.13-38.7-57.76-121.91-66.72-176.81-.6-3.71-1.21-7.43-1.82-11.13-3.73-22.6-7.7-45.11-13.07-67.4-4-16.52-8.66-32.88-14.22-48.94-4.51-13-9.65-25.79-15.32-38.32-3.86-8.53-8-16.93-11.59-25.62-.34-.82-2.08-4.95-1.31-5.57,1-.3,4.13,3.25,4.82,4a150.88,150.88,0,0,1,15.22,21.8c28.11,47.24,42.74,100.9,54.45,154.17,5.55,25.24,10.43,50.64,16.46,75.75,8.34,34.27,22.18,79.18,44.3,106.93,4.45,5.56,6.69.47,10.46-4.66,37.23-50.63,56.56-113.29,56.85-175.91a299.61,299.61,0,0,0-120-240.08Z" transform="translate(-257.12 -477.2)"/><path class="cls-2" d="M1507.79,562.4a103,103,0,0,1,24.74,22.88,99.35,99.35,0,0,1,8,11.35c23.86,41.35,30.82,89.3,37.93,135.72,8.75,53.55,19.56,101.84,37.79,153,7.26,20,15.55,39.48,26.07,57.95,7.86,13.89,16,26.09,28.75,36.26,12,9,22.37,14.57,36.89,18.47a79.17,79.17,0,0,0,15.26,2.37,72.71,72.71,0,0,0,22.67-1.86,51.33,51.33,0,0,0,7.41-2.71,16.65,16.65,0,0,1,.3-2.88v-.68c-3.7-.68-10.37-.17-12.3-.17a109.67,109.67,0,0,1-16.74-1.53,98.14,98.14,0,0,1-44-22.7c-9.78-9.32-16.59-21-22.82-32.87a430.24,430.24,0,0,1-22.67-56.09c-15.85-50.49-26.22-98.44-34.67-150.63l-.89-6.27c-7.7-48.12-16-94.21-42.08-136.23a129.49,129.49,0,0,0-12.59-16.61,118.47,118.47,0,0,0-27.12-22.53c-18.81-11.19-35.11-16.27-56.6-20.17a186.83,186.83,0,0,0-26.52-2.37h-2.52c-6.52.17-13.18.51-20.44,1.19-33.19,4.23-58.68,12.7-88.61,27.78a2,2,0,0,0-.59.34c-21.78,11.7-38.67,23.22-56.75,40-12.6,12-24.6,25.93-31.86,41.68-.44,1.19-2.66,6.44-2.81,8.48v.17a.75.75,0,0,0,.15.5c.88.34,4.88-5.59,5.63-6.43a213.66,213.66,0,0,1,35-37.62c18.38-15.08,35.27-25.59,56.9-35.92a8.42,8.42,0,0,0,1.33-.68c28.16-13.05,60-22,91.13-23.21a158.85,158.85,0,0,1,36.89,2.88c18.82,4.06,33.34,8.81,49.79,19.14Zm-72,474.44c7,3.39,13.78,6.61,20.74,10,25.34,12.54,48.16,25.25,71.12,41.85,7.41,5.59,22.08,17,26.38,25.42,1,2,1.48,3.73-.15,5.59a40.85,40.85,0,0,0-11,2c-7.7-4.23-20.3-13.21-26.22-17.11a732.9,732.9,0,0,0-69.79-37.79c-.15,0-18.67-9-20.45-9.82-21.63-10.34-43.12-21.35-64.3-32.88-16.75-9.32-33.34-19-49.49-29.48A364,364,0,0,1,1282.57,973a198.94,198.94,0,0,1-19.11-17.62c-3.56-3.73-7-7.79-9.19-12.54-1.78-3.73-.3-4.07,3-2.37a107.88,107.88,0,0,1,11.41,7.79c6.82,4.92,13.63,9.66,20.6,14.24,25.78,16.43,52.75,30.16,80.31,43.2C1391.62,1016.17,1413.85,1026.34,1435.78,1036.84Z" transform="translate(-257.12 -477.2)"/><path class="cls-3" d="M1253.85,939.61a1.47,1.47,0,0,1,1.14-.1c1.54,2.94,3.16,5.81,4.78,8.49.65,1.08,1.43,2.23,2.31,3.41a49.91,49.91,0,0,1-8.23-11.8Zm415.72,38.71c3.66-3.52,7.19-7.1,10.68-10.78l.29.28a104.92,104.92,0,0,0,26.45,17,98.57,98.57,0,0,0,17.55,5.71,100.54,100.54,0,0,0,16.69,1.58c2,0,8.84-.54,12.44.1a34.1,34.1,0,0,0-.4,3.55,41.86,41.86,0,0,1-7.31,2.72,68.7,68.7,0,0,1-22.68,1.84A78.45,78.45,0,0,1,1708,998c-14.6-3.89-24.9-9.48-37-18.53-.49-.39-1-.78-1.45-1.18ZM1554,1119.64l-.51.08a39.2,39.2,0,0,0-8.2,1.26l-3,.4c-7.68-4.3-19.76-13-25.6-16.7a717.83,717.83,0,0,0-69.75-37.87c-.08,0-11.1-5.26-17-8.09a303.08,303.08,0,0,0,52.18,1.45,408.21,408.21,0,0,1,45.49,28.58c7.49,5.55,22.14,16.89,26.47,25.32,1,2,1.51,3.78-.08,5.57Z" transform="translate(-257.12 -477.2)"/><path class="cls-4" d="M1717.55,588.38A307.67,307.67,0,1,0,1807.67,806a306.74,306.74,0,0,0-90.12-217.57ZM1500,477.2a328.77,328.77,0,1,1-232.45,96.3A327.71,327.71,0,0,1,1500,477.2Z" transform="translate(-257.12 -477.2)"/><path class="cls-4" d="M1544.22,1112.38c-8.94-4.64-21.07-11-37.44-19.71-16.89-9-34.66-18.49-52.23-28-8.93-4.85-18.35-9.87-27.8-14.9-74-39.44-150.91-80.38-199.64-155.51a223.81,223.81,0,0,1-24.33-50.2,230.35,230.35,0,0,1-10.44-46.26,10.53,10.53,0,0,0-20.91,2.48,252.45,252.45,0,0,0,11.43,50.53,245.57,245.57,0,0,0,26.63,54.91c51.66,79.63,131,121.87,207.38,162.56,9.15,4.88,18.26,9.73,27.64,14.82,22.32,12.12,39.38,21.29,52.4,28.2,13.54,7.2,26.41,13.94,37.68,19.79a10.51,10.51,0,0,0,9.63-18.68Zm-270.9-514.53a10.51,10.51,0,1,1-14.16-15.54c26.69-24.23,58.67-45.54,95.33-59A243.43,243.43,0,0,1,1459.09,509c123,10.06,142.76,140.41,157.77,239.28,3.32,21.88,6.4,42.15,10.27,58.65,10.39,44.32,23.15,84.13,39.87,114,15.78,28.18,35,47.18,58.83,52a62.14,62.14,0,0,0,18.82.76,85.12,85.12,0,0,0,18.86-4.38,10.5,10.5,0,0,1,6.91,19.84,105.91,105.91,0,0,1-23.55,5.44,83,83,0,0,1-25.16-1c-30.65-6.13-54.33-28.88-73.06-62.33-17.8-31.78-31.21-73.44-42-119.51-4.1-17.47-7.23-38.06-10.6-60.29-13.93-91.76-32.3-212.74-138.6-221.41a222.19,222.19,0,0,0-95.71,13.09c-33.89,12.47-63.57,32.25-88.41,54.8Z" transform="translate(-257.12 -477.2)"/></svg>