<svg id="Layer_1" data-name="Layer 1" xmlns="http://www.w3.org/2000/svg" viewBox="0 0 6918.05 5693.02"><defs><style>.cls-1,.cls-2{fill:#fff;}.cls-1,.cls-3{fill-rule:evenodd;}</style></defs><path class="cls-1" d="M4798.64-653.72l-50.9-39.1-89.28,116.27,50.93,39.11,89.25-116.28Zm74.84,57.44h0L4784.2-480l-50.93-39.11,89.28-116.27,50.93,39.1Zm74.81,57.47-50.91-39.1L4808.1-461.66l50.93,39.1,89.26-116.25Zm74.83,57.44h0l-89.28,116.28-50.93-39.1,89.28-116.28,50.93,39.1Zm74.81,57.45L5047-463l-89.29,116.27,50.94,39.1,89.25-116.27Zm74.84,57.47h0l-89.28,116.24-50.93-39.1,89.28-116.25,50.93,39.11ZM5247.62-309l-50.95-39.11-89.28,116.28,50.93,39.1L5247.62-309Zm74.84,57.47h0l-89.29,116.28-50.94-39.1,89.3-116.28,50.93,39.1Zm74.79,57.44-50.88-39.1-89.3,116.28L5308-77.82l89.3-116.28Zm74.84,57.45h0l-89.3,116.27-50.94-39.1,89.3-116.28,50.94,39.11Zm74.78,57.47L5496-118.29,5406.69-2l50.94,39.1,89.24-116.27Zm74.84,57.44h0L5532.47,94.53l-50.94-39.1,89.25-116.27,50.93,39.1Zm74.84,57.44L5645.62-3.4l-89.24,116.27L5607.26,152,5696.55,35.7ZM4756.64-908.79l-50.92-39.1-89.28,116.27,50.93,39.11,89.27-116.28Zm74.81,57.45h0l-89.28,116.27-50.9-39.1,89.25-116.28,50.93,39.11Zm74.84,57.44h0L4817-677.63l-50.93-39.1L4855.36-833l50.93,39.11Zm74.81,57.47-50.93-39.1-89.26,116.27,50.91,39.1,89.28-116.27ZM5055.93-679h0l-89.28,116.28-50.92-39.11L5005-718.09l50.92,39.1Zm74.81,57.44-50.93-39.1-89.28,116.27,50.93,39.11,89.28-116.28Zm74.84,57.47h0L5116.3-447.83l-50.93-39.07,89.28-116.28,50.93,39.1Zm74.82,57.44-50.94-39.1L5140.2-429.46l50.91,39.1,89.29-116.28Zm74.84,57.48h0L5266-332.89,5215-372l89.29-116.28,50.93,39.14Zm74.85,57.44-50.94-39.1-89.3,116.27,50.94,39.1,89.3-116.27Zm74.78,57.46h0L5415.63-218l-50.94-39.09L5454-373.36l50.88,39.1Zm74.84,57.45-50.94-39.1-89.29,116.28,50.93,39.1,89.3-116.28Zm74.78,57.44h0l-89.24,116.28-50.93-39.1,89.29-116.28,50.88,39.1Zm74.85,57.44L5678.4-201,5589.16-84.75l50.94,39.1,89.24-116.28Zm74.84,57.47h0l-89.3,116.28L5664-27.28l89.24-116.28,50.94,39.1ZM5879-47l-50.94-39.09-89.3,116.27,50.94,39.1L5879-47Zm74.78,57.45h0l-89.24,116.28L5813.62,87.6l89.3-116.27,50.88,39.1ZM4789.43-1106.42l-50.9-39.1-89.28,116.28,50.9,39.1,89.28-116.28Zm74.83,57.45h0L4775-932.69l-50.93-39.1,89.28-116.28,50.93,39.1Zm74.82,57.47-50.91-39.1-89.28,116.25,50.93,39.1,89.26-116.25Zm74.83,57.44L4963-973.16,4873.7-856.89l50.93,39.11,89.28-116.28Zm74.81,57.44h0l-89.28,116.28-50.9-39.1,89.28-116.28,50.9,39.1Zm74.83,57.44-50.93-39.07L5023.34-742l50.93,39.1,89.28-116.28Zm74.79,57.48h0l-89.23,116.27-50.93-39.1,89.28-116.27,50.88,39.1Zm74.85,57.44-50.94-39.1L5173-627.09l50.93,39.1,89.27-116.27ZM5388-646.82h0l-89.3,116.27-50.88-39.09,89.24-116.28,50.94,39.1Zm74.84,57.47-50.94-39.1-89.3,116.28,50.94,39.1,89.3-116.28Zm74.84,57.47h0l-89.3,116.25-50.94-39.07L5486.77-571l50.94,39.1Zm74.78,57.45-50.88-39.11-89.29,116.28,50.93,39.1,89.24-116.27ZM5687.33-417h0L5598-300.72l-50.88-39.1,89.29-116.28L5687.33-417Zm74.84,57.47-50.93-39.11-89.3,116.26,50.94,39.09,89.29-116.24ZM5837-302.08h0L5747.72-185.8l-50.94-39.11,89.3-116.27,50.88,39.1Zm74.84,57.44-50.94-39.1-89.24,116.27,50.88,39.11,89.3-116.28Zm74.84,57.47h0l-89.3,116.25L5846.46-110l89.24-116.25,50.94,39.1Zm74.84,57.44-50.94-39.1L5921.25-52.55l50.93,39.1,89.3-116.28Zm74.79,57.45h0L6047,44,5996.09,4.89l89.24-116.27,50.94,39.1ZM4897.07-1246.59h0l-89.27,116.27-50.93-39.1,89.28-116.28,50.92,39.11Zm74.82,57.47L4921-1228.23,4831.68-1112l50.93,39.1,89.28-116.24Zm74.83,57.44h0l-89.28,116.27-50.93-39.1,89.28-116.28,50.93,39.11Zm74.81,57.44h0L5032.25-958l-50.9-39.11,89.25-116.27,50.93,39.1Zm74.84,57.47-50.93-39.1-89.29,116.24,50.94,39.11,89.28-116.25Zm74.81,57.44h0L5181.9-843,5131-882.16l89.28-116.27,50.93,39.1ZM5346-901.89,5295.09-941,5205.8-824.71l50.93,39.1L5346-901.89Zm74.79,57.44h0l-89.24,116.28-50.94-39.1,89.24-116.25,50.94,39.07ZM5495.65-787l-50.94-39.11L5355.47-709.8l50.88,39.1L5495.65-787Zm74.84,57.47h0l-89.3,116.27-50.93-39.13,89.29-116.28,50.94,39.14Zm74.84,57.44-50.94-39.11L5505.1-594.89l50.93,39.1,89.3-116.27Zm74.79,57.44h0l-89.24,116.28-50.94-39.1,89.3-116.28,50.88,39.1ZM5795-557.15,5744-596.25,5654.78-480l50.94,39.1L5795-557.15Zm74.84,57.45h0l-89.3,116.27-50.94-39.1,89.3-116.28,50.94,39.11Zm74.84,57.44-50.94-39.11-89.3,116.28,50.94,39.1,89.3-116.27Zm74.78,57.46h0l-89.29,116.26-50.88-39.08,89.24-116.28,50.93,39.1Zm74.84,57.45-50.93-39.1L5954-250.17l50.94,39.1,89.29-116.28Zm74.79,57.44h0l-89.24,116.28-50.94-39.11L6118.17-309l50.88,39.1Zm74.84,57.47L6193-251.54l-89.3,116.25,50.94,39.1,89.24-116.25ZM5004.7-1386.75l-50.93-39.1-89.28,116.28,50.93,39.1,89.28-116.28Zm74.8,57.44h0L4990.22-1213l-50.9-39.1,89.28-116.28,50.9,39.1Zm74.84,57.45L5103.41-1311l-89.28,116.28,50.93,39.1,89.28-116.27Zm74.81,57.46-50.9-39.1L5089-1137.22l50.9,39.07,89.28-116.25ZM5304-1157h0l-89.26,116.28-50.93-39.1,89.3-116.27L5304-1157Zm74.84,57.45-50.94-39.1-89.24,116.27,50.88,39.11,89.3-116.28Zm74.84,57.47h0l-89.3,116.25-50.94-39.11,89.3-116.24,50.94,39.1Zm74.78,57.44-50.88-39.1-89.3,116.27,50.88,39.1,89.3-116.27Zm74.84,57.44h0L5514-810.88,5463.1-850l89.24-116.28,50.93,39.1Zm74.84,57.47-50.93-39.1-89.3,116.25,50.94,39.13,89.29-116.28ZM5753-812.21h0L5663.66-696l-50.94-39.1L5702-851.32,5753-812.21Zm74.79,57.44-50.88-39.11-89.3,116.28,50.94,39.1,89.24-116.27Zm74.84,57.44h0l-89.24,116.27-50.94-39.1,89.24-116.27,50.94,39.1Zm74.84,57.44L5926.48-679l-89.24,116.28,50.88,39.1,89.3-116.28Zm74.84,57.47h0L5963-466.14,5912-505.25l89.3-116.27,50.93,39.1ZM6127.05-525l-50.94-39.11L5986.87-447.8l50.88,39.1L6127.05-525Zm74.84,57.44h0l-89.3,116.27-50.94-39.1L6151-506.64l50.94,39.11Zm74.78,57.46-50.88-39.09-89.3,116.27,50.94,39.08,89.24-116.26Zm74.84,57.45h0l-89.24,116.28-50.94-39.11,89.3-116.27,50.88,39.1ZM5112.32-1526.93h0L5023-1410.66l-50.93-39.1L5061.39-1566l50.93,39.11Zm74.84,57.44-50.93-39.08L5047-1392.31l50.93,39.1,89.28-116.28ZM5262-1412h0l-89.28,116.28-50.9-39.11L5211-1451.12,5262-1412Zm74.84,57.44h0l-89.29,116.28-50.92-39.11,89.28-116.27,50.93,39.1Zm74.79,57.44-50.88-39.1L5271.41-1220l50.94,39.1,89.24-116.28Zm74.84,57.47h0l-89.24,116.28-50.94-39.1,89.24-116.28,50.94,39.1Zm74.84,57.44-50.94-39.09L5421-1105l50.93,39.1,89.3-116.28Zm74.79,57.45h0l-89.25,116.28-50.93-39.11,89.29-116.27,50.89,39.1Zm74.84,57.47L5660-1106.42l-89.24,116.25,50.88,39.11,89.3-116.25Zm74.84,57.47h0L5696.5-893.59l-51-39.1L5734.8-1049l50.94,39.13Zm74.84,57.44-50.94-39.1-89.3,116.28,50.94,39.1,89.3-116.28ZM5935.36-895h0l-89.24,116.28-50.94-39.1,89.3-116.28,50.88,39.1Zm74.84,57.48-50.93-39.11L5870-760.34l50.93,39.1,89.24-116.24ZM6085-780h0l-89.29,116.27-50.88-39.1,89.24-116.28L6085-780Zm74.85,57.44L6109-761.7l-89.3,116.27,50.94,39.1,89.3-116.27Zm74.78,57.44h0l-89.24,116.28L6094.49-588l89.3-116.24,50.88,39.07Zm74.84,57.47-50.94-39.1-89.29,116.27,50.93,39.11,89.3-116.28Zm74.78,57.44h0L6295.05-434l-50.93-39.1,89.29-116.28,50.88,39.1Zm74.85,57.44-50.94-39.1L6319-415.63l50.94,39.1,89.24-116.28ZM5219.94-1667.09l-50.9-39.1-89.28,116.25,50.9,39.1,89.28-116.25Zm74.86,57.45h0l-89.31,116.27-50.92-39.11,89.29-116.27,50.94,39.11Zm74.79,57.44-50.88-39.11L5229.4-1475l50.89,39.1,89.3-116.27Zm74.84,57.44-50.94-39.08-89.3,116.25,50.94,39.1,89.3-116.27Zm74.78,57.47h0L5430-1321,5379-1360.12l89.3-116.27,50.88,39.1Zm74.84,57.44-50.93-39.1-89.24,116.27,50.93,39.11,89.24-116.28Zm74.84,57.44h0l-89.29,116.28-50.88-39.1L5618-1361.51l50.93,39.1Zm74.85,57.47L5692.8-1304l-89.3,116.28,50.94,39.07,89.3-116.25Zm74.78,57.45h0l-89.3,116.27-50.88-39.1,89.3-116.27,50.88,39.1Zm74.84,57.47-50.94-39.13-89.29,116.27,51,39.13L5893.36-1150Zm74.84,57.44h0l-89.3,116.27-50.88-39.1,89.24-116.27,50.94,39.1Zm74.84,57.47-50.94-39.11-89.29,116.28,50.93,39.07,89.3-116.24Zm74.79,57.44h0l-89.24,116.28-50.94-39.1,89.24-116.28,50.94,39.1Zm74.84,57.44-50.94-39.1L6052.49-843l50.88,39.1,89.3-116.28Zm74.84,57.48h0l-89.3,116.24-50.88-39.1,89.24-116.25,50.94,39.11Zm74.84,57.44-50.94-39.11-89.29,116.28,50.93,39.1,89.3-116.27Zm74.78,57.44h0l-89.29,116.28L6277-670.7,6366.2-787l50.93,39.1ZM6492-690.43,6441-729.5l-89.3,116.24,50.94,39.11L6492-690.43ZM6566.76-633h0l-89.24,116.28-50.94-39.11,89.24-116.27,50.94,39.1ZM5327.58-1807.27h0L5238.29-1691l-50.91-39.1,89.27-116.26,50.93,39.09Zm74.85,57.45-50.94-39.1-89.3,116.27,50.94,39.1,89.3-116.27Zm74.78,57.46h0L5388-1576.11,5337-1615.19l89.3-116.28,50.88,39.11Zm74.84,57.44h0l-89.3,116.28-50.93-39.11L5501.11-1674l50.94,39.1Zm74.84,57.44-50.94-39.1-89.29,116.28,50.93,39.1,89.3-116.28Zm74.79,57.45h0l-89.24,116.28-50.94-39.11,89.24-116.25,50.94,39.08Zm74.84,57.47-50.94-39.1-89.24,116.27,50.88,39.11,89.3-116.28Zm74.84,57.44h0l-89.3,116.28-50.94-39.11,89.3-116.27,50.94,39.1Zm74.78,57.44-50.88-39.07L5786-1270.5l50.94,39.1,89.24-116.28Zm74.84,57.47h0l-89.24,116.28-51-39.1,89.3-116.28,50.93,39.1Zm74.84,57.47-50.93-39.1-89.24,116.28,50.93,39.1,89.24-116.28Zm74.85,57.45h0L6061.37-1059l-50.94-39.1,89.3-116.28,50.94,39.11Zm74.78,57.44L6174.57-1157l-89.3,116.28,50.94,39.1,89.24-116.27Zm74.84,57.47h0L6211-944.13l-50.88-39.08,89.24-116.28,50.94,39.11Zm74.84,57.44-50.94-39.1L6234.9-925.77l50.93,39.11,89.3-116.28Zm74.79,57.45h0l-89.24,116.27-50.94-39.11L6399-984.6l50.88,39.11ZM6524.76-888l-50.88-39.1-89.3,116.25,50.94,39.1L6524.76-888Zm74.84,57.44h0l-89.3,116.28-50.94-39.1,89.3-116.28,50.94,39.1Zm74.78,57.45-50.88-39.1L6534.2-696l50.94,39.11,89.24-116.28ZM5435.21-1947.44l-50.94-39.1L5295-1870.27l50.94,39.1,89.3-116.27ZM5510-1890h0l-89.24,116.3-50.94-39.1,89.3-116.3L5510-1890Zm74.84,57.48L5534-1871.63l-89.29,116.26,50.93,39.1,89.24-116.27Zm74.84,57.45-50.93-39.1-89.24,116.26,50.88,39.11,89.29-116.27Zm74.85,57.45h0l-89.3,116.26-50.94-39.11,89.3-116.25,50.94,39.1Zm74.78,57.45-50.88-39.1L5669.12-1583l50.88,39.1,89.3-116.28Zm74.84,57.44h0l-89.3,116.28-50.88-39.1,89.24-116.28,50.94,39.1Zm74.84,57.48-50.94-39.1-89.29,116.24,50.93,39.11,89.3-116.25Zm74.79,57.44h0l-89.24,116.28-50.94-39.11,89.29-116.27,50.89,39.1Zm74.84,57.47-50.88-39.13-89.3,116.28,50.94,39.12,89.24-116.27Zm74.84,57.44h0l-89.24,116.27-50.94-39.09L6132.51-1412l50.94,39.1Zm74.84,57.44-50.94-39.07-89.24,116.25,50.88,39.1,89.3-116.28Zm74.84,57.48h0l-89.3,116.27-50.93-39.1,89.29-116.28,50.94,39.11Zm74.78,57.44L6357-1239.67l-89.24,116.28,50.88,39.1,89.29-116.27Zm74.84,57.44h0l-89.29,116.27-50.94-39.1,89.3-116.28,50.93,39.11Zm74.79,57.47-50.88-39.1-89.3,116.28,50.94,39.07,89.24-116.25Zm74.84,57.44h0l-89.24,116.28L6492.2-951l89.3-116.28,50.88,39.1Zm74.84,57.44-50.94-39.1L6567-893.59l50.93,39.1,89.3-116.28Zm74.84,57.47h0L6692.76-797l-50.93-39.07,89.29-116.28,50.94,39.1ZM5542.83-2087.62h0l-89.3,116.27-50.93-39.09,89.29-116.28,50.94,39.1Zm74.78,57.48-50.88-39.1L5477.44-1953l50.93,39.1,89.24-116.22Zm74.85,57.43h0l-89.24,116.27-50.94-39.1,89.3-116.27,50.88,39.1Zm74.84,57.42h0L5678.06-1799l-50.94-39.1,89.24-116.29,50.94,39.09Zm74.84,57.49-50.94-39.1-89.3,116.26,50.94,39.11,89.3-116.27Zm74.78,57.44h0l-89.24,116.27-50.94-39.1,89.3-116.27,50.88,39.1Zm74.84,57.45-50.93-39.1-89.3,116.28,50.94,39.08,89.29-116.26Zm74.84,57.45h0l-89.29,116.28-50.94-39.1,89.3-116.28,50.93,39.1Zm74.79,57.44-50.88-39.1-89.3,116.28,50.94,39.1L6141.39-1628Zm74.84,57.48h0L6127-1454.27l-50.94-39.13,89.24-116.24,50.94,39.1Zm74.84,57.47-50.94-39.11-89.24,116.25,50.94,39.1,89.24-116.24Zm74.84,57.44h0l-89.3,116.27-50.88-39.1L6315-1494.74l50.94,39.11Zm74.84,57.44-50.93-39.1L6300.52-1321l50.94,39.1,89.29-116.28Zm74.79,57.44h0l-89.24,116.28-50.94-39.1,89.3-116.25,50.88,39.07Zm74.84,57.48-50.94-39.11-89.3,116.27,50.94,39.11,89.3-116.27Zm74.78,57.44h0l-89.24,116.27-50.94-39.1,89.3-116.28,50.88,39.11Zm74.84,57.44-50.93-39.08-89.24,116.25,50.93,39.1L6740-1168.39Zm74.84,57.47h0l-89.29,116.27-50.88-39.1L6763.91-1150l50.93,39.1Zm74.84,57.44-50.93-39.1-89.3,116.27,50.94,39.11,89.29-116.28ZM5650.45-2227.8l-50.88-39.1-89.29,116.28,50.88,39.1,89.29-116.28Zm74.84,57.49h0L5636-2054l-50.94-39.1,89.3-116.27,50.93,39.1Zm74.79,57.42-50.94-39.1-89.24,116.28,50.94,39.1,89.24-116.28Zm74.84,57.48-50.94-39.1-89.24,116.28,50.94,39.1,89.24-116.28Zm74.84,57.43h0l-89.3,116.27-50.88-39.1,89.24-116.27,50.94,39.1Zm74.84,57.42-50.94-39.09-89.29,116.27,50.94,39.12,89.29-116.3Zm74.79,57.49h0l-89.3,116.26-50.88-39.1,89.24-116.26,50.94,39.1Zm74.84,57.44-50.94-39.12L6034-1748.46l50.94,39.1,89.3-116.27Zm74.78,57.45h0l-89.24,116.29L6108.83-1691l89.3-116.28,50.88,39.1Zm74.9,57.48-51-39.13-89.24,116.28,50.93,39.12,89.3-116.27Zm74.78,57.44h0L6309.45-1537l-50.93-39.1,89.24-116.28,50.93,39.1Zm74.85,57.45-50.94-39.11-89.24,116.28,50.88,39.1,89.3-116.27Zm74.84,57.47h0l-89.3,116.24-50.94-39.1,89.3-116.24,50.94,39.1Zm74.84,57.44-50.94-39.1L6483-1403.73l50.94,39.1,89.3-116.27Zm74.78,57.44h0l-89.3,116.28-50.88-39.1,89.24-116.28,50.94,39.1Zm74.84,57.47-50.94-39.1-89.29,116.25,50.93,39.1,89.3-116.25Zm74.79,57.44h0l-89.24,116.28-50.94-39.1,89.24-116.28,50.94,39.1Zm74.84,57.44-50.94-39.1-89.24,116.28,50.88,39.1,89.3-116.28Zm74.84,57.45h0L6908-1077.39l-50.94-39.1,89.3-116.25,50.94,39.08ZM5832.92-2310.49l-50.94-39.1-89.3,116.27,50.94,39.1,89.3-116.27Zm74.78,57.42h0l-89.24,116.28-50.94-39.1,89.3-116.28,50.88,39.1Zm74.84,57.49h0l-89.29,116.27-50.88-39.1,89.24-116.27,50.93,39.1Zm74.84,57.42-50.93-39.1L5917.21-2061l50.88,39.1,89.29-116.28Zm74.85,57.48h0l-89.3,116.22-50.94-39.1,89.3-116.22,50.94,39.1Zm74.78,57.43-50.88-39.1-89.3,116.27,50.94,39.1L6207-2023.25Zm74.84,57.43h0l-89.3,116.27-50.93-39.1,89.29-116.27,50.94,39.1Zm74.78,57.48-50.88-39.1-89.29,116.26,50.93,39.1,89.24-116.26Zm74.9,57.48h0l-89.29,116.25-50.94-39.12L6380.54-1890l51,39.16Zm74.79,57.43-50.88-39.1-89.3,116.27,50.94,39.09,89.24-116.26Zm74.84,57.45h0l-89.3,116.28L6441-1658.79l89.24-116.28,50.94,39.09Zm74.84,57.45-50.94-39.1-89.3,116.28,50.94,39.1,89.3-116.28Zm74.78,57.45h0l-89.24,116.27-50.93-39.1,89.29-116.28,50.88,39.11Zm74.84,57.47-50.88-39.11-89.29,116.28,50.93,39.07,89.24-116.24Zm74.85,57.44h0l-89.3,116.27-50.94-39.1,89.3-116.27,50.94,39.1Zm74.78,57.44-50.88-39.1-89.3,116.28,50.94,39.1,89.24-116.28Zm74.84,57.47h0L6940.79-1275l-50.88-39.1,89.24-116.25,50.94,39.1Zm-939.92-944.5-50.94-39.1L5950-2258.59l50.88,39.1,89.3-116.27Zm74.84,57.42h0l-89.3,116.28-50.94-39.1,89.3-116.28,50.94,39.1Zm74.84,57.49-50.94-39.1-89.3,116.27,50.94,39.1,89.3-116.27Zm74.78,57.42h0l-89.24,116.28-50.93-39.1,89.29-116.28,50.88,39.1Zm74.84,57.49L6338.54-2145l-89.24,116.22,50.88,39.16,89.29-116.27Zm74.84,57.42h0L6375-1932.25l-50.94-39.1,89.3-116.27,50.93,39.1Zm74.85,57.48-51-39.15-89.24,116.27,50.94,39.16,89.3-116.28Zm74.84,57.43h0l-89.3,116.28-50.94-39.11,89.3-116.27,50.94,39.1Zm74.78,57.48-50.94-39.1L6548.6-1799l50.88,39.1,89.3-116.25Zm74.84,57.43h0l-89.3,116.26-50.93-39.08,89.29-116.28,50.94,39.1Zm74.79,57.46-50.88-39.11-89.3,116.29,50.94,39.1,89.24-116.28Zm74.84,57.44h0L6824-1587.52l-50.94-39.1,89.24-116.28,50.94,39.1Zm74.84,57.45-50.94-39.11-89.3,116.28,50.94,39.1,89.3-116.27ZM7051.43-1419q-1.28,26.93-3.58,54.14l-83.15,108.25,50.93,39.11,15.71-20.43q-5.81,33.2-13.14,66.54L6931.91-1059l46.39,35.59q-4.87,15.16-10,30.29l-54.69-42-89.3,116.27L6912.62-851q-6.22,14.12-12.75,28.19l-94-72.11-89.24,116.28,115.13,88.39q-7.43,13.23-15.13,26.36l-118.38-90.84-89.24,116.24L6737.27-540c-5.69,8.23-11.55,16.45-17.41,24.6l-129.2-99.19-89.24,116.28,128.46,98.66c-6.49,7.71-13,15.36-19.58,22.95L6483-474.43,6393.8-358.16l115.82,89q-10.84,10.72-21.8,21.23l-112.4-86.3L6286.18-218l89.58,68.8q-12.12,9.81-24.3,19.35l-83.67-64.24L6178.5-77.82l48.26,37q-13.48,8.78-27.09,17.2l-39.5-30.33-72,93.73q-30.3,15.7-60.84,29.83l1.31-1.72-50.93-39.1L5909,118.36q-36.61,13.23-73.24,24.18l-40.41-31L5755,163.94c-15.14,3.51-30.22,6.71-45.36,9.61l61.75-80.38-50.93-39.1-89.3,116.27,17.42,13.36q-35.94,5-71.6,7.74l12-15.56L5538,136.78l-44.45,57.86q-18.78,0-37.39-.72l57.94-75.48-50.94-39.1-83.49,108.79q-17.33-2-34.49-4.62L5439.25,61l-50.88-39.1L5274.66,170c-10.65-2.51-21.29-5.21-31.76-8.07L5364.46,3.52l-50.93-39.1L5177.72,141.29c-9.85-3.54-19.67-7.26-29.39-11.19l141.29-184L5238.69-93,5088.16,103.05c-9.1-4.57-18.17-9.27-27.13-14.17l153.79-200.26-50.93-39.11L5005.59,55.69q-12.6-8.23-25-17L5140-168.83,5089-208,4929.66-.4c-7.73-6.45-15.36-13-22.81-19.73l158.3-206.17-50.94-39.1L4860.45-65.13q-10.56-11.12-20.68-22.54l150.54-196.07-50.93-39.1-141.29,184q-9.45-12.57-18.4-25.49L4915.5-341.21l-50.93-39.07L4743-222q-8.22-14.14-16-28.61l113.69-148.08-50.93-39.1-94.07,122.53q-7-15.86-13.36-32.09l83.55-108.79-50.94-39.1-58,75.5q-5.47-17.87-10.36-36L4691-513.54l-50.93-39.1-11.94,15.56q-6.6-35.16-11-71.19l17.39,13.36,89.28-116.26-50.92-39.09-61.73,80.37q-1.64-23-2.43-46.31L4649-768.64l-40.41-31q1.13-38.24,4.45-77l68.77-89.59-50.93-39.07-1.34,1.72q5.76-33.14,13.11-66.51l72-93.74-39.49-30.33q4.64-15.29,9.63-30.62l48.2,37L4822.24-1304l-83.66-64.23c4.07-9.49,8.18-19,12.42-28.47l89.58,68.79,89.28-116.27-112.38-86.27q7.31-13.32,14.89-26.58l115.86,89,89.28-116.27-127.27-97.72q8.43-12.48,17.12-24.85l128.49,98.66,89.28-116.27-129.19-99.2q9.56-11.68,19.26-23.18l128.28,98.48,89.26-116.3-118.3-90.83q10.7-10.85,21.52-21.46l115.11,88.45,89.3-116.28L5266.46-2077q12-9.91,23.9-19.58l88.39,67.84L5468-2145l-54.69-42q13.3-8.88,26.69-17.53l46.38,35.63,86.28-112.4q30.41-15.71,60.9-29.82l-15.65,20.37,50.94,39.1,83.09-108.25c17.13-6.15,34.21-12,51.39-17.42l-3,3.88,50.88,39.09,54.64-71.08c15.14-3.53,30.22-6.72,45.36-9.62l-76.09,99,50.94,39.1,89.29-116.27-35.28-27.09c13.83-2.28,27.6-4.39,41.37-6.21l12.24,9.39,9.22-12c13.66-1.53,27.37-2.84,41-3.87l-26.3,34.27,50.94,39.09,58.73-76.54c12.52.05,25.05.28,37.45.74l-72.33,94.13,50.93,39.1,97.89-127.43q17.34,2,34.49,4.61l-108.47,141.2,50.93,39.1,128.06-166.75q16,3.75,31.76,8.08l-135.91,177,50.94,39.1,150.13-195.56c9.85,3.59,19.64,7.29,29.37,11.22l-155.6,202.72,50.88,39.1,164.88-214.73c9.1,4.55,18.21,9.22,27.15,14.11L6431.7-2111.52l50.94,39.1,172.62-224.87c8.42,5.52,16.73,11.16,25,17l-173.7,226.17,50.94,39.16,173.7-226.23q11.61,9.65,22.82,19.75l-172.61,224.81,50.93,39.09,168.07-218.94c7.06,7.4,13.94,15,20.71,22.59l-164.87,214.74,50.88,39.1,155.65-202.73c6.32,8.43,12.41,16.91,18.45,25.5L6731-1881.71l50.94,39.1,136-177c5.47,9.45,10.82,18.95,16,28.63l-128.06,166.73,50.94,39.1,108.42-141.23q6.91,16,13.37,32.15l-97.89,127.43,50.94,39.11,72.28-94.17q5.46,17.83,10.36,36l-58.74,76.53,50.88,39.1,26.3-34.27q3.75,20.18,6.83,40.58l-9.22,12,12.23,9.4c1.83,13.75,3.36,27.64,4.67,41.58L7012-1628l-89.3,116.28,50.94,39.07,76-99c1.08,15.33,1.93,30.78,2.45,46.3l-54.58,71.11,50.88,39.1,3-3.87Z" transform="translate(-257.12 3170.22)"/><path class="cls-1" d="M5343.12,283C5179.5,260.4,5026.21,200,4894.16,98.6s-230-233.89-294-386.13c-15.47,118.4-40.24,282.32-76.92,458.93C4450.68,520.79,4269.88,844.09,4288,872.29a28.12,28.12,0,0,0,16.39,12.05c31.45,8.15,298.73-249.42,615.28-408.58,161.14-81.05,313.1-147.28,423.5-192.81ZM6693.9-2245.33h0c462.14,354.86,450.24,1146-26.63,1767.08S5429.12,358.62,4967,3.75s-450.24-1146,26.63-1767.07,1238.09-836.86,1700.28-482Zm72.8-94.81c514.55,395,512.5,1261.28-4.61,1934.72C6472-27.58,6081.4,209.25,5703.55,274.65,5030.36,540.85,4595.78,755,4418.36,975.26c-180,223.56-1002,1293-1029.9,1338.07s-67.09,149.56-105.56,178.92c-59.72,45.62-313.82-149.5-285.21-219,18.46-44.75,109.3-109.62,145.64-148.2S4000.57,1016.29,4170.09,784.62c167-228.29,261.66-703.39,345-1422.5-34.4-382,93.57-820.42,383.68-1198.26,517.08-673.44,1353.42-899.1,1867.92-504Z" transform="translate(-257.12 3170.22)"/><path class="cls-1" d="M6992.81-1150.16C6942-906.29,6829-655.92,6654.23-428.32c-241.08,314-554.39,525.64-866,614-313.76,88.92-626,53.18-862.35-128.3s-351.53-473.93-346.63-800c4.89-323.92,128.46-681.27,369.56-995.25,174.74-227.62,387.48-401.38,609.95-513.5-206,111-402.17,275.86-565.09,488C4516.75-1142.26,4504.83-351.12,4967,3.75s1223.4,139.07,1700.28-482C6830.15-690.43,6938.8-922.46,6992.81-1150.16Z" transform="translate(-257.12 3170.22)"/><path class="cls-1" d="M4369.41,1036.8C4123,1349,3414.35,2271.53,3388.46,2313.33c-27.89,45.06-67.09,149.56-105.56,178.92-59.72,45.62-313.82-149.5-285.21-219,18.46-44.75,109.3-109.62,145.64-148.2,33.68-35.76,742-958.59,979.92-1277.29Z" transform="translate(-257.12 3170.22)"/><path class="cls-1" d="M3306.5,2466c-7.82,11.14-15.72,20.29-23.6,26.3a31.45,31.45,0,0,1-11.46,5.35l-1.18-1.87c-12.82-20.51-23.62-44.47-33.06-66.74-12.47-29.41-23.6-59.56-34.12-89.72q-15.1-43.45-28.61-87.48c-6.62-21.34-12.83-42.85-18.39-64.51-4.26-16.52-8.24-33.14-11.41-49.9-.75-3.83-1.45-7.71-2-11.57l.69-.73c1.84-1.94,5.79-6.71,11.49-13.72,3.21,6.07,5.87,12.38,8.55,18.73,6.51,15.59,12.77,31.29,19.15,46.93q11.68,28.55,23.57,57.07c12.08,28.86,24.77,57.48,37.65,86,13.33,29.53,26.94,59,39.83,88.7,8.13,18.7,16.31,37.77,22.93,57.19Zm158.69-256.15q-19,25.22-33.87,45c-8.49-15.9-16-32.85-22.82-48.9-12.47-29.42-23.6-59.56-34.09-89.7q-15.1-43.45-28.64-87.47c-6.59-21.38-12.83-42.89-18.39-64.54-4.24-16.54-8.24-33.12-11.41-49.88-.48-2.47-.93-4.92-1.34-7.4l12.66-16.36c2.73,5.34,5,10.91,7.38,16.44,6.51,15.59,12.77,31.28,19.17,46.92q11.68,28.6,23.55,57.09c12.1,28.86,24.79,57.47,37.65,86,13.34,29.54,26.94,59,39.86,88.7,3.45,8,6.92,16,10.29,24.13ZM3636,1985.46l-34.18,44.69c-8.15-15.45-15.39-31.84-22-47.39-12.5-29.39-23.6-59.53-34.12-89.7q-15.12-43.45-28.61-87.47c-6.63-21.38-12.86-42.86-18.4-64.54-4.26-16.51-8.24-33.12-11.41-49.87-.45-2.23-.84-4.46-1.23-6.68l12.78-16.62c2.62,5.21,4.87,10.6,7.13,16,6.53,15.59,12.79,31.26,19.17,46.9q11.68,28.59,23.57,57.11c12.08,28.86,24.77,57.44,37.66,86,13.3,29.52,26.94,59,39.82,88.7,3.29,7.56,6.6,15.19,9.8,22.9Zm171.24-223.31-34.26,44.6c-8.09-15.38-15.31-31.64-21.85-47.08-12.47-29.42-23.6-59.56-34.09-89.73q-15.15-43.45-28.63-87.47c-6.6-21.35-12.84-42.86-18.4-64.51-4.23-16.53-8.24-33.15-11.41-49.9-.42-2.28-.87-4.57-1.25-6.85l12.71-16.61c2.67,5.26,5,10.71,7.24,16.17,6.51,15.58,12.77,31.28,19.18,46.92,7.79,19,15.58,38.1,23.54,57.08,12.08,28.86,24.77,57.44,37.65,86,13.33,29.52,26.94,59,39.85,88.69q4.9,11.28,9.72,22.72Zm171.46-222.68q-17.07,22.13-34.28,44.45c-8.13-15.45-15.39-31.84-22-47.37-12.47-29.42-23.6-59.56-34.09-89.7q-15.12-43.45-28.61-87.47c-6.62-21.38-12.86-42.89-18.4-64.54-4.26-16.53-8.23-33.12-11.43-49.87q-.72-3.88-1.4-7.76l12.52-16.46c2.82,5.52,5.21,11.22,7.57,16.9,6.55,15.58,12.81,31.28,19.18,46.92q11.68,28.59,23.57,57.08c12.08,28.86,24.78,57.47,37.63,86,13.33,29.53,27,59,39.85,88.69,3.31,7.63,6.66,15.34,9.88,23.13Zm314.19-405.13c-6.27-4.89-12.56-9.6-18.7-14.17-23-17-46.68-33.28-70.28-49.45-22.93-15.72-45.95-31.39-68.77-47.26-15.11-10.52-30.23-21-45.42-31.33-12.55-8.52-25.1-17.06-37.91-25.16-4.11-2.62-8.23-5.18-12.49-7.46L4029.85,972c3.28,4,6.84,7.65,10.43,11.36,10.61,10.88,21.63,21.31,32.73,31.67,14.5,13.52,29.28,26.72,44.2,39.77,20.37,17.81,40.77,35.57,61.42,53.05,21.4,18.11,43.08,36.06,65.43,52.95,5.76,4.35,11.74,8.8,17.87,13.17q15.94-20.51,30.95-39.66Zm70.63-90.06h0c-9.71,12.33-20,25.41-31,39.41-19.28-15.23-38.15-31-56.91-46.76q-37.95-31.89-75.48-64.23-29.88-25.59-59.33-51.68c-14.5-12.89-29-25.83-43.14-39l12.69-16.93c15.67,10.75,31.17,21.71,46.68,32.67q30,21.21,59.89,42.7c27.8,19.9,55.77,39.54,83.74,59.19,21,14.75,42.1,29.53,62.84,44.67Zm-213.07,273.1q-16.9,21.84-34.26,44.26c-8.35-15.7-15.73-32.37-22.43-48.21-12.47-29.41-23.6-59.53-34.1-89.7q-15.15-43.45-28.64-87.47c-6.59-21.37-12.83-42.86-18.39-64.54-4.23-16.5-8.24-33.12-11.41-49.87-.61-3.2-1.2-6.43-1.73-9.66l12.08-16c3.15,5.92,5.74,12.13,8.35,18.34,6.52,15.58,12.78,31.25,19.18,46.89q11.64,28.6,23.54,57.11c12.08,28.86,24.77,57.44,37.66,86,13.33,29.53,26.93,59,39.82,88.7,3.48,8,7,16,10.33,24.15Z" transform="translate(-257.12 3170.22)"/><path class="cls-1" d="M5761.66-2467.35c15.43-5,30.85-9.78,46.22-14.22,2.33,13.88,4.44,27.77,6.2,41.71q5.13,38.76,7.74,77.69c-15.65,4.78-31.3,10-46.95,15.42q-2.56-43.53-8.2-86.85-2.31-16.89-5-33.75Zm-118.43,44.11c15.25-6.43,30.5-12.46,45.75-18.32.92,6,1.77,11.89,2.51,17.81q6.92,52.42,8.82,105.23c-15.77,6.55-31.59,13.32-47.3,20.49a1086.18,1086.18,0,0,0-9-119.46c-.23-1.93-.51-3.87-.79-5.75Zm-118,55.27q22.79-11.79,45.76-22.71a994.53,994.53,0,0,1,6.31,129.53q-24.41,12.72-48.66,26.47a947,947,0,0,0-3.41-133.29Zm-119.63,68.18q23.29-14.52,46.72-28.17a875.36,875.36,0,0,1-3.19,141.37q-26.62,17.16-52.87,35.51a825.19,825.19,0,0,0,9.34-148.71Zm-126.24,86.22q25-18.61,50.26-36.2A747.23,747.23,0,0,1,5304.31-2082q-35.27,28.33-69.66,58.84a700,700,0,0,0,44.67-190.43Zm-483.41,524.36q23.64-37.2,49.27-73.81a577.19,577.19,0,0,0,193.58-162,578.76,578.76,0,0,0,87.11-160.55q32.73-30.3,66.32-58.74a624.14,624.14,0,0,1-115.46,248.43,623.73,623.73,0,0,1-280.82,206.67Zm-86.83,150.87q14.23-27.53,29.53-54.86a703.11,703.11,0,0,0,183.79-70.91q-25.76,38.37-49.37,77.37a753.08,753.08,0,0,1-163.95,48.4ZM4646.85-1406q10.65-25.12,22.13-50.15c6-.64,12.05-1.37,18.09-2.14a835.36,835.36,0,0,0,129.41-27.64q-14.91,28.59-28.67,57.36a874,874,0,0,1-94.51,17.73q-23.16,3-46.45,4.84Zm-48.11,126.1q8.22-24.21,17.22-48.39,43.76-1.73,87.19-7.41,23.39-3.09,46.59-7.29-10.68,25.92-20.45,51.93c-6.63,1-13.25,2-19.9,2.84a1000.64,1000.64,0,0,1-110.65,8.32Zm-37.05,123.73q6.21-23.83,13.14-47.75a1079,1079,0,0,0,126.49-7c-5.29,16.59-10.24,33.18-15,49.73a1124.32,1124.32,0,0,1-124.65,5Zm-27.08,123q4.3-23.79,9.35-47.62a1203.48,1203.48,0,0,0,122.23-2.69q-5.62,24.38-10.43,48.7-60.41,3.7-121.15,1.61ZM6235,70.77q-21.26,12.9-42.74,25a1118.42,1118.42,0,0,1-27.32-121.71c14.8-8.85,29.49-17.92,44.17-27.33a1085.76,1085.76,0,0,0,25.89,124ZM6344.51-1.06q-21,14.9-42.34,29.11a1015.27,1015.27,0,0,1-20.49-109c-.91-6.66-1.65-13.31-2.45-20q22.62-16.15,45-33.17,1.89,23.5,5,46.89,5.72,43.38,15.36,86.17Zm109.84-84.25Q6433.1-67.78,6411.61-51q-4.26-23-7.34-46.15A885.2,885.2,0,0,1,6397-193q24.33-20.7,48-42.49a840.52,840.52,0,0,0,6.72,132.14q1.18,9.06,2.61,18ZM6568.75-188q-22.45,21.84-45.36,42.7a753.74,753.74,0,0,1,4.38-170.88q31.59-32.82,62-67.69A702.36,702.36,0,0,0,6568.75-188Zm415.3-580.49q-18.78,39.79-39.61,79.24a578.15,578.15,0,0,0-132.61,125.62,577.22,577.22,0,0,0-106.54,228.86q-28.77,34.19-58.57,66.65a623.9,623.9,0,0,1,127.09-324.67,624.56,624.56,0,0,1,210.24-175.7Zm66.41-160q-10.48,29-22,58A699,699,0,0,0,6856-778.18c13.83-27.39,26.69-54.91,38.93-82.52a750.19,750.19,0,0,1,155.54-67.77Zm43.83-138.71q-7.09,26.22-15.08,52.41a830,830,0,0,0-141.32,47.43q11-30.1,20.66-60.23a882.63,882.63,0,0,1,135.74-39.61Zm30-130.83c-3.13,16.68-6.49,33.35-10.19,50.07a950.87,950.87,0,0,0-129.59,31.15q7-27,13-53.89a1001.82,1001.82,0,0,1,126.8-27.33ZM7143-1325.19c-1.76,16.28-3.64,32.59-5.86,49-1.94.22-3.87.47-5.81.72a1079.6,1079.6,0,0,0-117.69,22.15q4.26-25.55,7.57-51,51.47-11.78,103.92-18.65c5.92-.78,11.89-1.51,17.87-2.2Zm-111-107.84q38.34-7.48,77.06-12.58c13.95-1.84,27.89-3.4,41.89-4.76-.28,16-.91,32.14-1.76,48.31q-17,1.72-33.87,3.92c-28.85,3.79-57.59,8.63-86,14.5,1.19-16.52,2.16-33,2.73-49.39ZM4429.61-22.61q4.13-24,8.18-48.7,60.28,26.88,120.42,59-4.26,24.44-8.85,49.57-59.73-32.61-119.75-59.84ZM4409,91.16q4.59-24,9.13-48.72,59.19,28.85,118.44,62.84-4.8,24.59-9.9,49.57-58.79-34.5-117.67-63.69Zm-23.3,114.08q56.78,30.69,113.8,66.35,6.39-24.21,12.25-48.7Q4453.8,187.21,4396,156.57q-5.09,24.72-10.3,48.67Zm-26.6,113.94q6-23.74,11.77-48.45,54.67,31.47,109.82,67.54-7.18,24.09-14.73,47.62-53.55-35.52-106.86-66.71ZM4863,648.61q-44.53-44.7-93.59-88.64-21.41,13.15-42.22,26.52,48.18,42.59,92,86,21.42-11.89,43.77-23.91Zm103.81-53.74q-22.59,11.32-44.36,22.52-44.3-46.92-93.48-92.79,21.75-12.44,43.89-24.43,49.42,46.69,93.95,94.7ZM5071.33,544q-43.12-49.71-91.29-98.18-22.5,11-45.31,22.35,48.47,47.88,91.9,97.24,22-10.65,44.7-21.41Zm104.8-48.42q-22.76,10.31-44.91,20.51-41.79-50.83-88.75-100.27,23.07-10.89,45.61-21.35,46.5,49.8,88.05,101.11Zm904.25-341.87q-17.76-58-29.77-117.48c14.86-7.29,29.65-14.8,44.34-22.65a1220.42,1220.42,0,0,0,29,118.81q-21.69,11-43.54,21.32Z" transform="translate(-257.12 3170.22)"/><path class="cls-1" d="M5528.66-2235.76c10-5.3,20-10.53,30.05-15.6-10.07,5.46-20.09,11-30.11,16.68l.06-1.08Zm-131.41,77.85c17.3-11.32,34.71-22.36,52.24-33l-.4,4.27q-26.62,17.16-52.87,35.51c.34-2.27.69-4.55,1-6.83ZM5242-2043.11q32.45-26.81,65.62-51.74c-1.08,4.27-2.21,8.54-3.35,12.75q-28,22.54-55.49,46.5c-2,1.76-4,3.53-6.09,5.29l-.91.8c-2.39,2.16-4.78,4.27-7.17,6.37,2.56-6.6,5.06-13.26,7.39-20Zm-407.77,471.54q21.87-35.57,45.55-70.66,21.63-10.2,42.58-21.88c-1.95,2.89-3.89,5.82-5.84,8.74-4,6-8,12-11.86,18.09s-7.63,11.8-11.35,17.7c-1.76,2.75-3.48,5.51-5.2,8.26q-7.69,12.28-15.12,24.58-19.2,8.13-38.76,15.17Zm-83.42,151.2q13.69-27.8,28.48-55.44c12.44-3.09,24.85-6.46,37.15-10.13l-.09.11q-4.67,9-9.23,18c-1.76,3.43-3.48,6.88-5.21,10.32q-6,12-11.74,23.94l-2.37,4.95,0,.06q-18.41,4.5-37,8.21ZM4691.38-1286q10.06-25.5,21-50.93,18.73-2.67,37.37-6l0,.08c-1.61,3.9-3.19,7.83-4.78,11.72-2.12,5.26-4.24,10.55-6.29,15.83-3,7.55-5.87,15.12-8.74,22.69l-.3.81-.31.8c-6.63,1-13.25,2-19.9,2.84-6,.78-12,1.5-18,2.2Zm-44.72,127.94q7.5-24.56,15.81-49.1,19.48-1.5,38.85-3.73l0,.11q-3.89,12.19-7.57,24.38-2.25,7.61-4.45,15.14l-.25.78c-.81,2.84-1.65,5.71-2.46,8.55l-.22.77c-13.19,1.26-26.43,2.32-39.68,3.1Zm-32.87,125.23q5.29-24.14,11.41-48.31,20.54-.8,41-2.28v0q-2.49,10.82-4.84,21.57-1.55,7.18-3,14.36c-.89,4.23-1.73,8.46-2.56,12.7l0,0q-21,1.29-42,1.89ZM6103.31,53.82c-14.45,8.07-29.08,15.92-43.65,23.49q-4.86-20.46-9.05-41.06h.06q5.81-2.86,11.61-5.78c4.38-2.17,8.76-4.37,13.09-6.63,6.54-3.33,13.09-6.76,19.58-10.24q3.93,20.17,8.36,40.22Zm112.18-68.58c-14.4,9.6-28.8,18.93-43.37,28-2.62-13-5.06-26-7.23-39.13l9-5.4c4.43-2.72,8.93-5.45,13.37-8.21,7.29-4.51,14.57-9,21.74-13.69l.06,0q2.82,19.34,6.43,38.49ZM6328-96.44Q6306.23-79.32,6284.18-63c-.91-6-1.7-12-2.5-18-.91-6.66-1.65-13.31-2.45-20l.74-.5.69-.5c6.65-4.79,13.31-9.6,20-14.5,4.38-3.23,8.77-6.52,13.15-9.83l10.41-7.84c1,12.58,2.28,25.13,3.82,37.68ZM6444.79-197q-22.78,21.42-46.15,41.83Q6397.44-174,6397-193l4.32-3.7c6.72-5.73,13.32-11.52,19.92-17.37l8.71-7.76q7.52-6.77,15-13.61l.06,0q-.51,19.23-.23,38.49Zm134.89-140.07q-27.84,32-56.52,62.25,1.71-20.7,4.61-41.35c6.72-6.94,13.32-13.92,19.87-21,2.22-2.34,4.43-4.7,6.6-7.07,4.78-5.18,9.5-10.38,14.23-15.61s9.61-10.69,14.34-16.09c2.39-2.61,4.67-5.28,7-7.93q-5.9,23.3-10.13,46.79Zm326.79-530.18q-15.53,38.46-33.06,76.73-8.79,6-17.42,12.33l4.44-8.82.06-.17.06-.05.11-.31c1.31-2.61,2.62-5.26,3.93-7.91,10.58-21.68,20.77-43.47,30.39-65.28,3.81-2.23,7.62-4.37,11.49-6.52Zm56.06-161.83q-8.53,29.46-18.32,59c-2.11.89-4.21,1.81-6.32,2.73q11-30.1,20.66-60.23l4-1.5Zm30.28-121.09c-2.33,11-4.72,22-7.28,33l-1,.31c2.91-11.1,5.64-22.24,8.31-33.34Z" transform="translate(-257.12 3170.22)"/><path class="cls-1" d="M5112.79,197A887.93,887.93,0,0,1,4908.74,79.62a888.2,888.2,0,0,1-166-166.85c-48.76-64-88.95-134.4-120.56-209.59a23.9,23.9,0,0,0-31.31-12.69,23.93,23.93,0,0,0-14.39,18.89c-7.68,58.84-17.7,129.11-30.42,206.87s-28,162.47-46.19,250.28c-43.73,210.62-127.7,412.73-182.46,544.62-38.16,91.86-63.32,152.43-49.46,174.05A52.63,52.63,0,0,0,4281,899.12a50.94,50.94,0,0,0,17.42,8.35,24.09,24.09,0,0,0,14.3-.75c27-7,72.3-41.89,135.51-90.46,113.21-87,288.74-221.92,482.13-319.15,80.13-40.31,158.11-77,229.86-109.27s137.17-60.17,192-82.79a23.91,23.91,0,0,0-6.66-45.87C5265,248,5187,227.43,5112.79,197Zm146.33,95.35h0c-36.87,15.72-76.67,33.11-118.52,52-72.11,32.44-150.68,69.41-231.72,110.15C4711.42,553.71,4533.64,690.33,4419,778.5c-64,49.17-106.51,81.85-108.49,82.74l-.13,0a3.34,3.34,0,0,1-1.06-.5,5,5,0,0,1-1.25-1.34c-.25-.39,21.09-51.84,53.51-129.88C4417,596,4501.88,391.57,4546.61,176.27,4565,87.44,4580.45,2,4593.2-76.07c7.4-45.28,13.91-88.22,19.59-127.91A984.81,984.81,0,0,0,4704.6-58.23a936.3,936.3,0,0,0,175,175.84,937.25,937.25,0,0,0,215,123.62,986.85,986.85,0,0,0,164.53,51.07ZM7008.86-1462h0c-4.78,314.83-125.32,662.77-360.6,969.18S6108,19.89,5805,105.77c-300.44,85.17-598.7,51.57-823.46-121s-334.25-452-329.54-764.31c4.76-314.85,125.32-662.79,360.57-969.19s540.3-512.7,843.2-598.59c300.5-85.19,598.73-51.62,823.48,121s334.25,452,329.58,764.31Zm-300.39-802.33h0c237.39,182.3,353,475.87,348.08,803.14-4.89,324.7-128.68,682.88-370.27,997.53s-555.7,526.78-868.1,615.34C5503.28,241,5189.8,205,4952.41,22.73s-353-475.82-348.11-803.08c4.9-324.73,128.72-682.88,370.31-997.55s555.64-526.79,868.1-615.34c314.9-89.24,628.38-53.33,865.76,128.9Zm418.89,787.08h0c-.8,345.1-129,724.77-384.23,1057.26C6602.44-236.79,6438.08-87.23,6263.18,25.12c-181.38,116.53-374.2,193.18-563.72,226a23.34,23.34,0,0,0-5.87,1.81c-336.75,133.2-614.09,253.48-829.71,368.16-217.8,115.84-373.24,226.41-464.14,339.29-86.46,107.34-321.11,410-544.78,700.58-242.35,314.88-471.95,615.84-486.76,639.74-9.71,15.73-20.48,37.72-32,61.37-21.63,44.23-46.4,94.88-67.82,111.24-7.35,5.62-26.47,1.39-50.91-8.68-29.58-12.2-63.79-33.21-95.68-57.7s-61-52.1-80.46-77.53c-16-21-25.05-38.38-21.51-46.92,10.27-24.94,52.8-62,89.95-94.27,19.87-17.28,38.32-33.34,51-46.78,19.29-20.52,250.78-320.05,492.41-635.52,223-291.1,454.73-595.9,536.13-707.14,85.55-116.94,152.23-295.67,207.92-536,55.19-238.21,99.83-537.58,141.57-897.9a23.39,23.39,0,0,0,.09-4.87h0c-17.26-191.56,7-397.64,72.75-603,63.39-198,165.42-395.37,306.11-578.59,255.29-332.48,589-554.32,922.16-644.25,330.95-89.3,661.16-48.15,912.21,144.62s376.08,501.17,375.23,843.93Zm-346-881.89c263.45,202.32,394.7,524.57,393.84,882-.85,355.18-132.26,745.34-394.07,1086.29C6637.16-203.45,6468.64-50.19,6289,65.23c-186.22,119.61-384.28,198.48-579.09,232.55-334.77,132.45-610.16,251.87-823.71,365.47C4674.07,776.08,4523.54,882.69,4437,990.15S4116.15,1399.82,3892.78,1690c-241.43,313.7-469.86,613-484,635.93-8.71,14-18.87,34.81-29.8,57.16-24,49-51.41,105.17-81.49,128.13-22.77,17.4-58.5,14-98.35-2.45-33.57-13.83-71.62-37-106.52-63.87s-67.18-57.55-89.22-86.38c-26.16-34.26-38.66-67.94-27.75-94.43,14.42-35,61.54-76,102.73-111.8,18.78-16.34,36.23-31.5,47.56-43.52,18.45-19.63,248.69-317.64,489.4-631.9,222.68-290.69,454.14-595.16,535.57-706.43s145.61-284.31,199.83-518.4c54.6-235.61,98.88-532.51,140.37-890.16-17.39-197,7.66-408.66,75.15-619.45,65.12-203.36,169.66-405.77,313.54-593.19,261.8-340.91,604.78-568.62,947.68-661.16,345.13-93.11,690.36-49.57,953.87,152.76Z" transform="translate(-257.12 3170.22)"/><path class="cls-1" d="M4313.38,1069.41l17-21.65L4122.75,888.32l-16.54,22-21.31,28.33,206.64,158.66,21.84-27.91ZM3317.1,2449.64c-9.1,15-18.36,27.86-27.6,36.88-12.8-24.69-24.3-50.65-35.1-76q-25.92-60.87-50.48-122.34c-18.51-46.48-35.41-93.85-49.59-141.83-2.51-8.43-5-16.95-7.35-25.49,4.89-5.81,13.41-16.34,25.18-31.2,5.71,14.92,11.33,29.89,17.09,44.78,17.87,46.28,36.21,92.34,54.38,138.52q23.88,60.61,49.71,120.45c8,18.56,16.12,37.32,23.76,56.21Zm160.08-255.73q-15.76,20.87-29.08,38.52c-7.32-15.61-14.22-31.42-20.84-47q-25.92-60.87-50.49-122.34c-18.5-46.48-35.4-93.85-49.59-141.83-2.17-7.37-4.34-14.81-6.46-22.26q12.29-15.83,25.05-32.4c5.45,14.25,10.83,28.53,16.34,42.75,17.87,46.28,36.2,92.34,54.38,138.51q23.87,60.62,49.7,120.45,5.52,12.73,11,25.61Zm172.39-226.21c-9.91,12.94-19.7,25.74-29.25,38.24-7.07-15.17-13.78-30.5-20.2-45.64q-25.93-60.87-50.49-122.35c-18.51-46.47-35.4-93.84-49.6-141.82-2.11-7.18-4.22-14.39-6.26-21.65l25-32.59c5.4,14.11,10.72,28.24,16.17,42.33,17.87,46.28,36.21,92.34,54.38,138.51q23.88,60.62,49.71,120.45c3.51,8.13,7,16.31,10.52,24.52Zm172.8-225.26-29.31,38.13c-7-15.09-13.69-30.34-20.09-45.4q-25.92-60.86-50.48-122.34c-18.51-46.47-35.4-93.84-49.6-141.82q-3.21-10.86-6.32-21.85l25-32.64c5.42,14.19,10.77,28.41,16.25,42.57,17.86,46.29,36.21,92.35,54.38,138.52q23.88,60.62,49.71,120.45,5.22,12.11,10.46,24.38Zm173.08-224.67-29.36,38c-7.1-15.2-13.81-30.59-20.26-45.76q-25.93-60.85-50.49-122.34c-18.5-46.48-35.4-93.85-49.59-141.82-2.23-7.52-4.43-15.12-6.57-22.71l24.88-32.68c5.56,14.48,11,29,16.62,43.47,17.86,46.29,36.2,92.35,54.38,138.52q23.88,60.62,49.7,120.45c3.53,8.24,7.13,16.53,10.69,24.83Zm173.33-224h0l-29.39,37.88c-7.26-15.53-14.11-31.25-20.71-46.73q-25.92-60.87-50.48-122.34c-18.51-46.48-35.41-93.85-49.59-141.83-2.4-8.09-4.79-16.28-7.08-24.48l24.72-32.71c5.76,15.08,11.46,30.23,17.28,45.28,17.87,46.28,36.21,92.34,54.38,138.51q23.88,60.63,49.68,120.45,5.59,12.9,11.19,26Zm212.79-233.86q-14.61,18.54-30.56,38.85-17.33,22.05-36.51,46.62a23.84,23.84,0,0,1-33.31,4.23l-.06.08L4037,962.26a24,24,0,0,1-4.43-33.59c.4-.5.81-1,1.23-1.47q18.07-23.93,34.34-45.62,16.2-21.54,31-41.27a23.84,23.84,0,0,1,33.39-4.79l.23.17.05-.05,246,188.85a23.91,23.91,0,0,1,4.4,33.57c-.5.67-1,1.28-1.56,1.86Z" transform="translate(-257.12 3170.22)"/><path class="cls-1" d="M2633.64-653.72l50.9-39.1,89.29,116.27-50.93,39.11-89.26-116.28Zm-74.84,57.44h0L2648.08-480,2699-519.11l-89.28-116.27-50.93,39.1ZM2484-538.81l50.9-39.1,89.28,116.28-50.93,39.07L2484-538.81Zm-74.84,57.44h0l89.28,116.28,50.93-39.1-89.28-116.28-50.93,39.1Zm-74.81,57.45,50.9-39.1,89.29,116.27-50.93,39.1-89.26-116.27Zm-74.83,57.47h0l89.28,116.24,50.92-39.1-89.28-116.25-50.92,39.11ZM2184.67-309l50.94-39.14,89.28,116.28L2274-192.74,2184.67-309Zm-74.82,57.44h0l89.27,116.28,50.93-39.1-89.28-116.28-50.92,39.1ZM2035-194.1l50.92-39.1,89.28,116.28-50.92,39.1L2035-194.1Zm-74.82,57.45h0l89.27,116.27,50.93-39.1-89.27-116.25-50.93,39.08Zm-74.82,57.47,50.92-39.11L2025.58-2l-50.92,39.1L1885.38-79.18Zm-74.82,57.44h0l89.27,116.27,50.93-39.1L1861.48-60.84l-50.92,39.1ZM1735.73,35.7l50.92-39.1,89.28,116.27L1825,152,1735.73,35.7Zm939.91-944.49,50.93-39.1,89.28,116.27-50.93,39.11-89.28-116.28Zm-74.81,57.45h0l89.28,116.27,50.9-39.1-89.25-116.28-50.93,39.11ZM2526-793.9h0l89.28,116.27,50.93-39.1L2576.92-833,2526-793.9Zm-74.8,57.47,50.92-39.1,89.26,116.27-50.91,39.1-89.27-116.27ZM2376.35-679h0l89.28,116.28,50.93-39.11-89.28-116.27L2376.35-679Zm-74.82,57.44,50.94-39.1,89.25,116.27-50.9,39.11-89.29-116.28Zm-74.82,57.47h0L2316-447.8l50.92-39.1-89.28-116.28-50.92,39.1Zm-74.82,57.44,50.93-39.1,89.27,116.28-50.93,39.1-89.27-116.28ZM2077-449.16h0l89.28,116.27L2217.27-372,2128-488.3,2077-449.16Zm-74.82,57.44,50.92-39.1,89.28,116.27-50.93,39.1-89.27-116.27Zm-74.83,57.46h0L2016.67-218l50.92-39.07-89.27-116.28-50.93,39.1Zm-74.82,57.45,50.93-39.1,89.27,116.28-50.92,39.1-89.28-116.28Zm-74.82,57.44h0L1867-103.09l50.92-39.1-89.28-116.28-50.92,39.1Zm-74.82,57.47,50.92-39.1,89.27,116.25-50.91,39.1L1702.93-161.9Zm-74.83,57.44h0l89.28,116.28,50.93-39.1L1679-143.56l-50.93,39.1ZM1553.28-47l50.93-39.09,89.27,116.27-50.92,39.1L1553.28-47Zm-74.82,57.45h0l89.28,116.28,50.92-39.11L1529.38-28.64l-50.92,39.07ZM2642.85-1106.42l50.91-39.1L2783-1029.24l-50.94,39.1-89.25-116.28ZM2568-1049h0l89.28,116.28,50.93-39.1L2619-1088.07,2568-1049ZM2493.2-991.5l50.91-39.1,89.28,116.25-50.93,39.1L2493.2-991.5Zm-74.83,57.44,50.93-39.1,89.28,116.27-50.93,39.11-89.28-116.28Zm-74.81,57.44h0l89.26,116.28,50.93-39.1-89.28-116.28-50.91,39.1Zm-74.83,57.44,50.92-39.07L2408.94-742,2358-702.9l-89.28-116.28Zm-74.82,57.48h0l89.27,116.27,50.92-39.1L2244.83-800.8l-50.92,39.1Zm-74.83,57.44,50.93-39.1,89.27,116.27L2208.36-588l-89.28-116.27Zm-74.82,57.44h0l89.28,116.27,50.92-39.09-89.28-116.28-50.92,39.1Zm-74.85,57.47,50.95-39.1,89.28,116.28-50.95,39.1-89.28-116.28Zm-74.82,57.47h0l89.28,116.28,50.92-39.1L1945.51-571l-50.92,39.1Zm-74.82,57.45,50.92-39.11L1960-397.26,1909-358.16l-89.27-116.27ZM1745-417h0l89.27,116.27,50.93-39.1L1795.87-456.1,1745-417Zm-74.83,57.47L1721-398.63l89.28,116.28-50.92,39.07-89.28-116.24Zm-74.82,57.44h0l89.28,116.28,50.92-39.11-89.27-116.27-50.93,39.1Zm-74.82,57.44,50.92-39.1,89.28,116.27-50.93,39.11-89.27-116.28Zm-74.82,57.47h0l89.27,116.25,50.92-39.1-89.27-116.25-50.92,39.1Zm-74.83,57.44,50.93-39.1L1511-52.55l-50.92,39.1-89.28-116.28ZM1296-72.28h0L1385.29,44l50.92-39.11-89.28-116.27L1296-72.28Zm1239.2-1174.31h0l89.28,116.27,50.93-39.1-89.29-116.28-50.92,39.11Zm-74.82,57.47,50.94-39.11,89.25,116.28-50.91,39.1-89.28-116.27Zm-74.83,57.44h0l89.28,116.27,50.93-39.1-89.28-116.28-50.93,39.11Zm-74.81,57.44h0L2400-958l50.91-39.11-89.26-116.27-50.93,39.1Zm-74.82,57.47,50.92-39.1,89.28,116.27-50.93,39.08-89.27-116.25Zm-74.83,57.44h0L2250.38-843l50.92-39.11L2212-998.43l-50.92,39.1Zm-74.82,57.44L2137.2-941l89.28,116.28-50.93,39.1-89.27-116.28Zm-74.82,57.44h0l89.27,116.28,50.93-39.1-89.28-116.25-50.92,39.07ZM1936.63-787l50.93-39.11,89.27,116.28-50.92,39.1L1936.63-787Zm-74.85,57.47h0l89.28,116.27,51-39.13-89.28-116.28-51,39.14ZM1787-672.06l50.93-39.11,89.27,116.28-50.92,39.1L1787-672.06Zm-74.82,57.44h0l89.28,116.28,50.92-39.1-89.28-116.25-50.92,39.07Zm-74.82,57.47,50.92-39.1L1777.52-480l-50.93,39.1-89.27-116.28Zm-74.83,57.45h0l89.28,116.27,50.92-39.1-89.27-116.28-50.93,39.11Zm-74.82,57.44,50.93-39.11,89.27,116.28L1577-326l-89.28-116.27Zm-74.82,57.46h0l89.28,116.26,50.92-39.08L1463.77-423.9l-50.92,39.1ZM1338-327.35l50.92-39.1,89.28,116.28-50.93,39.1L1338-327.35Zm-74.83,57.44h0l89.28,116.28,50.93-39.11L1314.12-309l-50.92,39.1Zm-74.81,57.47,50.91-39.1,89.28,116.25-50.92,39.1-89.27-116.25ZM2427.58-1386.75l50.94-39.1,89.27,116.28-50.93,39.1-89.28-116.28Zm-74.8,57.44h0L2442.06-1213l50.9-39.1-89.28-116.28-50.9,39.1Zm-74.84,57.45,50.93-39.11,89.28,116.28-50.93,39.1-89.28-116.27Zm-74.82,57.46,50.92-39.1,89.27,116.28-50.91,39.1-89.28-116.28ZM2128.29-1157h0l89.28,116.28,50.92-39.1L2179.22-1196,2128.29-1157Zm-74.82,57.45,50.93-39.1,89.27,116.27-50.92,39.11-89.28-116.28ZM1978.65-1042h0l89.28,116.25,50.92-39.11-89.27-116.24-50.93,39.1Zm-74.82,57.44,50.92-39.1L2044-907.43l-50.92,39.1L1903.83-984.6ZM1829-927.16h0l89.27,116.28L1969.2-850l-89.27-116.28L1829-927.16Zm-74.85,57.47,50.95-39.1,89.27,116.25-50.94,39.13-89.28-116.28Zm-74.83,57.48h0L1768.61-696l50.92-39.1-89.27-116.25-50.93,39.11Zm-74.82,57.44,50.92-39.11,89.28,116.28-50.92,39.1-89.28-116.27Zm-74.82,57.44h0L1619-581.06l50.93-39.1-89.27-116.27-50.93,39.1Zm-74.82,57.44L1505.79-679l89.28,116.25-50.92,39.1-89.28-116.28Zm-74.82,57.47h0l89.27,116.28,50.92-39.11L1431-621.52l-50.92,39.1ZM1305.22-525l50.92-39.11,89.28,116.28-50.92,39.1L1305.22-525Zm-74.82,57.44h0l89.27,116.27,50.93-39.1-89.27-116.28-50.93,39.11Zm-74.82,57.46,50.92-39.09,89.28,116.27-50.92,39.08-89.28-116.26Zm-74.82,57.45h0L1170-236.34,1221-275.45l-89.27-116.27-50.92,39.1ZM2320-1526.93h0l89.29,116.27,50.89-39.1L2370.89-1566,2320-1526.93Zm-74.82,57.44,50.92-39.08,89.28,116.26-50.94,39.1-89.26-116.28ZM2170.31-1412h0l89.28,116.28,50.92-39.11-89.27-116.27-50.93,39.1Zm-74.82,57.44h0l89.28,116.28,50.92-39.11-89.28-116.27-50.92,39.1Zm-74.82,57.44,50.92-39.07L2160.87-1220l-50.93,39.1-89.27-116.28Zm-74.82,57.47h0l89.28,116.28,50.92-39.1-89.28-116.28-50.92,39.1ZM1871-1182.23l50.93-39.09L2011.22-1105l-50.92,39.1L1871-1182.23Zm-74.82,57.45h0l89.28,116.28,50.92-39.11-89.28-116.27-50.92,39.1Zm-74.82,57.47,50.93-39.11,89.27,116.28-50.93,39.08-89.27-116.25Zm-74.85,57.47h0l89.28,116.25,51-39.1L1697.48-1049l-51,39.13Zm-74.82,57.44,50.92-39.1,89.28,116.28L1661-836.12,1571.71-952.4ZM1496.89-895h0l89.27,116.28,50.93-39.1-89.28-116.28L1496.89-895Zm-74.83,57.48L1473-876.59l89.28,116.25-50.92,39.1-89.28-116.24ZM1347.24-780h0l89.28,116.27,50.92-39.1-89.28-116.28L1347.24-780Zm-74.82,57.44,50.92-39.1,89.28,116.27-50.92,39.1L1272.42-722.6Zm-74.83,57.44h0l89.28,116.28L1337.8-588l-89.28-116.24-50.93,39.07Zm-74.82,57.47,50.93-39.1L1263-530.52l-50.92,39.11-89.28-116.28ZM1048-550.25h0L1137.23-434l50.92-39.1-89.28-116.28L1048-550.25Zm-74.82,57.44,50.92-39.07,89.28,116.25-50.93,39.1L973.13-492.81Zm1239.2-1174.28,50.93-39.1,89.27,116.28-50.92,39.07-89.28-116.25Zm-74.82,57.45h0l89.28,116.27,50.92-39.11-89.28-116.27-50.92,39.11Zm-74.82,57.44,50.92-39.11L2202.89-1475l-50.93,39.1-89.27-116.27Zm-74.82,57.46,50.92-39.1,89.28,116.25-50.93,39.1-89.27-116.25ZM1913-1437.29h0L2002.32-1321l50.92-39.11L1964-1476.39l-50.92,39.1Zm-74.82,57.44,50.92-39.1,89.28,116.27-50.92,39.11-89.28-116.28Zm-74.82,57.44h0l89.27,116.28,50.92-39.1-89.27-116.25-50.92,39.07Zm-74.83,57.47,50.93-39.1,89.28,116.28-50.93,39.1-89.28-116.28Zm-74.82,57.45h0L1703-1091.22l50.92-39.1-89.28-116.27-50.92,39.1ZM1538.9-1150l50.95-39.13,89.28,116.27-51,39.13L1538.9-1150Zm-74.82,57.44h0l89.27,116.27,50.93-39.1L1515-1131.68l-50.92,39.1Zm-74.82,57.47,50.92-39.11,89.28,116.28-50.92,39.1-89.28-116.27Zm-74.82,57.44h0l89.27,116.28,50.93-39.1-89.28-116.28-50.92,39.1Zm-74.83,57.44,50.92-39.1L1379.81-843l-50.92,39.1-89.28-116.28Zm-74.82,57.48h0l89.27,116.24,50.93-39.1-89.27-116.25-50.93,39.11ZM1090-805.31l50.92-39.11,89.28,116.28L1179.24-689,1090-805.31Zm-74.82,57.44h0l89.27,116.28,50.93-39.11L1066.07-787l-50.92,39.1ZM940.32-690.4l50.92-39.1,89.28,116.24-50.92,39.11L940.32-690.4ZM865.5-633h0l89.27,116.28,50.93-39.11L916.42-672.06,865.5-633ZM2104.7-1807.27h0L2194-1691l50.92-39.1-89.27-116.26-50.93,39.09Zm-74.82,57.45,50.92-39.1,89.28,116.27-50.92,39.1-89.28-116.27Zm-74.82,57.46h0l89.27,116.25,50.93-39.08L2006-1731.47l-50.92,39.11Zm-74.82,57.44h0l89.27,116.28,50.93-39.11L1931.16-1674l-50.92,39.1Zm-74.83,57.44,50.93-39.1,89.27,116.28-50.92,39.1-89.28-116.28ZM1730.59-1520h0l89.28,116.25,50.92-39.11-89.28-116.25L1730.59-1520Zm-74.82,57.44,50.92-39.1L1796-1385.39,1745-1346.28l-89.27-116.28ZM1581-1405.12h0l89.27,116.28,50.93-39.11-89.28-116.27-50.92,39.1Zm-74.82,57.44,50.92-39.07,89.27,116.25-50.92,39.1-89.27-116.28Zm-74.85,57.47h0l89.28,116.28,50.94-39.1-89.28-116.28-50.94,39.1Zm-74.83,57.47,50.93-39.1,89.27,116.28-50.92,39.1-89.28-116.28Zm-74.82,57.45h0L1370.91-1059l50.92-39.1-89.28-116.28-50.92,39.11Zm-74.82,57.44,50.92-39.11L1347-1040.68l-50.92,39.1-89.27-116.27ZM1132-1060.38h0l89.27,116.27,50.93-39.1-89.28-116.28L1132-1060.38Zm-74.82,57.44,50.92-39.1,89.27,116.27-50.92,39.11-89.27-116.28Zm-74.83,57.45h0l89.28,116.27,50.92-39.11L1033.26-984.6l-50.92,39.11ZM907.52-888l50.92-39.1,89.28,116.28-50.93,39.07L907.52-888Zm-74.83,57.44h0L922-714.31l50.93-39.1L883.62-869.69l-50.93,39.1Zm-74.81,57.45,50.92-39.1L898.07-696l-50.92,39.11L757.88-773.14Zm1239.2-1174.3,50.92-39.1,89.27,116.27-50.92,39.1-89.27-116.27ZM1922.26-1890h0l89.28,116.3,50.92-39.1-89.28-116.3-50.92,39.1Zm-74.83,57.48,50.93-39.09,89.27,116.26-50.92,39.1-89.28-116.27Zm-74.82,57.45,50.92-39.09,89.28,116.25-50.92,39.11-89.28-116.27Zm-74.82,57.45h0l89.27,116.26,50.92-39.08-89.27-116.28-50.92,39.1ZM1623-1660.19l50.92-39.1L1763.17-1583l-50.92,39.1L1623-1660.19Zm-74.83,57.44h0l89.28,116.28,50.92-39.1-89.27-116.28-50.93,39.1Zm-74.82,57.48,50.92-39.1,89.28,116.27L1562.6-1429l-89.28-116.25Zm-74.82,57.44h0l89.27,116.28,50.92-39.11-89.27-116.27-50.92,39.1Zm-74.85,57.47,50.95-39.13,89.28,116.28-51,39.12-89.27-116.27Zm-74.82,57.44h0l89.27,116.27,50.93-39.09L1299.75-1412l-50.92,39.1ZM1174-1315.45l50.92-39.1,89.28,116.25-50.92,39.1L1174-1315.45ZM1099.18-1258h0l89.27,116.27,50.93-39.1-89.27-116.28L1099.18-1258Zm-74.82,57.44,50.92-39.11,89.28,116.28-50.92,39.1-89.28-116.27Zm-74.83,57.44h0l89.28,116.27,50.92-39.1-89.27-116.25-50.93,39.08Zm-74.82,57.47,50.92-39.1,89.28,116.28L964-969.38l-89.28-116.27Zm-74.82,57.44h0l89.27,116.28L940.09-951l-89.27-116.28-50.93,39.1Zm-74.82,57.44,50.92-39.1,89.28,116.28-50.92,39.1L725.07-970.77ZM650.24-913.3h0L739.52-797l50.92-39.07L701.17-952.4l-50.93,39.1ZM1889.45-2087.62h0l89.28,116.27,50.92-39.09-89.28-116.28-50.92,39.1Zm-74.82,57.48,50.92-39.1L1954.83-1953l-50.93,39.16-89.27-116.28Zm-74.83,57.43h0l89.28,116.27,50.92-39.1-89.27-116.27-50.93,39.1ZM1665-1915.29h0l89.28,116.3,50.92-39.1-89.28-116.29L1665-1915.29Zm-74.82,57.49,50.92-39.1,89.28,116.27-50.93,39.1-89.27-116.27Zm-74.82,57.44h0l89.27,116.27,50.93-39.1-89.28-116.27-50.92,39.1Zm-74.83,57.45,50.93-39.1,89.27,116.28-50.92,39.11-89.28-116.29Zm-74.82,57.45h0L1455-1569.18l50.92-39.1-89.28-116.28-50.92,39.1ZM1290.87-1628l50.92-39.1,89.28,116.28-50.93,39.1L1290.87-1628ZM1216-1570.54h0l89.28,116.27,51-39.1L1267-1609.64l-51,39.1Zm-74.82,57.47,50.92-39.11,89.28,116.25-50.93,39.1-89.27-116.24Zm-74.82,57.44h0l89.27,116.27,50.93-39.1-89.28-116.28-50.92,39.11Zm-74.83,57.44,50.92-39.1L1131.75-1321l-50.92,39.1-89.28-116.28Zm-74.82,57.47h0L1006-1224.47l50.92-39.1-89.28-116.25-50.92,39.1Zm-74.82,57.45,50.92-39.11,89.28,116.27L931.19-1167l-89.28-116.27Zm-74.82,57.44h0l89.27,116.27,50.93-39.1L818-1264.94l-50.92,39.11Zm-74.82,57.44,50.91-39.08,89.28,116.25-50.92,39.1-89.27-116.27Zm-74.83,57.47h0l89.28,116.27,50.92-39.1L668.36-1150l-50.92,39.1Zm-74.82,57.44,50.92-39.1,89.28,116.27L631.89-937.2l-89.27-116.28ZM1781.82-2227.8l50.92-39.1L1922-2150.62l-50.92,39.1-89.28-116.28ZM1707-2170.31h0L1796.28-2054l50.92-39.1-89.28-116.27-50.92,39.1Zm-74.82,57.42,50.92-39.1,89.28,116.28-50.93,39.1-89.27-116.28Zm-74.82,57.48,50.92-39.1,89.27,116.28-50.92,39.1-89.27-116.28ZM1482.53-1998h0l89.28,116.27,50.92-39.1-89.28-116.27-50.92,39.1Zm-74.82,57.42,50.92-39.09,89.28,116.27L1497-1824.26l-89.28-116.3Zm-74.82,57.49h0l89.27,116.27,50.93-39.11-89.28-116.26-50.92,39.1Zm-74.82,57.44,50.92-39.12,89.28,116.29-50.93,39.1-89.27-116.27Zm-74.83,57.45h0l89.28,116.29,50.92-39.11-89.28-116.28-50.92,39.1Zm-74.85,57.48,50.95-39.13,89.28,116.28-50.95,39.12-89.28-116.27Zm-74.82,57.44h0L1122.84-1537l50.93-39.1-89.27-116.28-50.93,39.1Zm-74.82,57.45,50.92-39.11L1099-1518.64l-50.92,39.1-89.28-116.27Zm-74.82,57.47h0L973.2-1422.1l50.92-39.07-89.27-116.27-50.92,39.1ZM809.1-1480.9,860-1520l89.28,116.27-50.92,39.1L809.1-1480.9Zm-74.82,57.44h0l89.27,116.28,50.93-39.1-89.27-116.28-50.93,39.1ZM659.46-1366l50.92-39.1,89.28,116.25-50.92,39.1L659.46-1366Zm-74.82,57.44h0l89.27,116.28,50.93-39.1-89.28-116.28-50.92,39.1Zm-74.83,57.44,50.92-39.1L650-1173.93l-50.92,39.1-89.28-116.28ZM435-1193.66h0l89.27,116.27,50.93-39.1-89.28-116.25L435-1193.66ZM1599.37-2310.49l50.93-39.1,89.27,116.27-50.92,39.1-89.28-116.27Zm-74.82,57.42h0l89.28,116.28,50.92-39.1-89.28-116.28-50.92,39.1Zm-74.82,57.49h0L1539-2079.31l50.93-39.1-89.28-116.27-50.92,39.1Zm-74.83,57.42,50.93-39.1L1515.1-2061l-50.92,39.1-89.28-116.28Zm-74.82,57.48h0l89.28,116.28,50.92-39.16L1351-2119.78l-50.93,39.1Zm-74.82,57.43,50.93-39.1,89.27,116.27-50.92,39.1-89.28-116.27Zm-74.82,57.43h0l89.28,116.27,50.92-39.1-89.28-116.27-50.92,39.1Zm-74.83,57.48,50.93-39.1,89.27,116.27-50.92,39.1-89.28-116.27Zm-74.84,57.48h0l89.28,116.25,50.94-39.12L1051.71-1890l-50.94,39.16Zm-74.83,57.43,50.92-39.1,89.28,116.28-50.92,39.08-89.28-116.26ZM851.12-1736h0L940.4-1619.7l50.92-39.09L902-1775.07,851.12-1736Zm-74.82,57.44,50.92-39.1,89.28,116.28-50.93,39.1L776.3-1678.53Zm-74.82,57.45h0l89.28,116.27,50.92-39.1L752.4-1660.19l-50.92,39.11Zm-74.83,57.47,50.93-39.11,89.27,116.28-50.92,39.1-89.28-116.27Zm-74.82,57.44h0l89.28,116.27L692-1429l-89.28-116.27-50.92,39.1ZM477-1448.73l50.92-39.1,89.28,116.28-50.93,39.1L477-1448.73Zm-74.82,57.47h0L491.46-1275l50.93-39.08-89.28-116.27-50.92,39.1Zm939.91-944.5,50.92-39.1,89.28,116.27-50.92,39.1-89.28-116.27Zm-74.82,57.42h0l89.27,116.28,50.92-39.1-89.27-116.28-50.92,39.1Zm-74.82,57.49,50.92-39.1,89.28,116.27-50.93,39.1-89.27-116.27Zm-74.83,57.42h0l89.28,116.28,50.92-39.1-89.28-116.28-50.92,39.1Zm-74.82,57.49,50.92-39.11L1183-2028.77l-50.92,39.1-89.28-116.27ZM968-2048.52h0l89.27,116.27,50.93-39.1-89.28-116.27L968-2048.52ZM893.14-1991l51-39.15,89.28,116.27-51,39.16L893.14-1991Zm-74.82,57.43h0l89.27,116.28,50.93-39.11-89.28-116.27-50.92,39.1Zm-74.83,57.48,50.93-39.1L883.69-1799l-50.92,39.1-89.28-116.25Zm-74.82,57.43h0L758-1702.44l50.92-39.08L719.59-1857.8l-50.92,39.1Zm-74.82,57.46,50.92-39.1,89.28,116.28L683.13-1645l-89.28-116.28ZM519-1703.8h0l89.28,116.28,50.92-39.1L570-1742.9,519-1703.8Zm-74.82,57.45,50.93-39.11,89.28,116.28-50.93,39.1L444.2-1646.35ZM380.87-1419q1.25,26.93,3.58,54.14l83.11,108.25-50.92,39.11L401-1238q5.78,33.2,13.1,66.54L500.37-1059,454-1023.43q4.85,15.16,10,30.29l54.69-42L608-918.87,519.65-851q6.24,14.12,12.77,28.16L626.34-895l89.28,116.28L600.48-690.29q7.47,13.23,15.18,26.36L734-754.77l89.28,116.24L695-540q8.58,12.35,17.43,24.63L841.6-614.62l89.28,116.28L802.39-399.68q9.72,11.56,19.57,22.95l127.27-97.7,89.28,116.27-115.87,89Q933.5-258.48,944.47-248l112.38-86.3L1146.13-218l-89.59,68.8q12.09,9.81,24.29,19.35l83.65-64.24,89.28,116.28-48.22,37q13.5,8.78,27.07,17.2l39.5-30.3,72,93.73q30.35,15.66,60.9,29.83l-1.34-1.75,50.92-39.1,68.78,89.56q36.59,13.23,73.25,24.18l40.42-31,40.26,52.43q22.71,5.26,45.36,9.61l-61.72-80.38,50.93-39.1,89.27,116.27L1783.7,183.7q36,5,71.61,7.74l-12-15.56,50.92-39.1,44.42,57.86q18.79,0,37.45-.72l-58-75.48,50.93-39.1,83.53,108.79q17.31-2,34.46-4.62L1993,61l50.92-39.1L2157.62,170q16-3.77,31.79-8.07L2067.83,3.52l50.92-39.1,135.81,176.87Q2269.35,136,2284,130.1l-141.3-184L2193.57-93l150.55,196.07c9.1-4.57,18.17-9.27,27.14-14.17L2217.47-111.38l50.93-39.08L2426.7,55.71q12.6-8.26,25-17L2292.29-168.83l51-39.1L2502.62-.4c7.73-6.45,15.36-13,22.81-19.73L2367.14-226.3l50.93-39.1L2571.83-65.13q10.56-11.12,20.68-22.54L2442-283.74l50.93-39.1,141.3,184q9.43-12.57,18.4-25.49L2516.78-341.18l50.93-39.1L2689.31-222q8.22-14.14,16-28.61L2591.61-398.65l50.93-39.1,94.07,122.53q7-15.86,13.36-32.09L2666.43-456.1l50.93-39.1,58,75.5q5.47-17.87,10.36-36l-44.42-57.84,50.93-39.1,11.94,15.56q6.6-35.11,11-71.19l-17.39,13.38-89.28-116.28,50.93-39.09,61.73,80.37q1.63-23,2.42-46.31l-40.24-52.44,40.4-31q-1.11-38.24-4.45-77l-68.76-89.56,50.92-39.1,1.34,1.72q-5.8-33.14-13.11-66.51l-72-93.74,39.49-30.33c-3.08-10.19-6.32-20.4-9.62-30.58l-48.21,37L2610-1304l83.66-64.23c-4.07-9.49-8.18-19-12.41-28.47l-89.61,68.79-89.26-116.24,112.38-86.3q-7.31-13.32-14.89-26.58l-115.86,89-89.28-116.27L2522-1682.09q-8.43-12.48-17.12-24.85l-128.49,98.66-89.27-116.27,129.18-99.2q-9.56-11.68-19.26-23.18l-128.27,98.48-89.28-116.3,118.31-90.83c-7.13-7.23-14.31-14.34-21.53-21.46l-115.13,88.45-89.28-116.28,93.92-72.16q-11.91-9.91-23.93-19.58l-88.34,67.84L1964.27-2145l54.69-42q-13.29-8.88-26.67-17.53l-46.37,35.63-86.31-112.4q-30.31-15.71-60.89-29.82l15.67,20.37-50.92,39.1-83.11-108.25q-25.68-9.23-51.38-17.42l3,3.88L1581-2334.4l-54.59-71.08q-22.71-5.3-45.37-9.62l76.06,99L1506.2-2277l-89.28-116.27,35.28-27.09c-13.82-2.28-27.62-4.39-41.39-6.21l-12.24,9.39-9.22-12q-20.53-2.3-41-3.87l26.3,34.27-50.93,39.09L1265-2436.21q-18.8.08-37.46.74l72.31,94.13-50.92,39.1-97.87-127.43q-17.31,2-34.46,4.61L1225-2283.86l-50.93,39.1-128-166.75q-16,3.75-31.79,8.08l135.92,177-50.92,39.1L949.14-2382.89c-9.87,3.59-19.67,7.29-29.39,11.22l155.63,202.72-50.92,39.1L859.58-2344.58c-9.12,4.55-18.17,9.22-27.12,14.11l168.1,218.95-50.92,39.1L777-2297.29c-8.4,5.52-16.72,11.16-25,17L925.74-2054l-51,39.1-173.7-226.23q-11.64,9.65-22.84,19.75l172.64,224.81L800-1957.52l-168.1-218.94c-7,7.4-13.93,15-20.67,22.59l164.88,214.74L725.14-1900,569.51-2102.76q-9.43,12.65-18.41,25.5l150.14,195.55-50.92,39.1-135.92-177c-5.5,9.45-10.85,18.95-16,28.63l128,166.73-50.92,39.1L467.07-1926.33q-6.94,15.88-13.34,32.1l97.87,127.44-50.93,39.1-72.3-94.17q-5.49,17.83-10.35,36l58.76,76.53-50.93,39.1-26.29-34.27q-3.76,20.18-6.83,40.58l9.22,12-12.23,9.4c-1.81,13.75-3.36,27.64-4.69,41.58L420.3-1628l89.28,116.28-50.92,39.1-76.06-99.07q-1.64,23-2.43,46.3l54.59,71.11-50.92,39.1-3-3.87Z" transform="translate(-257.12 3170.22)"/><path class="cls-1" d="M2089.17,283c163.62-22.55,316.9-82.94,449-184.35s230-233.89,294-386.13c15.47,118.4,40.24,282.32,76.89,458.93,72.56,349.39,253.35,672.69,235.28,700.89a28.12,28.12,0,0,1-16.39,12.05c-31.45,8.15-298.73-249.42-615.28-408.58-161.14-81-313.11-147.28-423.49-192.81ZM738.4-2245.33h0C276.24-1890.47,288.16-1099.31,765-478.25s1238.11,836.87,1700.26,482,450.24-1146-26.63-1767.07-1238.1-836.86-1700.26-482Zm-72.83-94.81c-514.54,395-512.48,1261.28,4.61,1934.72,290.1,377.84,680.69,614.67,1058.55,680.07C2401.92,540.85,2836.5,755,3013.92,975.26c180,223.59,1002,1293,1029.9,1338.07s67.09,149.56,105.56,178.92c59.72,45.62,313.82-149.47,285.21-219-18.46-44.75-109.32-109.62-145.64-148.2S3431.71,1016.29,3262.19,784.62c-167-228.29-261.66-703.39-345-1422.5,34.4-382-93.57-820.42-383.68-1198.26-517.08-673.44-1353.39-899.1-1867.93-504Z" transform="translate(-257.12 3170.22)"/><path class="cls-1" d="M439.48-1150.16C490.3-906.29,603.29-655.92,778-428.32c241.1,314,554.42,525.64,866.09,614,313.73,88.92,626,53.18,862.33-128.3s351.53-473.93,346.63-800c-4.89-323.92-128.46-681.27-369.56-995.25-174.74-227.62-387.45-401.38-610-513.5,206.05,111,402.18,275.86,565.1,488,476.87,621.06,488.79,1412.2,26.63,1767.07S1241.9,142.82,765-478.25C602.11-690.43,493.5-922.46,439.48-1150.16Z" transform="translate(-257.12 3170.22)"/><path class="cls-1" d="M3062.87,1036.8c246.44,312.17,955.06,1234.73,981,1276.53,27.89,45.06,67.09,149.56,105.56,178.92,59.72,45.62,313.82-149.47,285.21-219-18.46-44.75-109.32-109.62-145.64-148.2-33.68-35.76-742-958.59-979.94-1277.29Z" transform="translate(-257.12 3170.22)"/><path class="cls-1" d="M4125.78,2466c7.82,11.14,15.72,20.32,23.6,26.3a31.42,31.42,0,0,0,11.47,5.35l1.17-1.87c12.82-20.51,23.62-44.47,33.06-66.74,12.47-29.41,23.6-59.56,34.12-89.72q15.11-43.45,28.61-87.45c6.59-21.37,12.83-42.88,18.39-64.54,4.26-16.52,8.24-33.12,11.41-49.9.73-3.83,1.45-7.71,2-11.57l-.69-.73c-1.84-1.94-5.79-6.71-11.49-13.72-3.23,6.07-5.87,12.38-8.55,18.73-6.51,15.59-12.77,31.29-19.14,46.93q-11.7,28.55-23.58,57.07c-12.07,28.86-24.77,57.48-37.65,86-13.33,29.56-26.94,59-39.83,88.7-8.13,18.7-16.31,37.77-22.93,57.19ZM3967.09,2209.8q19,25.22,33.87,45c8.49-15.9,16-32.85,22.82-48.9,12.47-29.42,23.6-59.56,34.09-89.7q15.11-43.45,28.64-87.47c6.6-21.38,12.83-42.86,18.39-64.54,4.24-16.51,8.24-33.12,11.42-49.88.44-2.47.92-4.92,1.33-7.4L4105,1890.53c-2.73,5.34-5,10.91-7.38,16.47-6.51,15.56-12.77,31.25-19.17,46.89q-11.68,28.6-23.55,57.09c-12.1,28.86-24.79,57.47-37.65,86-13.33,29.54-26.94,59-39.86,88.7-3.45,8-6.92,16-10.29,24.13Zm-170.8-224.34q17.49,22.88,34.18,44.69c8.15-15.45,15.39-31.84,22-47.39,12.5-29.39,23.61-59.53,34.12-89.7q15.12-43.45,28.61-87.47c6.63-21.38,12.84-42.86,18.4-64.54,4.26-16.51,8.24-33.12,11.41-49.87.42-2.23.84-4.46,1.23-6.68l-12.78-16.62c-2.62,5.21-4.87,10.6-7.12,16-6.54,15.59-12.8,31.28-19.18,46.9q-11.68,28.59-23.57,57.11c-12.08,28.86-24.77,57.44-37.66,86-13.3,29.52-26.94,59-39.82,88.7-3.29,7.56-6.59,15.21-9.8,22.9Zm-171.24-223.29,34.26,44.58c8.1-15.38,15.31-31.64,21.85-47.08,12.47-29.42,23.6-59.56,34.09-89.73q15.15-43.45,28.64-87.47c6.59-21.35,12.83-42.86,18.39-64.51,4.23-16.53,8.24-33.15,11.42-49.9.41-2.26.86-4.54,1.24-6.85l-12.71-16.61c-2.67,5.26-5,10.71-7.23,16.17-6.52,15.58-12.78,31.28-19.19,46.92q-11.68,28.55-23.54,57.08c-12.08,28.86-24.8,57.47-37.65,86-13.33,29.52-26.94,59-39.85,88.69-3.26,7.52-6.52,15.09-9.72,22.74Zm-171.46-222.7q17.07,22.13,34.28,44.45c8.13-15.45,15.39-31.84,22-47.37,12.47-29.42,23.6-59.56,34.09-89.7q15.12-43.45,28.61-87.47c6.62-21.38,12.86-42.89,18.4-64.54,4.26-16.53,8.23-33.12,11.43-49.87q.72-3.88,1.4-7.76l-12.52-16.46c-2.81,5.52-5.21,11.22-7.57,16.9-6.55,15.58-12.81,31.28-19.18,46.92q-11.68,28.59-23.57,57.08c-12.08,28.86-24.77,57.47-37.63,86-13.33,29.53-27,59-39.85,88.69-3.31,7.63-6.65,15.34-9.88,23.13ZM3139.4,1134.34c6.27-4.89,12.56-9.6,18.71-14.17,23-17,46.67-33.28,70.27-49.45,22.93-15.72,45.92-31.39,68.77-47.26,15.08-10.52,30.23-21,45.42-31.33,12.55-8.52,25.1-17.06,37.91-25.16,4.11-2.62,8.23-5.18,12.49-7.46l9.46,12.52c-3.28,4-6.84,7.65-10.43,11.36-10.61,10.88-21.63,21.31-32.73,31.67-14.5,13.52-29.31,26.75-44.23,39.77-20.34,17.81-40.77,35.57-61.39,53.05-21.4,18.11-43.08,36.06-65.43,52.95-5.76,4.35-11.74,8.8-17.87,13.17q-15.95-20.51-30.95-39.66Zm-70.63-90.06h0c9.71,12.33,20,25.41,31,39.41,19.28-15.23,38.15-31,56.91-46.76q38-31.89,75.48-64.23Q3262,947.11,3291.48,921c14.49-12.89,28.94-25.83,43.13-39l-12.69-16.93c-15.67,10.75-31.17,21.71-46.68,32.67q-30,21.21-59.89,42.7c-27.8,19.9-55.77,39.54-83.74,59.19-21,14.75-42.1,29.53-62.84,44.67Zm213.07,273.1q16.9,21.84,34.26,44.26c8.35-15.7,15.73-32.37,22.43-48.21,12.47-29.39,23.6-59.53,34.1-89.7q15.15-43.45,28.64-87.47c6.59-21.37,12.83-42.86,18.39-64.54,4.23-16.5,8.24-33.12,11.41-49.87.61-3.2,1.2-6.43,1.73-9.66l-12.08-16c-3.15,5.92-5.76,12.13-8.35,18.34-6.52,15.58-12.78,31.25-19.18,46.89-7.79,19.07-15.58,38.11-23.54,57.11-12.08,28.86-24.77,57.44-37.65,86-13.34,29.53-26.94,59-39.83,88.7-3.48,8-7,16-10.33,24.15Z" transform="translate(-257.12 3170.22)"/><path class="cls-1" d="M1670.58-2467.35q-23.08-7.5-46.2-14.22-3.45,20.82-6.21,41.71-5.07,38.76-7.73,77.69c15.67,4.78,31.34,10,47,15.42q2.53-43.53,8.22-86.85,2.2-16.89,4.93-33.75ZM1789-2423.24c-15.22-6.43-30.48-12.46-45.76-18.32-.87,6-1.72,11.89-2.5,17.81q-6.88,52.42-8.83,105.23c15.81,6.55,31.59,13.32,47.33,20.49a1078.84,1078.84,0,0,1,9-119.46c.25-1.93.53-3.87.79-5.75Zm118,55.27q-22.78-11.79-45.75-22.71a1005.2,1005.2,0,0,0-6.34,129.53c16.29,8.54,32.53,17.3,48.7,26.47a954.59,954.59,0,0,1,3.39-133.29Zm119.65,68.18q-23.25-14.52-46.73-28.17a877.66,877.66,0,0,0,3.21,141.37q26.6,17.16,52.85,35.51a826.09,826.09,0,0,1-9.33-148.71ZM2153-2213.57q-25-18.61-50.27-36.2A748.42,748.42,0,0,0,2128-2082q35.28,28.33,69.66,58.84A698.94,698.94,0,0,1,2153-2213.57Zm483.42,524.38q-23.67-37.23-49.26-73.83a577.13,577.13,0,0,1-193.59-162,579.32,579.32,0,0,1-87.12-160.55q-32.71-30.3-66.32-58.74a624,624,0,0,0,115.48,248.43,623.84,623.84,0,0,0,280.81,206.69Zm86.83,150.85q-14.23-27.53-29.53-54.86a703.11,703.11,0,0,1-183.79-70.91q25.76,38.37,49.37,77.37a752.3,752.3,0,0,0,163.95,48.4ZM2785.43-1406q-10.65-25.12-22.13-50.15c-6-.64-12.05-1.37-18.08-2.14a835.48,835.48,0,0,1-129.42-27.64q14.91,28.59,28.67,57.36a873.1,873.1,0,0,0,94.51,17.73q23.17,3,46.45,4.84Zm48.12,126.1q-8.22-24.21-17.23-48.39-43.74-1.73-87.19-7.41-23.39-3-46.62-7.29,10.72,25.92,20.48,51.93c6.63,1,13.25,2,19.91,2.84a1000.46,1000.46,0,0,0,110.65,8.32Zm37,123.76q-6.21-23.88-13.13-47.78a1078.72,1078.72,0,0,1-126.49-7c5.28,16.59,10.23,33.18,15,49.73a1126.77,1126.77,0,0,0,124.65,5Zm27.08,123q-4.3-23.79-9.35-47.62a1203.48,1203.48,0,0,1-122.23-2.69q5.63,24.38,10.44,48.7,60.41,3.7,121.14,1.61ZM1197.32,70.77q21.27,12.9,42.75,25A1127.93,1127.93,0,0,0,1267.4-25.92c-14.79-8.85-29.53-17.92-44.17-27.33a1080.21,1080.21,0,0,1-25.91,124ZM1087.77-1.06q21,14.9,42.32,29.13A1006.88,1006.88,0,0,0,1150.61-81q1.31-10,2.41-20-22.61-16.15-44.9-33.17-1.92,23.5-5,46.89-5.7,43.38-15.37,86.17ZM978-85.31Q999.16-67.73,1020.68-51q4.26-23,7.32-46.15a875.19,875.19,0,0,0,7.28-95.88c-16.17-13.77-32.18-28-48-42.49a831,831,0,0,1-6.72,132.14q-1.18,9.06-2.58,18ZM863.54-188q22.44,21.84,45.36,42.7a752.59,752.59,0,0,0-4.41-170.88q-31.61-32.82-62-67.69A702.74,702.74,0,0,1,863.54-188ZM448.25-768.47q18.72,39.79,39.61,79.24A579,579,0,0,1,620.47-563.61,577,577,0,0,1,727-334.75q28.75,34.19,58.6,66.65A623.87,623.87,0,0,0,658.45-592.77a624.43,624.43,0,0,0-210.2-175.7Zm-66.42-160q10.49,29,22,58a699,699,0,0,1,172.43,92.34q-20.67-41.09-38.88-82.52a751.28,751.28,0,0,0-155.56-67.77ZM338-1067.18q7.13,26.22,15.13,52.41a829.49,829.49,0,0,1,141.3,47.43q-11-30.06-20.65-60.2A878.59,878.59,0,0,0,338-1067.18ZM308-1198q4.69,25,10.17,50.07a951,951,0,0,1,129.65,31.15q-7-27-13-53.89A1001.74,1001.74,0,0,0,308-1198Zm-18.62-127.18c1.71,16.28,3.61,32.59,5.85,49,1.92.22,3.85.47,5.77.72a1088.23,1088.23,0,0,1,117.71,22.15q-4.24-25.55-7.55-51-51.51-11.78-103.93-18.65-8.91-1.17-17.85-2.2Zm111-107.84q-38.32-7.48-77-12.58-20.93-2.72-41.94-4.76.51,24,1.83,48.31,17,1.72,33.87,3.92,43.26,5.69,86,14.5c-1.21-16.52-2.18-33-2.77-49.39ZM3002.67-22.61q-4.12-24-8.18-48.7-60.28,26.88-120.42,59,4.26,24.44,8.85,49.57,59.74-32.61,119.75-59.84Zm20.65,113.77q-4.59-24-9.13-48.72Q2955,71.29,2895.75,105.28q4.8,24.59,9.9,49.57,58.8-34.5,117.67-63.69Zm23.3,114.08q-56.77,30.69-113.8,66.35-6.39-24.16-12.25-48.7,57.91-35.65,115.75-66.32,5.08,24.72,10.3,48.67Zm26.6,113.94q-6-23.74-11.77-48.45-54.67,31.47-109.82,67.54,7.18,24.09,14.73,47.62,53.55-35.52,106.86-66.71ZM2569.3,648.61Q2613.83,604,2662.89,560q21.42,13.15,42.22,26.52-48.18,42.59-92,86-21.42-11.89-43.78-23.91Zm-103.81-53.74q22.59,11.32,44.36,22.52,44.3-46.92,93.48-92.79-21.73-12.44-43.88-24.43-49.44,46.69-94,94.7ZM2360.93,544q43.17-49.71,91.31-98.18,22.5,11,45.31,22.35-48.47,47.88-91.9,97.24-22-10.65-44.72-21.41ZM2256.15,495.6q22.76,10.31,44.92,20.51,41.78-50.83,88.75-100.24-23.09-10.94-45.61-21.38-46.52,49.8-88.06,101.11ZM1351.93,153.73q17.71-58,29.72-117.48C1366.83,29,1352,21.45,1337.31,13.6a1206.15,1206.15,0,0,1-29,118.81q21.74,11,43.6,21.32Z" transform="translate(-257.12 3170.22)"/><path class="cls-1" d="M1903.63-2235.76c-10-5.3-20-10.53-30.07-15.6,10.06,5.46,20.11,11,30.12,16.68l0-1.08ZM2035-2157.91q-26-17-52.25-33l.43,4.27q26.6,17.16,52.85,35.51-.54-3.4-1-6.83Zm155.2,114.8q-32.43-26.81-65.59-51.74,1.6,6.41,3.33,12.81,28,22.45,55.51,46.44l6.07,5.29.9.8c2.4,2.16,4.81,4.27,7.2,6.37q-3.87-9.9-7.42-20ZM2598-1571.55q-21.89-35.6-45.56-70.68-21.61-10.2-42.58-21.88c1.95,2.89,3.9,5.82,5.85,8.74,4,6,7.95,12,11.85,18.09s7.63,11.8,11.35,17.7c1.76,2.75,3.48,5.51,5.21,8.26q7.68,12.28,15.11,24.58,19.15,8.13,38.77,15.19Zm83.41,151.18q-13.69-27.8-28.48-55.44-18.69-4.64-37.15-10.13l.09.11c3.12,6,6.17,12,9.23,18,1.76,3.43,3.48,6.88,5.21,10.32q6,12,11.74,23.94l2.37,4.95,0,.06q18.41,4.5,37,8.21ZM2740.9-1286q-10.07-25.5-21-50.93-18.73-2.67-37.4-6l.06.08c1.61,3.9,3.2,7.83,4.78,11.72,2.12,5.26,4.24,10.55,6.29,15.83,3,7.55,5.87,15.12,8.74,22.69l.31.81.3.8c6.63,1,13.25,2,19.91,2.84,6,.78,12,1.53,18,2.2Zm44.72,127.94q-7.5-24.56-15.83-49.1-19.45-1.5-38.82-3.73l0,.11q3.89,12.19,7.57,24.38c1.51,5.07,3,10.11,4.45,15.14l.25.78c.81,2.84,1.65,5.71,2.46,8.55l.22.77c13.19,1.26,26.44,2.32,39.68,3.1Zm32.87,125.23q-5.29-24.14-11.41-48.31-20.53-.8-41-2.28v0c1.66,7.21,3.28,14.39,4.81,21.57,1.06,4.79,2.06,9.57,3,14.36.88,4.23,1.72,8.46,2.56,12.7l0,0c14,.86,27.93,1.48,42,1.89ZM1328.93,53.82q21.78,12.1,43.71,23.49,4.84-20.46,9-41.06h0q-5.82-2.86-11.64-5.78-6.54-3.25-13.08-6.63c-6.55-3.33-13.08-6.76-19.6-10.24q-3.84,20.17-8.38,40.22ZM1216.8-14.73q21.57,14.36,43.35,27.94,4-19.48,7.25-39.13c-3-1.78-6-3.59-9-5.4-4.48-2.72-9-5.45-13.43-8.21-7.26-4.51-14.51-9-21.73-13.69l0,0q-2.87,19.34-6.43,38.52ZM1104.3-96.44Q1126-79.32,1148.09-63c.89-6,1.73-12,2.52-18q1.31-10,2.41-20l-.71-.5-.71-.5c-6.66-4.79-13.3-9.6-19.92-14.5-4.41-3.23-8.81-6.52-13.2-9.83-3.46-2.58-6.92-5.23-10.36-7.84q-1.55,18.87-3.82,37.68ZM987.47-197q22.86,21.42,46.2,41.83,1.21-18.87,1.61-37.83l-4.33-3.7q-10-8.59-19.9-17.37c-2.91-2.55-5.82-5.17-8.72-7.76q-7.53-6.77-15-13.61l-.06,0q.56,19.23.22,38.49ZM852.63-337.06q27.76,32,56.51,62.25-1.75-20.7-4.65-41.35-10-10.41-19.88-21-3.3-3.51-6.57-7.07-7.15-7.77-14.24-15.61t-14.36-16.09c-2.32-2.61-4.64-5.28-7-7.93q5.89,23.3,10.16,46.79ZM525.82-867.24q15.51,38.46,33.07,76.73,8.77,6,17.38,12.33c-1.48-3-2.95-5.87-4.4-8.82l-.09-.17,0-.05-.14-.31c-1.31-2.61-2.61-5.26-3.89-7.91q-16-32.52-30.41-65.28c-3.81-2.21-7.64-4.37-11.49-6.52Zm-56.11-161.83q8.58,29.46,18.35,59c2.12.89,4.22,1.81,6.33,2.73q-11-30.06-20.65-60.2l-4-1.53Zm-30.23-121.09q3.43,16.48,7.26,33l1,.34q-4.33-16.7-8.3-33.37Z" transform="translate(-257.12 3170.22)"/><path class="cls-1" d="M2319.48,197A887.78,887.78,0,0,0,2523.54,79.62a888.2,888.2,0,0,0,166-166.85c48.76-64,89-134.4,120.56-209.59a23.9,23.9,0,0,1,31.31-12.69,23.93,23.93,0,0,1,14.39,18.89c7.68,58.84,17.7,129.11,30.39,206.87s28,162.47,46.23,250.28c43.72,210.62,127.66,412.73,182.45,544.62,38.16,91.9,63.32,152.43,49.46,174.05a52.76,52.76,0,0,1-13,13.92,51.07,51.07,0,0,1-17.43,8.35,23.63,23.63,0,0,1-14.3-.75c-27-7-72.33-41.89-135.51-90.46-113.24-87-288.74-221.92-482.16-319.15-80.1-40.31-158.08-77-229.84-109.27s-137.16-60.17-192-82.79a23.9,23.9,0,0,1,6.64-45.87c80.52-11.16,158.57-31.75,232.77-62.23ZM2173.16,292.3h0c36.88,15.72,76.67,33.11,118.52,52,72.11,32.44,150.68,69.41,231.72,110.15,197.46,99.3,375.24,235.92,489.93,324.09,64,49.17,106.51,81.85,108.49,82.74l.13,0a3.25,3.25,0,0,0,1.06-.5,5,5,0,0,0,1.25-1.34c.25-.39-21.09-51.84-53.51-129.88-55.44-133.42-140.35-337.92-185.08-553.22C2867.25,87.44,2851.8,2,2839.08-76.07c-7.4-45.28-13.91-88.22-19.59-127.91a982.52,982.52,0,0,1-91.84,145.75,935.24,935.24,0,0,1-174.94,175.84,937,937,0,0,1-215,123.62,987.14,987.14,0,0,1-164.53,51.07ZM423.44-1462h0C428.19-1147.18,548.76-799.24,784-492.83s540.27,512.72,843.21,598.6c300.48,85.17,598.71,51.57,823.48-121s334.25-452,329.54-764.31c-4.76-314.85-125.32-662.79-360.57-969.19s-540.27-512.7-843.21-598.59c-300.48-85.19-598.72-51.62-823.49,121s-334.24,452-329.54,764.31Zm300.37-802.33h0c-237.39,182.3-353,475.87-348.09,803.14C380.6-1136.5,504.44-778.32,746-463.67s555.65,526.78,868.09,615.34C1929,241,2242.49,205,2479.88,22.76s353-475.85,348.1-803.11c-4.89-324.73-128.71-682.88-370.31-997.55s-555.66-526.79-868.1-615.34c-314.9-89.24-628.36-53.33-865.76,128.9ZM304.9-1477.26h0c.82,345.1,129,724.77,384.27,1057.26C829.85-236.79,994.22-87.23,1169.1,25.12c181.39,116.53,374.21,193.18,563.73,226a23.78,23.78,0,0,1,5.86,1.81c336.79,133.2,614.09,253.48,829.71,368.16,217.81,115.84,373.24,226.44,464.14,339.29,86.44,107.34,321.11,410,544.78,700.58,242.35,314.88,471.95,615.84,486.76,639.74,9.71,15.73,20.45,37.72,32,61.37,21.63,44.25,46.4,94.88,67.82,111.24,7.35,5.62,26.47,1.39,50.91-8.68,29.58-12.2,63.79-33.18,95.68-57.7s61-52.1,80.46-77.53c16-21,25.05-38.38,21.51-46.92-10.27-24.94-52.79-62-89.95-94.27-19.87-17.28-38.35-33.34-51-46.78-19.29-20.49-250.78-320.05-492.41-635.52-223-291.1-454.73-595.9-536.13-707.14-85.55-116.94-152.23-295.67-207.92-536-55.19-238.21-99.83-537.58-141.57-897.9a23.39,23.39,0,0,1-.09-4.87h0c17.26-191.56-7-397.64-72.75-603-63.39-198-165.42-395.37-306.1-578.59-255.3-332.48-589-554.32-922.17-644.25-330.94-89.3-661.16-48.15-912.21,144.62S304.08-1820,304.9-1477.26ZM651-2359.15c-263.49,202.32-394.72,524.57-393.87,882C258-1121.94,389.39-731.78,651.19-390.83,795.08-203.45,963.64-50.19,1143.29,65.23c186.21,119.61,384.23,198.48,579,232.55,334.8,132.45,610.19,251.87,823.73,365.47,212.15,112.83,362.69,219.44,449.21,326.9S3316.13,1399.82,3539.5,1690c241.43,313.7,469.86,613,484,635.93,8.71,14,18.87,34.81,29.81,57.16,24,49.06,51.4,105.17,81.48,128.13,22.77,17.4,58.5,14,98.35-2.45,33.57-13.83,71.62-37,106.52-63.87s67.18-57.55,89.22-86.38c26.16-34.26,38.66-67.94,27.75-94.43-14.42-35-61.54-76-102.73-111.8-18.78-16.34-36.23-31.5-47.56-43.52-18.45-19.63-248.69-317.64-489.4-631.9-222.68-290.69-454.17-595.16-535.57-706.43s-145.61-284.31-199.83-518.37C3027,16.44,2982.69-280.46,2941.2-638.11c17.39-197-7.69-408.66-75.17-619.45-65.1-203.36-169.63-405.77-313.52-593.19-261.8-340.91-604.79-568.62-947.69-661.16C1259.7-2605,914.48-2561.48,651-2359.15Z" transform="translate(-257.12 3170.22)"/><path class="cls-1" d="M3118.9,1069.41l-17-21.65,207.67-159.44,16.54,22,21.31,28.33-206.64,158.66-21.84-27.91Zm996.28,1380.23c9.1,15,18.36,27.86,27.61,36.88,12.8-24.69,24.29-50.65,35.09-76q25.92-60.87,50.48-122.34c18.51-46.48,35.41-93.85,49.59-141.83,2.51-8.43,5-16.95,7.35-25.49-4.89-5.81-13.41-16.34-25.18-31.2-5.71,15-11.33,29.89-17.09,44.78-17.87,46.28-36.21,92.34-54.38,138.52q-23.88,60.61-49.71,120.45c-8,18.56-16.11,37.32-23.76,56.21ZM3955.1,2193.91q15.77,20.87,29.08,38.52c7.32-15.61,14.22-31.42,20.84-47q25.93-60.87,50.49-122.34c18.5-46.48,35.4-93.85,49.59-141.83,2.17-7.37,4.34-14.81,6.43-22.26l-25-32.4c-5.42,14.25-10.8,28.53-16.3,42.75-17.88,46.28-36.21,92.34-54.39,138.51q-23.86,60.62-49.7,120.45-5.52,12.73-11,25.61ZM3782.68,1967.7c9.94,12.94,19.71,25.74,29.28,38.24,7.07-15.17,13.78-30.5,20.2-45.64q25.93-60.87,50.49-122.35c18.51-46.47,35.4-93.84,49.6-141.82,2.11-7.18,4.22-14.39,6.26-21.65l-25-32.59c-5.4,14.11-10.72,28.24-16.17,42.33-17.87,46.28-36.21,92.34-54.38,138.51q-23.88,60.62-49.71,120.45-5.27,12.19-10.55,24.52Zm-172.77-225.26,29.31,38.13c7-15.09,13.69-30.34,20.09-45.4q25.92-60.86,50.48-122.34c18.51-46.47,35.4-93.84,49.6-141.82q3.21-10.86,6.32-21.85l-25-32.64c-5.43,14.19-10.78,28.41-16.26,42.57-17.86,46.29-36.21,92.35-54.38,138.52q-23.88,60.62-49.71,120.45-5.22,12.11-10.46,24.38Zm-173.08-224.65,29.36,38c7.1-15.2,13.81-30.59,20.26-45.76q25.93-60.85,50.49-122.34c18.51-46.48,35.4-93.85,49.59-141.82q3.34-11.28,6.57-22.71l-24.88-32.68c-5.56,14.48-11,29-16.62,43.47-17.86,46.29-36.2,92.35-54.38,138.52q-23.88,60.62-49.7,120.45-5.34,12.36-10.69,24.85Zm-173.33-224h0l29.39,37.88c7.27-15.53,14.11-31.25,20.71-46.73q25.92-60.87,50.48-122.34c18.51-46.48,35.41-93.85,49.59-141.83,2.4-8.09,4.79-16.28,7.08-24.48L3396,963.57c-5.76,15.11-11.46,30.23-17.28,45.28-17.87,46.28-36.21,92.34-54.38,138.51q-23.88,60.63-49.71,120.45c-3.7,8.6-7.45,17.26-11.16,26Zm-212.79-233.86q14.61,18.54,30.56,38.85,17.33,22.05,36.51,46.62a23.82,23.82,0,0,0,33.31,4.23l.06.08,244.13-187.44a24,24,0,0,0,4.43-33.59c-.39-.5-.81-1-1.23-1.47q-18.08-23.93-34.34-45.62-16.2-21.54-30.95-41.27a23.87,23.87,0,0,0-33.39-4.79l-.23.17-.05-.05-246,188.85a23.92,23.92,0,0,0-4.4,33.57c.5.67,1,1.28,1.56,1.86Z" transform="translate(-257.12 3170.22)"/><circle class="cls-2" cx="3459.03" cy="914.94" r="885.57"/><path class="cls-1" d="M3054-1850.46c-2.44-3.3-4.62-6.49-6.42-9.51-6.13-10.18-12.28-21.17-17.87-32.61-1.37,1.08-1.09,4,1.36,9.22,5.6,12.18,14.08,22.88,22.93,32.9ZM4112-3047.58c290.33,145.36,489.68,445.52,489.68,792.29-4.2,493.93-397.7,889.16-892.28,885.54-387.31-2.84-724-255.15-839.62-624.08C3128-1509.2,3780.46-1393.32,4181.16-1769c15.61-14.64,30.23-29.55,44.78-45.24,16.26-17.87,18.65-16.52,1.65-31.73-120-107.68-160.76-339.26-185.69-492.08-1.67-10.3-3.37-20.65-5.06-31-10.39-62.89-21.44-125.55-36.38-187.58-11.11-46-24.11-91.52-39.58-136.2-12.55-36.19-26.85-71.76-42.63-106.65-10.74-23.73-22.35-47.13-32.26-71.31-.95-2.28-5.79-13.78-3.65-15.48,2.87-.86,11.5,9.05,13.42,11.26,16.2,18.73,29.72,39.45,42.36,60.67,78.23,131.47,118.94,280.81,151.54,429.07,15.44,70.23,29,140.92,45.81,210.81,23.21,95.39,61.72,220.37,123.28,297.6,12.39,15.48,18.62,1.31,29.11-13,103.62-140.91,157.41-315.3,158.22-489.56,0-273.24-131.22-515.81-334.05-668.17Z" transform="translate(-257.12 3170.22)"/><path class="cls-3" d="M3737.81-2933.09c28.45,19.33,47.42,36.78,68.87,63.66a273.46,273.46,0,0,1,22.26,31.6c66.39,115.06,85.78,248.51,105.57,377.72,24.33,149,54.43,283.41,105.15,425.83,20.21,55.64,43.3,109.87,72.58,161.27,21.85,38.67,44.53,72.62,80,100.92,33.4,25,62.26,40.55,102.67,51.4a220.8,220.8,0,0,0,42.48,6.6c22.68,1.42,41.23,0,63.09-5.19,2.89-.94,13.2-3.77,20.62-7.54a47.55,47.55,0,0,1,.82-8v-1.88c-10.31-1.89-28.86-.48-34.22-.48-16.5-.47-30.52-1.41-46.6-4.24a302.2,302.2,0,0,1-49.07-16c-28.45-13.21-49.49-26.88-73.4-47.16-27.22-25.94-46.19-58.47-63.51-91.48-25.15-50.46-45.36-102.81-63.09-156.09-44.12-140.53-73-274-96.49-419.23l-2.48-17.44c-21.44-133.93-44.53-262.2-117.11-379.14-10.72-17-21.85-31.13-35-46.22-23.91-26.41-45.36-43.85-75.46-62.72-52.37-31.12-97.73-45.27-157.52-56.11a518.27,518.27,0,0,0-73.82-6.61h-7c-18.14.48-36.7,1.42-56.9,3.31-92.37,11.78-163.3,35.36-246.6,77.33a5.57,5.57,0,0,0-1.65,1c-60.61,32.53-107.62,64.6-157.93,111.29-35.05,33.48-68.45,72.15-88.66,116-1.24,3.3-7.42,17.92-7.83,23.58v.47a2.28,2.28,0,0,0,.41,1.42c2.47.94,13.61-15.57,15.67-17.92a595.23,595.23,0,0,1,97.32-104.69c51.13-42,98.14-71.21,158.34-100a25.13,25.13,0,0,0,3.72-1.89c78.34-36.31,167-61.3,253.6-64.6,36.29-1,66.8.94,102.68,8,52.37,11.32,92.78,24.52,138.55,53.29ZM3537.4-1612.7c19.38,9.43,38.35,18.39,57.73,27.82,70.52,34.9,134,70.26,197.94,116.48,20.62,15.56,61.44,47.15,73.4,70.73,2.89,5.66,4.12,10.38-.41,15.56a113.32,113.32,0,0,0-30.52,5.66c-21.44-11.79-56.49-36.78-73-47.62-63.91-39.62-126.59-72.63-194.22-105.16-.41,0-52-25-56.91-27.36-60.2-28.76-120-59.41-179-91.48-46.6-25.94-92.78-52.82-137.73-82a1013.22,1013.22,0,0,1-83.71-60.36,558,558,0,0,1-53.2-49c-9.89-10.37-19.38-21.69-25.56-34.89-5-10.38-.83-11.32,8.24-6.6,11.14,6.13,21.45,14.14,31.76,21.69,19,13.67,37.93,26.88,57.31,39.61,71.76,45.74,146.81,83.94,223.51,120.25C3414.52-1670.23,3476.37-1641.94,3537.4-1612.7Z" transform="translate(-257.12 3170.22)"/><path class="cls-3" d="M3031.09-1883.3a4,4,0,0,1,3.17-.28c4.29,8.19,8.8,16.16,13.31,23.61,1.8,3,4,6.21,6.42,9.51-8.82-10-17.28-20.66-22.9-32.84Zm1157,107.72c10.18-9.79,20-19.74,29.72-30l.8.79c24.08,20.42,44.84,34.33,73.62,47.32a274.29,274.29,0,0,0,48.84,15.9,277.43,277.43,0,0,0,46.45,4.38c5.43,0,24.6-1.48,34.62.29A93.86,93.86,0,0,0,4421-1727c-7.18,3.77-17.65,6.87-20.34,7.59-22.05,5.52-40.48,6.58-63.13,5.1a220.77,220.77,0,0,1-42.58-6.38c-40.63-10.85-69.3-26.41-102.86-51.6-1.36-1.08-2.73-2.17-4-3.28Zm-321.76,393.31-1.42.22a109.37,109.37,0,0,0-22.82,3.51c-2.75.39-5.56.75-8.35,1.11-21.37-12-55-36.18-71.24-46.47-63.85-39.72-126.33-72.81-194.12-105.4-.22,0-30.89-14.64-47.31-22.51a844.41,844.41,0,0,0,145.22,4c43.47,23.77,85.11,49.26,126.6,79.54,20.85,15.44,61.62,47,73.66,70.47,2.9,5.59,4.21,10.52-.22,15.5Z" transform="translate(-257.12 3170.22)"/><path class="cls-1" d="M4321.6-2860.79c-154.94-154.92-369-250.76-605.46-250.76s-450.52,95.84-605.48,250.76-250.79,369-250.79,605.5,95.86,450.51,250.79,605.45,369,250.79,605.48,250.79,450.52-95.82,605.46-250.79,250.81-369,250.81-605.45-95.86-450.52-250.81-605.5Zm-605.46-309.43c252.64,0,481.36,102.44,646.92,268s268,394.3,268,646.93-102.42,481.35-268,646.93-394.28,267.95-646.92,267.95-481.36-102.39-646.92-267.95-268-394.29-268-646.93,102.41-481.37,268-646.93,394.28-268,646.92-268Z" transform="translate(-257.12 3170.22)"/><path class="cls-3" d="M3839.2-1402.47c-24.87-12.92-58.63-30.65-104.19-54.86-47-25-96.46-51.46-145.36-78-24.85-13.5-51.07-27.47-77.37-41.47-206.09-109.76-420-223.7-555.61-432.78A623,623,0,0,1,2889-2149.31,641.14,641.14,0,0,1,2859.9-2278a29.24,29.24,0,0,0-32.53-25.61,29.28,29.28,0,0,0-25.66,32.49,702,702,0,0,0,31.81,140.64,682.82,682.82,0,0,0,74.12,152.81c143.76,221.62,364.52,339.19,577.15,452.43,25.46,13.58,50.82,27.08,76.92,41.24,62.12,33.73,109.59,59.26,145.83,78.49,37.68,20,73.5,38.79,104.86,55.07a29.25,29.25,0,0,0,39.39-12.58,29.26,29.26,0,0,0-12.59-39.4Zm-753.92-1432a29.3,29.3,0,0,1-41.36-1.93,29.25,29.25,0,0,1,1.95-41.32c74.27-67.44,163.28-126.75,265.31-164.25,87.94-32.33,185.35-48.49,291.1-39.9,342.24,28,397.32,390.77,439.09,665.94,9.24,60.9,17.81,117.3,28.58,163.23,28.92,123.33,64.43,234.14,111,317.24,43.92,78.42,97.27,131.31,163.73,144.61a172.41,172.41,0,0,0,52.38,2.1,236.15,236.15,0,0,0,52.48-12.18,29.25,29.25,0,0,1,37.22,18,29.23,29.23,0,0,1-18,37.22,295.61,295.61,0,0,1-65.54,15.16,230.38,230.38,0,0,1-70-2.8c-85.29-17.07-151.2-80.38-203.33-173.48-49.53-88.44-86.86-204.37-116.91-332.6-11.41-48.6-20.13-105.91-29.5-167.78-38.77-255.37-89.9-592.07-385.74-616.2A618.44,618.44,0,0,0,3331.33-2987c-94.32,34.71-176.92,89.75-246,152.52Z" transform="translate(-257.12 3170.22)"/></svg>