<svg id="Layer_1" data-name="Layer 1" xmlns="http://www.w3.org/2000/svg" viewBox="0 0 723.95 618.37"><defs><style>.cls-1{fill:#fff;}</style></defs><path class="cls-1" d="M819.48,751.36c-.78-6.89,6-11.57,12.46-10.35q284.63-.12,569.28,0a9.21,9.21,0,0,1,10.65,10.26q.3,266.52.06,533c.16,38.57-33.58,73.15-72,74.47-190.64.25-381.28,0-571.92.13-43.87,3.83-81.43-35.38-79.12-78.75l.08-1.9c-1.81-145.79-.36-291.68-.75-437.5-1.23-12.83,20.38-13,19-.06-.28,143.85,1.17,287.83-.81,431.57,1.25,11.46.58,23.48,5.8,34.13,9.2,21.42,32.71,35.67,56,33.16,28-1.76,51.6-27.47,51.18-55.47Q819.5,1017.76,819.48,751.36Zm71.31,65.26c150.62-.23,301.21.25,451.81-.2,11.79.64,11.71-19.35-.11-18.63-148.73-.47-297.51-.17-446.27-.08C884.76,795.84,881.64,811.46,890.79,816.62Zm0,54c65.12-.28,130.27-.06,195.39-.11l1.53,0c4.6,0,9.23,0,13.86-.08a12.24,12.24,0,0,0,2.62-.06q119.05.42,238.08.08c11.66.76,12.33-18.85.59-18.82-149-.47-297.87-.2-446.82-.11C884.51,850,882,865.25,890.81,870.58ZM886.88,916c.06,55-.39,110,.25,165,2.09,1.51,4.19,3.07,6.28,4.63,51.23.17,102.49,0,153.74.11,6.19,1,13-3.87,12-10.59,0-55.14.22-110.3-.14-165.44-3.71-2.17-7.39-5-12-4.35q-74.09,0-148.14,0C892.54,904.38,885.77,909.15,886.88,916Zm213.79-10.1c-10.23,3.15-6.25,20.3,4.55,18.21,79.11,0,158.26.2,237.38-.11,11.52.56,11.85-18.94.19-18.52C1262.11,905.5,1181.32,904.69,1100.67,905.94Zm1.56,71.87c81.1.7,162.23.14,243.35.22,2.18-1.95,4.41-3.87,6.61-5.77-.58-5.83-2.68-13.47-10-13-79-.33-158-.16-236.94-.08C1093.78,957.12,1090.41,976.47,1102.23,977.81Zm-4,37.28c-7.48,5.5-2.12,18.33,7.08,16.88,79,.08,158,.19,236.94-.09,11.82.81,12.46-19.07.41-18.71-77.19-.39-154.41-.08-231.63-.22C1106.75,1013.31,1101.73,1012,1098.22,1015.09Zm2.31,52.52c-8.73,2.65-7.39,17.93,2.2,17.9,79.07.53,158.16.06,237.22.25,7.3,1.59,14.67-6.52,10.79-13.41-4.21-8.23-15-4.57-22.37-5.75C1252.46,1067.66,1176.33,1065.68,1100.53,1067.61Zm-208.71,53.54c-11,2.46-7,20.61,4.12,18.58q223.35,0,446.66-.06c11.93.36,11.63-19.72-.31-18.85C1192.14,1120.82,1041.91,1120.15,891.82,1121.15Zm4.4,72.32c148.76,0,297.43.36,446.15,0,11.86.56,12.11-19.33.2-18.77-150.73-.53-301.44,0-452.17-.08C881.78,1180.3,884.87,1194.94,896.22,1193.47Zm-5.13,35.66c-9.09,2.54-7.05,18.33,2.54,18,83.66,1.31,167.55-1.56,251.1,1.68,24.88-3.85,49.89,2.23,74.85-1.12,41.64-1,83.39.47,125-.73,10.15-1.64,8.58-18.79-1.93-18.37-146-1.54-292,.08-438-.42C900.13,1228.21,895.5,1228,891.09,1229.13Zm205.2,57.23c-4.68,6.33,1,16,8.93,14.78,74.46.2,148.89,0,223.32.14a49.71,49.71,0,0,0,14.31-2c.81-1.75,2.4-5.29,3.21-7-1.82-4.16-3.66-10.4-9.4-9.73-75.22-.48-150.46,0-225.67-.25C1105.94,1282.51,1099.36,1281.17,1096.29,1286.36Z" transform="translate(-688.02 -740.82)"/><path class="cls-1" d="M918.43,924.2q54.52,0,109.06,0a12.77,12.77,0,0,1,12.75,12.74q.13,58.59,0,117.19a12.74,12.74,0,0,1-12.74,12.75c-36.32,0-72.65,0-109,0a12.74,12.74,0,0,1-12.78-12.63c-.31-39.09,0-78.19-.09-117.29A12.76,12.76,0,0,1,918.43,924.2Z" transform="translate(-688.02 -740.82)"/><path class="cls-1" d="M740.78,1312.38h0a9.12,9.12,0,0,1-9.12-9.12V793.92a9.12,9.12,0,0,1,9.12-9.12h0a9.11,9.11,0,0,1,9.11,9.12v509.34A9.11,9.11,0,0,1,740.78,1312.38Z" transform="translate(-688.02 -740.82)"/><path class="cls-1" d="M785.47,1301.29h0a9.11,9.11,0,0,1-9.12-9.11V760.4a9.12,9.12,0,0,1,9.12-9.12h0a9.11,9.11,0,0,1,9.11,9.12v531.78A9.11,9.11,0,0,1,785.47,1301.29Z" transform="translate(-688.02 -740.82)"/></svg>