<svg id="Layer_1" data-name="Layer 1" xmlns="http://www.w3.org/2000/svg" viewBox="0 0 2488.65 1919.62"><defs><style>.cls-1{fill:#fff;}</style></defs><path class="cls-1" d="M2560.67,1765.25c42.72-222.47,12-453.16-81.9-650.08-95-201.79-255.73-364.81-444.67-463.88-94.86-48.93-196.2-83.39-299.66-99.17-103.27-16.74-207.86-15.3-308.72.82-100.85,17.12-198,49.72-286.28,96.76a934.16,934.16,0,0,0-235.2,178.82A913,913,0,0,1,1156.5,688c89.91-32.44,184-49.26,277.23-51.63,93.34-1.36,185.94,11,272.79,38.34,87.13,26.41,168.1,68.23,240.33,119.71,143.85,104.4,249.87,252.82,298.54,414.29,45.65,147.92,44.46,306.07,1.13,447.17l-207.08-72.1,243.27,436.34,461.62-190.91Z" transform="translate(-255.67 -540.19)"/><path class="cls-1" d="M1878.89,2312c-89.92,32.44-184,49.26-277.23,51.63-93.34,1.36-186-11-272.8-38.34-87.13-26.41-168.09-68.23-240.32-119.71C944.69,2101.2,838.66,1952.78,790,1791.31c-45.25-146.63-44.44-303.29-2.23-443.45L960.56,1408,717.29,971.68,255.67,1162.59l218.33,76c-41.63,221.27-10.79,450.43,82.61,646.22,95,201.79,255.74,364.81,444.68,463.88,94.86,48.93,196.2,83.39,299.65,99.17,103.27,16.74,207.87,15.3,308.73-.82,100.84-17.12,197.95-49.72,286.28-96.76a934.34,934.34,0,0,0,235.2-178.82A913,913,0,0,1,1878.89,2312Z" transform="translate(-255.67 -540.19)"/></svg>