<svg id="Layer_1" data-name="Layer 1" xmlns="http://www.w3.org/2000/svg" viewBox="0 0 2284.74 2040.7"><defs><style>.cls-1{fill:#fff;fill-rule:evenodd;}</style></defs><g id="Layer_1-2" data-name="Layer_1"><g id="_461563112" data-name=" 461563112"><polygon id="_461564360" data-name=" 461564360" class="cls-1" points="1161.8 38.7 1161.8 389.5 1512.6 389.5 1161.8 38.7"/><path id="_461563640" data-name=" 461563640" class="cls-1" d="M1028.87,960.53v2040.7h1551.4v-350.5l-88.3,57.1a27.56,27.56,0,0,1-14.9,4.4,26.86,26.86,0,0,1-13.7-3.7,27.2,27.2,0,0,1-13.7-25.1l14.3-281.7a26.92,26.92,0,0,1,4.3-13.4l112.1-194.2v-789.2h-417a27.44,27.44,0,0,1-27.4-27.4v-417Zm818.2,275.9h-585.2a27.4,27.4,0,1,1,0-54.8h585.2a27.4,27.4,0,1,1,0,54.8Zm-585.2,342.8h1085.3a27.4,27.4,0,1,1,0,54.8H1261.87a27.4,27.4,0,1,1,0-54.8Zm0,397.6h1085.3a27.4,27.4,0,0,1,0,54.8H1261.87a27.4,27.4,0,1,1,0-54.8Zm0,397.6h1085.3a27.4,27.4,0,0,1,0,54.8H1261.87a27.4,27.4,0,1,1,0-54.8Zm0,397.6h1085.3a27.4,27.4,0,1,1,0,54.8H1261.87a27.4,27.4,0,0,1,0-54.8Z" transform="translate(-1028.87 -960.53)"/><polygon id="_461563976" data-name=" 461563976" class="cls-1" points="1487.5 1488.7 1478.3 1672.1 1563.4 1617.1 1564.4 1616.4 1632.5 1572.3 1487.5 1488.7"/><path id="_461564048" data-name=" 461564048" class="cls-1" d="M2630.87,2216l-102.1,176.9L2704,2494l477-826.3-175.2-101.2L2632,2214a18,18,0,0,1-1.1,2Z" transform="translate(-1028.87 -960.53)"/><path id="_461563952" data-name=" 461563952" class="cls-1" d="M3124.87,1360.43l-91.6,158.8,175.2,101.1,91.6-158.8a101.17,101.17,0,0,0-37-138.1,101.73,101.73,0,0,0-138.2,37Z" transform="translate(-1028.87 -960.53)"/></g></g></svg>